{"glyphs":{"0":{"ha":764,"x_min":81,"x_max":682,"o":"m 682 416 q 659 229 682 311 q 592 90 636 146 q 484 3 548 33 q 336 -27 419 -27 q 145 49 210 -27 q 81 268 81 125 q 90 383 81 326 q 116 492 98 440 q 162 587 134 543 q 230 663 191 631 q 319 712 269 694 q 431 730 369 730 q 541 708 494 730 q 620 645 588 686 q 667 545 651 604 q 682 416 682 487 m 519 397 q 515 465 519 429 q 499 531 511 500 q 464 581 487 561 q 403 600 441 600 q 330 572 360 600 q 282 498 300 543 q 254 396 263 453 q 245 283 245 340 q 274 148 245 191 q 363 104 302 104 q 436 129 406 104 q 485 196 466 155 q 511 290 503 237 q 519 397 519 342 z "},"1":{"ha":505,"x_min":61,"x_max":410,"o":"m 410 715 q 361 304 380 496 q 336 0 345 161 l 159 0 q 197 304 181 152 q 215 513 214 469 l 87 469 l 61 538 l 328 715 l 410 715 z "},"2":{"ha":627,"x_min":27,"x_max":545,"o":"m 545 145 l 517 0 l 27 0 l 54 136 q 181 220 130 179 q 273 302 233 261 q 333 387 313 344 q 354 475 354 429 q 191 590 354 590 q 97 581 153 590 l 123 707 q 276 722 178 722 q 461 668 399 722 q 524 517 524 614 q 510 430 524 471 q 472 352 496 389 q 416 285 448 316 q 348 228 385 254 q 273 181 312 202 q 212 144 235 160 l 211 135 q 545 145 353 135 z "},"3":{"ha":648,"x_min":0,"x_max":567,"o":"m 567 117 q 398 -159 567 -61 q 12 -271 229 -258 l 0 -158 q 269 -80 146 -145 q 392 94 392 -14 q 123 235 392 235 l 149 347 q 308 378 236 347 q 401 497 401 420 q 254 591 401 591 q 127 579 182 591 l 151 705 q 343 722 203 722 q 511 674 455 722 q 567 549 567 626 q 514 420 567 477 q 392 346 467 371 l 391 335 q 520 260 473 321 q 567 117 567 199 z "},"4":{"ha":709,"x_min":27,"x_max":648,"o":"m 648 236 l 618 87 l 517 87 q 492 -224 504 -40 l 319 -224 q 358 87 331 -143 l 33 87 l 27 217 q 218 464 28 229 q 412 715 408 698 l 591 715 q 531 229 576 612 q 648 236 589 229 m 425 566 l 414 566 q 288 396 413 552 q 161 231 163 241 l 160 222 q 377 226 241 222 q 425 566 393 318 z "},"5":{"ha":653,"x_min":27,"x_max":572,"o":"m 572 715 l 551 566 q 249 580 430 580 q 216 395 237 538 q 564 146 564 395 q 407 -135 564 -33 q 41 -248 250 -238 l 27 -135 q 278 -61 172 -121 q 384 112 384 0 q 310 236 384 201 q 67 272 235 272 q 105 439 88 359 q 153 715 144 630 l 572 715 z "},"6":{"ha":732,"x_min":68,"x_max":650,"o":"m 650 307 q 558 71 650 168 q 325 -27 465 -27 q 142 51 217 -27 q 68 280 68 128 q 203 724 68 549 q 599 911 338 899 l 606 800 q 250 485 321 768 l 259 485 q 430 553 319 553 q 593 480 536 553 q 650 307 650 408 m 492 286 q 457 395 492 351 q 355 440 422 440 q 235 392 280 440 q 231 300 231 347 q 343 95 231 95 q 451 155 410 95 q 492 286 492 215 z "},"7":{"ha":649,"x_min":34,"x_max":629,"o":"m 629 715 q 514 401 615 586 q 314 40 414 216 q 205 -224 215 -136 l 34 -210 q 247 190 43 -121 q 458 574 450 500 q 76 561 325 574 l 96 715 l 629 715 z "},"8":{"ha":738,"x_min":54,"x_max":656,"o":"m 656 740 q 612 610 656 669 q 500 525 569 553 l 499 514 q 650 272 650 427 q 554 62 650 140 q 321 -16 457 -16 q 128 51 201 -16 q 54 220 54 117 q 110 385 54 314 q 258 493 166 456 l 259 504 q 152 698 152 574 q 235 866 152 806 q 433 927 319 927 q 594 873 532 927 q 656 740 656 820 m 488 257 q 347 448 488 378 q 253 375 296 427 q 210 237 210 323 q 245 140 210 176 q 337 104 280 104 q 445 149 401 104 q 488 257 488 193 m 517 722 q 488 795 517 768 q 414 823 460 823 q 329 792 363 823 q 296 711 296 762 q 412 557 296 618 q 487 626 458 581 q 517 722 517 671 z "},"9":{"ha":728,"x_min":68,"x_max":646,"o":"m 646 395 q 507 -72 646 121 q 102 -275 368 -264 l 89 -162 q 344 -47 252 -153 q 465 215 435 59 l 458 215 q 286 144 392 144 q 124 218 181 144 q 68 394 68 292 q 159 627 68 532 q 390 722 250 722 q 571 637 496 722 q 646 395 646 552 m 484 391 q 451 548 484 496 q 366 599 417 599 q 262 539 300 599 q 224 410 224 480 q 258 299 224 344 q 355 254 291 254 q 479 309 430 254 q 484 391 484 354 z "},"\u0000":{"ha":294,"x_min":0,"x_max":0,"o":""},"\r":{"ha":301,"x_min":0,"x_max":0,"o":""}," ":{"ha":294,"x_min":0,"x_max":0,"o":""},"A":{"ha":825,"x_min":-41,"x_max":777,"o":"m 777 0 l 570 0 q 538 254 570 74 l 241 254 q 199 149 216 196 q 153 0 155 38 l -41 0 q 155 434 -39 25 q 353 883 349 844 l 596 883 q 686 444 596 806 q 777 0 777 82 m 519 383 q 448 762 448 731 l 438 762 q 284 383 435 738 l 519 383 z "},"B":{"ha":793,"x_min":57,"x_max":739,"o":"m 739 285 q 290 -4 739 -4 q 57 0 217 -4 q 113 462 71 93 q 142 883 139 709 l 254 883 q 357 885 283 883 q 470 887 431 887 q 664 841 592 887 q 736 706 736 795 q 689 570 736 630 q 568 492 642 511 l 567 482 q 687 421 635 471 q 739 285 739 372 m 564 275 q 352 393 564 393 q 269 390 308 393 q 246 129 254 248 q 318 123 275 123 q 507 160 450 123 q 564 275 564 197 m 557 656 q 424 760 557 760 q 300 749 357 760 q 281 514 300 722 q 339 513 312 513 q 557 656 557 513 z "},"C":{"ha":711,"x_min":37,"x_max":696,"o":"m 696 876 l 658 720 q 515 745 585 745 q 301 645 378 745 q 223 406 223 545 q 289 211 223 290 q 479 132 354 132 q 657 161 559 132 l 629 5 q 446 -18 522 -18 q 139 100 241 -18 q 37 385 37 218 q 184 748 37 600 q 549 895 330 895 q 696 876 628 895 z "},"D":{"ha":855,"x_min":58,"x_max":818,"o":"m 818 509 q 679 144 818 296 q 325 -8 540 -8 q 58 0 223 -8 q 114 462 71 93 q 143 883 140 709 l 262 883 q 345 885 290 883 q 429 887 399 887 q 721 780 623 887 q 818 509 818 672 m 640 488 q 575 677 640 604 q 381 751 511 751 q 302 745 349 751 q 277 462 298 683 q 248 140 260 300 q 334 132 290 132 q 558 237 477 132 q 640 488 640 342 z "},"E":{"ha":699,"x_min":56,"x_max":671,"o":"m 671 883 l 650 734 q 302 745 459 745 q 284 523 297 673 q 572 530 418 523 l 557 389 q 271 395 408 395 q 248 138 256 258 q 626 149 424 138 l 604 0 l 56 0 q 113 462 71 93 q 142 883 139 709 l 671 883 z "},"F":{"ha":665,"x_min":57,"x_max":682,"o":"m 682 883 l 661 734 q 300 745 463 745 q 280 488 296 673 q 564 495 405 488 l 549 355 q 267 361 389 361 q 238 0 247 169 l 57 0 q 114 462 71 93 q 142 883 140 709 l 682 883 z "},"G":{"ha":817,"x_min":37,"x_max":749,"o":"m 749 439 q 722 229 742 391 q 712 23 714 153 q 446 -18 549 -18 q 140 98 243 -18 q 37 381 37 214 q 188 748 37 601 q 561 895 338 895 q 742 876 665 895 l 704 715 q 526 743 606 743 q 303 644 385 743 q 221 398 221 544 q 286 200 221 281 q 471 119 351 119 q 558 127 508 119 q 557 173 557 139 q 563 293 557 205 q 568 439 568 381 l 749 439 z "},"H":{"ha":881,"x_min":56,"x_max":825,"o":"m 825 883 q 772 462 812 806 q 739 0 745 202 l 550 0 q 597 389 564 106 l 273 389 q 245 0 258 241 l 56 0 q 113 462 71 102 q 142 883 138 703 l 332 883 q 286 530 318 794 l 614 530 q 635 883 631 684 l 825 883 z "},"I":{"ha":389,"x_min":57,"x_max":333,"o":"m 333 883 q 280 462 321 807 q 247 0 255 226 l 57 0 q 115 462 72 96 q 143 883 141 709 l 333 883 z "},"J":{"ha":554,"x_min":-20,"x_max":514,"o":"m 514 883 q 453 384 500 793 q 332 63 429 158 q 91 -18 248 -18 q -20 -4 34 -18 l 6 142 q 90 121 47 121 q 217 160 175 121 q 294 370 278 216 q 332 883 327 680 l 514 883 z "},"K":{"ha":800,"x_min":57,"x_max":785,"o":"m 785 883 q 648 712 785 861 q 449 519 511 562 l 448 509 q 624 260 506 477 q 743 0 743 43 l 538 0 q 445 225 538 40 q 303 411 351 411 l 275 411 q 245 0 258 256 l 57 0 q 113 462 71 93 q 142 883 139 709 l 332 883 q 288 530 319 795 l 302 530 q 457 695 330 530 q 584 883 584 861 l 785 883 z "},"L":{"ha":652,"x_min":57,"x_max":614,"o":"m 614 148 l 592 0 l 57 0 q 114 462 70 81 q 143 883 141 717 l 331 883 q 278 462 319 817 q 239 138 256 258 q 614 148 399 138 z "},"M":{"ha":1124,"x_min":17,"x_max":1040,"o":"m 1040 883 q 1017 400 1017 690 q 1027 0 1017 210 l 834 0 q 875 734 834 281 l 864 734 q 821 595 854 691 q 688 272 787 500 q 583 0 588 45 l 436 0 q 385 282 436 54 q 323 578 334 511 q 304 734 313 646 l 294 734 q 239 345 286 656 q 192 0 192 33 l 17 0 q 104 420 17 18 q 200 883 192 822 l 447 883 q 497 547 447 790 q 547 216 547 304 l 557 216 q 674 552 564 282 q 791 883 785 822 l 1040 883 z "},"N":{"ha":897,"x_min":57,"x_max":840,"o":"m 840 883 q 787 462 828 808 q 747 0 760 207 l 589 0 q 436 312 589 33 q 260 698 277 603 l 250 698 q 258 594 258 646 q 245 401 258 515 q 215 0 228 234 l 57 0 q 114 462 71 96 q 142 883 140 709 l 340 883 q 477 575 340 838 q 637 214 622 298 l 647 214 q 639 297 639 253 q 652 513 639 391 q 675 883 672 709 l 840 883 z "},"O":{"ha":904,"x_min":37,"x_max":867,"o":"m 867 503 q 732 134 867 293 q 393 -24 597 -24 q 138 90 239 -24 q 37 376 37 203 q 173 746 37 588 q 511 903 309 903 q 766 790 666 903 q 867 503 867 676 m 687 490 q 628 684 687 611 q 479 756 568 756 q 290 642 361 756 q 218 392 218 528 q 277 198 218 271 q 426 125 336 125 q 615 240 543 125 q 687 490 687 355 z "},"P":{"ha":768,"x_min":57,"x_max":739,"o":"m 739 663 q 621 418 739 501 q 304 335 502 335 q 266 336 279 335 q 245 0 252 209 l 57 0 q 114 462 71 87 q 143 883 140 706 l 261 883 q 353 885 285 883 q 471 887 422 887 q 661 828 583 887 q 739 663 739 769 m 568 634 q 399 760 568 760 q 304 749 354 760 q 279 459 300 692 q 316 458 294 458 q 568 634 568 458 z "},"Q":{"ha":904,"x_min":37,"x_max":866,"o":"m 866 503 q 797 231 866 357 q 604 34 728 105 l 604 23 q 750 -60 705 10 q 810 -293 796 -130 l 621 -301 q 565 -76 603 -127 q 393 -24 527 -24 q 138 90 238 -24 q 37 376 37 203 q 173 747 37 591 q 511 903 308 903 q 766 790 666 903 q 866 503 866 676 m 686 490 q 627 684 686 611 q 479 756 568 756 q 290 642 362 756 q 218 392 218 528 q 277 198 218 271 q 426 125 336 125 q 614 239 543 125 q 686 490 686 353 z "},"R":{"ha":810,"x_min":57,"x_max":743,"o":"m 743 0 l 553 0 q 465 293 505 233 q 336 353 425 353 q 267 352 309 353 q 242 0 247 164 l 57 0 q 113 462 71 93 q 143 883 139 709 l 260 883 q 342 885 280 883 q 456 887 404 887 q 653 836 576 887 q 730 685 730 785 q 676 533 730 599 q 536 439 622 467 l 535 429 q 642 317 597 410 q 743 0 686 224 m 560 645 q 409 759 560 759 q 303 749 349 759 q 280 475 300 690 q 340 474 315 474 q 560 645 560 474 z "},"S":{"ha":702,"x_min":18,"x_max":657,"o":"m 657 875 l 617 724 q 433 758 534 758 q 270 659 270 758 q 305 591 270 620 q 427 526 336 566 q 635 260 635 433 q 244 -24 635 -24 q 18 7 121 -24 l 66 158 q 259 120 166 120 q 389 134 347 120 q 464 226 464 157 q 423 306 464 271 q 289 384 387 338 q 102 631 102 473 q 199 834 102 772 q 448 897 296 897 q 657 875 574 897 z "},"T":{"ha":720,"x_min":58,"x_max":740,"o":"m 740 883 l 720 737 q 479 747 592 747 q 447 462 471 686 q 412 0 419 199 l 225 0 q 282 462 239 98 q 309 747 298 616 q 58 736 218 747 l 79 883 l 740 883 z "},"U":{"ha":882,"x_min":76,"x_max":835,"o":"m 835 883 q 782 427 823 789 q 385 -23 734 -23 q 155 50 235 -23 q 76 321 76 123 q 81 421 76 365 q 118 883 104 635 l 307 883 q 252 441 292 777 q 246 329 246 382 q 285 162 246 208 q 403 116 324 116 q 551 182 498 116 q 624 442 604 248 q 654 883 647 665 l 835 883 z "},"V":{"ha":795,"x_min":56,"x_max":825,"o":"m 825 883 q 627 436 825 821 q 424 0 429 50 l 247 0 q 151 437 247 104 q 56 883 56 770 l 256 883 q 312 528 256 788 q 369 189 369 268 l 380 189 q 509 513 383 222 q 635 883 635 804 l 825 883 z "},"W":{"ha":1263,"x_min":56,"x_max":1292,"o":"m 1292 883 q 1112 432 1292 817 q 928 0 932 46 l 757 0 q 704 318 757 76 q 648 652 652 559 l 637 652 q 514 307 618 566 q 405 0 410 48 l 231 0 q 143 455 231 99 q 56 883 56 812 l 258 883 q 301 547 258 816 q 345 189 345 279 l 354 189 q 475 532 359 240 q 591 883 591 824 l 774 883 q 820 542 774 811 q 866 189 866 273 l 876 189 q 991 515 880 231 q 1101 883 1101 800 l 1292 883 z "},"X":{"ha":804,"x_min":-35,"x_max":802,"o":"m 802 883 q 672 695 802 865 q 509 494 543 525 l 509 484 q 643 235 546 438 q 741 0 741 31 l 524 0 q 464 176 524 27 q 380 366 404 326 l 370 366 q 254 175 336 323 q 172 0 172 26 l -35 0 q 115 228 -35 20 q 304 473 265 436 l 305 484 q 189 692 276 524 q 102 883 102 860 l 309 883 q 359 734 309 859 q 429 582 410 610 l 439 582 q 539 738 467 615 q 612 883 612 861 l 802 883 z "},"Y":{"ha":722,"x_min":45,"x_max":758,"o":"m 758 883 q 641 690 758 854 q 472 445 525 526 q 412 297 419 363 q 396 0 397 148 l 206 0 q 245 317 245 258 q 145 638 245 414 q 45 883 45 863 l 247 883 q 304 671 247 840 q 362 443 362 503 l 372 443 q 476 663 377 489 q 574 883 574 836 l 758 883 z "},"Z":{"ha":694,"x_min":15,"x_max":674,"o":"m 674 883 l 650 743 q 409 409 568 637 q 249 148 250 180 l 248 138 q 611 153 384 138 l 591 0 l 15 0 l 39 139 q 289 474 121 239 q 458 739 456 709 l 458 750 q 103 734 304 750 l 123 883 l 674 883 z "},"À":{"ha":825,"x_min":-41,"x_max":777,"o":"m 777 0 l 570 0 q 538 254 570 74 l 241 254 q 199 149 216 196 q 153 0 155 38 l -41 0 q 155 434 -39 25 q 353 883 349 844 l 596 883 q 686 444 596 806 q 777 0 777 82 m 519 383 q 448 762 448 731 l 438 762 q 284 383 435 738 l 519 383 m 583 960 l 465 960 q 392 1055 465 971 q 317 1146 318 1138 l 496 1146 q 540 1055 496 1139 q 583 960 583 971 z "},"Á":{"ha":825,"x_min":-41,"x_max":777,"o":"m 777 0 l 570 0 q 538 254 570 74 l 241 254 q 199 149 216 196 q 153 0 155 38 l -41 0 q 155 434 -39 25 q 353 883 349 844 l 596 883 q 686 444 596 806 q 777 0 777 82 m 519 383 q 448 762 448 731 l 438 762 q 284 383 435 738 l 519 383 m 707 1146 q 607 1055 707 1138 q 507 960 507 971 l 389 960 q 454 1055 389 971 q 520 1146 520 1139 l 707 1146 z "},"Â":{"ha":825,"x_min":-41,"x_max":777,"o":"m 777 0 l 570 0 q 538 254 570 74 l 241 254 q 199 149 216 196 q 153 0 155 38 l -41 0 q 155 434 -39 25 q 353 883 349 844 l 596 883 q 686 444 596 806 q 777 0 777 82 m 519 383 q 448 762 448 731 l 438 762 q 284 383 435 738 l 519 383 m 690 960 l 591 960 q 496 1047 591 969 q 377 960 378 969 l 278 960 q 350 1052 279 969 q 425 1146 421 1135 l 589 1146 q 641 1052 591 1135 q 690 960 690 969 z "},"Ã":{"ha":825,"x_min":-41,"x_max":777,"o":"m 777 0 l 570 0 q 538 254 570 74 l 241 254 q 199 149 216 196 q 153 0 155 38 l -41 0 q 155 434 -39 25 q 353 883 349 844 l 596 883 q 686 444 596 806 q 777 0 777 82 m 519 383 q 448 762 448 731 l 438 762 q 284 383 435 738 l 519 383 m 749 1093 q 568 968 661 968 q 491 984 534 968 q 416 1000 448 1000 q 296 955 358 1000 l 244 1006 q 425 1132 332 1132 q 502 1117 459 1132 q 577 1102 545 1102 q 698 1144 635 1102 l 749 1093 z "},"Ä":{"ha":825,"x_min":-41,"x_max":777,"o":"m 777 0 l 570 0 q 538 254 570 74 l 241 254 q 199 149 216 196 q 153 0 155 38 l -41 0 q 155 434 -39 25 q 353 883 349 844 l 596 883 q 686 444 596 806 q 777 0 777 82 m 519 383 q 448 762 448 731 l 438 762 q 284 383 435 738 l 519 383 m 707 1074 q 677 997 707 1029 q 602 966 646 966 q 529 1040 529 966 q 560 1116 529 1085 q 636 1147 591 1147 q 707 1074 707 1147 m 457 1074 q 426 997 457 1029 q 351 966 395 966 q 279 1040 279 966 q 310 1116 279 1084 q 386 1147 341 1147 q 457 1074 457 1147 z "},"Ā":{"ha":825,"x_min":-41,"x_max":777,"o":"m 777 0 l 570 0 q 538 254 570 74 l 241 254 q 199 149 216 196 q 153 0 155 38 l -41 0 q 155 434 -39 25 q 353 883 349 844 l 596 883 q 686 444 596 806 q 777 0 777 82 m 519 383 q 448 762 448 731 l 438 762 q 284 383 435 738 l 519 383 m 664 1099 l 644 981 l 319 981 l 338 1099 l 664 1099 z "},"Ă":{"ha":825,"x_min":-41,"x_max":777,"o":"m 777 0 l 570 0 q 538 254 570 74 l 241 254 q 199 149 216 196 q 153 0 155 38 l -41 0 q 155 434 -39 25 q 353 883 349 844 l 596 883 q 686 444 596 806 q 777 0 777 82 m 519 383 q 448 762 448 731 l 438 762 q 284 383 435 738 l 519 383 m 701 1105 q 472 935 622 935 q 277 1105 313 935 l 368 1146 q 483 1046 403 1046 q 620 1146 560 1046 l 701 1105 z "},"Å":{"ha":825,"x_min":-41,"x_max":777,"o":"m 777 0 l 570 0 q 538 254 570 74 l 241 254 q 199 149 216 196 q 153 0 155 38 l -41 0 q 155 434 -39 25 q 353 883 349 844 l 596 883 q 686 444 596 806 q 777 0 777 82 m 519 383 q 448 762 448 731 l 438 762 q 284 383 435 738 l 519 383 m 650 1087 q 594 961 650 1009 q 477 918 545 918 q 374 955 416 918 q 328 1067 328 996 q 383 1192 328 1145 q 500 1234 433 1234 q 603 1198 562 1234 q 650 1087 650 1158 m 572 1081 q 549 1145 572 1122 q 494 1165 527 1165 q 433 1141 459 1165 q 405 1072 405 1115 q 429 1008 405 1031 q 483 987 450 987 q 544 1010 518 987 q 572 1081 572 1038 z "},"Ǻ":{"ha":829,"x_min":-41,"x_max":777,"o":"m 777 0 l 570 0 q 538 254 570 74 l 241 254 q 199 149 216 196 q 153 0 155 38 l -41 0 q 155 434 -39 25 q 353 883 349 844 l 596 883 q 686 444 596 806 q 777 0 777 82 m 618 1029 q 576 932 618 968 q 482 896 535 896 q 399 927 434 896 q 363 1014 363 958 q 405 1111 363 1075 q 500 1146 446 1146 q 583 1116 549 1146 q 618 1029 618 1085 m 519 383 q 448 762 448 731 l 438 762 q 284 383 435 738 l 519 383 m 748 1289 q 662 1227 747 1280 q 569 1164 577 1175 l 458 1164 q 510 1228 459 1175 q 562 1289 561 1281 l 748 1289 m 551 1027 q 534 1073 551 1057 q 494 1088 518 1088 q 449 1070 469 1088 q 429 1020 429 1052 q 446 976 429 991 q 486 960 463 960 q 531 978 511 960 q 551 1027 551 996 z "},"Ą":{"ha":829,"x_min":-41,"x_max":777,"o":"m 777 0 q 580 -154 580 -44 q 656 -223 580 -223 q 707 -214 674 -223 l 714 -316 q 624 -330 669 -330 q 494 -293 534 -330 q 454 -192 454 -256 q 570 0 454 -62 q 538 254 570 74 l 241 254 q 186 117 216 196 q 153 0 155 38 l -41 0 q 155 434 -39 25 q 353 883 349 844 l 596 883 q 686 444 596 806 q 777 0 777 82 m 519 383 q 448 762 448 731 l 438 762 q 284 383 435 738 l 519 383 z "},"Æ":{"ha":1084,"x_min":-41,"x_max":1055,"o":"m 1055 883 l 1035 734 q 679 745 836 745 q 661 523 674 674 q 958 528 786 523 l 943 389 q 647 395 784 395 q 625 138 633 258 q 1010 149 804 138 l 989 0 l 435 0 q 469 254 446 62 l 230 254 q 178 117 207 196 q 145 0 149 38 l -41 0 q 155 433 -38 26 q 353 883 349 840 l 1055 883 m 516 745 l 431 745 q 275 383 429 719 l 484 383 q 516 745 505 582 z "},"Ǽ":{"ha":1084,"x_min":-41,"x_max":1055,"o":"m 1055 883 l 1035 734 q 679 745 836 745 q 661 523 674 674 q 958 528 786 523 l 943 389 q 647 395 784 395 q 625 138 633 258 q 1010 149 804 138 l 989 0 l 435 0 q 469 254 446 62 l 230 254 q 178 117 207 196 q 145 0 149 38 l -41 0 q 155 433 -38 26 q 353 883 349 840 l 1055 883 m 516 745 l 431 745 q 275 383 429 719 l 484 383 q 516 745 505 582 m 916 1146 q 816 1055 916 1138 q 716 960 716 971 l 598 960 q 664 1055 598 971 q 730 1146 730 1139 l 916 1146 z "},"Ć":{"ha":711,"x_min":37,"x_max":744,"o":"m 696 876 l 658 720 q 515 745 585 745 q 301 645 378 745 q 223 406 223 545 q 289 211 223 290 q 479 132 354 132 q 657 161 559 132 l 629 5 q 446 -18 522 -18 q 139 100 241 -18 q 37 385 37 218 q 184 748 37 600 q 549 895 330 895 q 696 876 628 895 m 744 1146 q 644 1055 744 1138 q 544 960 544 971 l 426 960 q 492 1055 426 971 q 557 1146 557 1139 l 744 1146 z "},"Ĉ":{"ha":711,"x_min":37,"x_max":724,"o":"m 696 876 l 658 720 q 515 745 585 745 q 301 645 378 745 q 223 406 223 545 q 289 211 223 290 q 479 132 354 132 q 657 161 559 132 l 629 5 q 446 -18 522 -18 q 139 100 241 -18 q 37 385 37 218 q 184 748 37 600 q 549 895 330 895 q 696 876 628 895 m 724 960 l 625 960 q 530 1047 625 969 q 410 960 411 969 l 311 960 q 383 1052 312 969 q 458 1146 454 1135 l 622 1146 q 674 1052 625 1135 q 724 960 724 969 z "},"Č":{"ha":711,"x_min":37,"x_max":739,"o":"m 696 876 l 658 720 q 515 745 585 745 q 301 645 378 745 q 223 406 223 545 q 289 211 223 290 q 479 132 354 132 q 657 161 559 132 l 629 5 q 446 -18 522 -18 q 139 100 241 -18 q 37 385 37 218 q 184 748 37 600 q 549 895 330 895 q 696 876 628 895 m 739 1146 q 667 1054 739 1137 q 592 960 596 971 l 429 960 q 376 1054 426 971 q 327 1146 327 1137 l 426 1146 q 521 1059 426 1137 q 640 1146 640 1137 l 739 1146 z "},"Ċ":{"ha":711,"x_min":37,"x_max":696,"o":"m 696 876 l 658 720 q 515 745 585 745 q 301 645 378 745 q 223 406 223 545 q 289 211 223 290 q 479 132 354 132 q 657 161 559 132 l 629 5 q 446 -18 522 -18 q 139 100 241 -18 q 37 385 37 218 q 184 748 37 600 q 549 895 330 895 q 696 876 628 895 m 641 1065 q 604 974 641 1012 q 514 937 568 937 q 450 962 473 937 q 428 1025 428 987 q 465 1116 428 1079 q 555 1152 501 1152 q 641 1065 641 1152 z "},"Ç":{"ha":711,"x_min":37,"x_max":696,"o":"m 696 876 l 658 720 q 515 745 585 745 q 301 645 378 745 q 223 406 223 545 q 289 211 223 290 q 479 132 354 132 q 657 161 559 132 l 629 5 q 446 -18 522 -18 q 399 -16 422 -18 l 392 -47 q 499 -178 499 -85 q 325 -335 499 -335 l 317 -259 q 366 -239 345 -259 q 387 -193 387 -220 q 313 -112 387 -127 l 342 -9 q 125 116 213 16 q 37 385 37 217 q 184 748 37 600 q 549 895 330 895 q 696 876 628 895 z "},"Ď":{"ha":855,"x_min":58,"x_max":818,"o":"m 818 509 q 679 144 818 296 q 325 -8 540 -8 q 58 0 223 -8 q 114 462 71 93 q 143 883 140 709 l 262 883 q 345 885 290 883 q 429 887 399 887 q 721 780 623 887 q 818 509 818 672 m 640 488 q 575 677 640 604 q 381 751 511 751 q 302 745 349 751 q 277 462 298 683 q 248 140 260 300 q 334 132 290 132 q 558 237 477 132 q 640 488 640 342 m 683 1146 q 611 1054 682 1137 q 536 960 540 971 l 372 960 q 320 1054 370 971 q 271 1146 271 1137 l 370 1146 q 465 1059 370 1137 q 584 1146 583 1137 l 683 1146 z "},"Đ":{"ha":867,"x_min":24,"x_max":830,"o":"m 830 515 q 693 150 830 301 q 336 -8 551 -8 q 69 0 235 -8 q 119 395 83 101 q 24 385 83 392 l 42 507 q 131 506 94 506 q 162 883 148 675 l 274 883 q 358 885 302 883 q 441 887 414 887 q 741 772 638 887 q 830 515 830 673 m 651 486 q 590 671 651 600 q 389 751 521 751 q 314 746 356 751 q 294 511 311 696 q 508 528 358 514 l 490 409 q 283 404 389 409 q 261 140 270 267 q 347 132 302 132 q 573 241 488 132 q 651 486 651 341 z "},"È":{"ha":699,"x_min":56,"x_max":671,"o":"m 671 883 l 650 734 q 302 745 459 745 q 284 523 297 673 q 572 530 418 523 l 557 389 q 271 395 408 395 q 248 138 256 258 q 626 149 424 138 l 604 0 l 56 0 q 113 462 71 93 q 142 883 139 709 l 671 883 m 517 960 l 399 960 q 326 1055 399 971 q 251 1146 252 1138 l 431 1146 q 474 1055 431 1139 q 517 960 517 971 z "},"É":{"ha":699,"x_min":56,"x_max":671,"o":"m 671 883 l 650 734 q 302 745 459 745 q 284 523 297 673 q 572 530 418 523 l 557 389 q 271 395 408 395 q 248 138 256 258 q 626 149 424 138 l 604 0 l 56 0 q 113 462 71 93 q 142 883 139 709 l 671 883 m 651 1146 q 551 1055 651 1138 q 451 960 451 971 l 333 960 q 399 1055 333 971 q 465 1146 465 1139 l 651 1146 z "},"Ê":{"ha":699,"x_min":56,"x_max":671,"o":"m 671 883 l 650 734 q 302 745 459 745 q 284 523 297 673 q 572 530 418 523 l 557 389 q 271 395 408 395 q 248 138 256 258 q 626 149 424 138 l 604 0 l 56 0 q 113 462 71 93 q 142 883 139 709 l 671 883 m 617 960 l 518 960 q 423 1047 518 969 q 304 960 304 969 l 205 960 q 277 1052 205 969 q 352 1146 348 1135 l 515 1146 q 568 1052 518 1135 q 617 960 617 969 z "},"Ě":{"ha":699,"x_min":56,"x_max":671,"o":"m 671 883 l 650 734 q 302 745 459 745 q 284 523 297 673 q 572 530 418 523 l 557 389 q 271 395 408 395 q 248 138 256 258 q 626 149 424 138 l 604 0 l 56 0 q 113 462 71 93 q 142 883 139 709 l 671 883 m 646 1146 q 574 1054 645 1137 q 498 960 503 971 l 335 960 q 283 1054 332 971 q 233 1146 233 1137 l 332 1146 q 427 1059 332 1137 q 547 1146 546 1137 l 646 1146 z "},"Ë":{"ha":699,"x_min":56,"x_max":671,"o":"m 671 883 l 650 734 q 302 745 459 745 q 284 523 297 673 q 572 530 418 523 l 557 389 q 271 395 408 395 q 248 138 256 258 q 626 149 424 138 l 604 0 l 56 0 q 113 462 71 93 q 142 883 139 709 l 671 883 m 641 1074 q 610 997 641 1029 q 535 966 580 966 q 463 1040 463 966 q 494 1116 463 1085 q 570 1147 525 1147 q 641 1074 641 1147 m 391 1074 q 360 997 391 1029 q 284 966 329 966 q 213 1040 213 966 q 244 1116 213 1084 q 319 1147 275 1147 q 391 1074 391 1147 z "},"Ē":{"ha":699,"x_min":56,"x_max":671,"o":"m 671 883 l 650 734 q 302 745 459 745 q 284 523 297 673 q 572 530 418 523 l 557 389 q 271 395 408 395 q 248 138 256 258 q 626 149 424 138 l 604 0 l 56 0 q 113 462 71 93 q 142 883 139 709 l 671 883 m 594 1099 l 574 981 l 250 981 l 269 1099 l 594 1099 z "},"Ĕ":{"ha":699,"x_min":56,"x_max":671,"o":"m 671 883 l 650 734 q 302 745 459 745 q 284 523 297 673 q 572 530 418 523 l 557 389 q 271 395 408 395 q 248 138 256 258 q 626 149 424 138 l 604 0 l 56 0 q 113 462 71 93 q 142 883 139 709 l 671 883 m 650 1105 q 422 935 572 935 q 227 1105 263 935 l 317 1146 q 433 1046 353 1046 q 570 1146 510 1046 l 650 1105 z "},"Ė":{"ha":699,"x_min":56,"x_max":671,"o":"m 671 883 l 650 734 q 302 745 459 745 q 284 523 297 673 q 572 530 418 523 l 557 389 q 271 395 408 395 q 248 138 256 258 q 626 149 424 138 l 604 0 l 56 0 q 113 462 71 93 q 142 883 139 709 l 671 883 m 538 1065 q 502 974 538 1012 q 412 937 465 937 q 348 962 370 937 q 326 1025 326 987 q 362 1116 326 1079 q 452 1152 399 1152 q 538 1065 538 1152 z "},"Ę":{"ha":699,"x_min":56,"x_max":671,"o":"m 671 883 l 650 734 q 302 745 459 745 q 284 523 297 673 q 573 530 418 523 l 557 389 q 271 395 408 395 q 248 138 256 258 q 626 149 424 138 l 604 0 q 435 -154 435 -44 q 504 -223 435 -223 q 555 -214 522 -223 l 562 -316 q 472 -330 517 -330 q 352 -293 395 -330 q 309 -192 309 -256 q 432 -7 309 -62 l 432 0 l 56 0 q 113 462 71 93 q 142 883 139 709 l 671 883 z "},"Ĝ":{"ha":817,"x_min":37,"x_max":749,"o":"m 749 439 q 722 229 742 391 q 712 23 714 153 q 446 -18 549 -18 q 140 98 243 -18 q 37 381 37 214 q 188 748 37 601 q 561 895 338 895 q 742 876 665 895 l 704 715 q 526 743 606 743 q 303 644 385 743 q 221 398 221 544 q 286 200 221 281 q 471 119 351 119 q 558 127 508 119 q 557 173 557 139 q 563 293 557 205 q 568 439 568 381 l 749 439 m 741 960 l 642 960 q 547 1047 642 969 q 427 960 428 969 l 328 960 q 400 1052 329 969 q 475 1146 471 1135 l 639 1146 q 691 1052 642 1135 q 741 960 741 969 z "},"Ğ":{"ha":817,"x_min":37,"x_max":749,"o":"m 749 439 q 722 229 742 391 q 712 23 714 153 q 446 -18 549 -18 q 140 98 243 -18 q 37 381 37 214 q 188 748 37 601 q 561 895 338 895 q 742 876 665 895 l 704 715 q 526 743 606 743 q 303 644 385 743 q 221 398 221 544 q 286 200 221 281 q 471 119 351 119 q 558 127 508 119 q 557 173 557 139 q 563 293 557 205 q 568 439 568 381 l 749 439 m 746 1105 q 517 935 667 935 q 323 1105 359 935 l 413 1146 q 528 1046 448 1046 q 665 1146 606 1046 l 746 1105 z "},"Ġ":{"ha":817,"x_min":37,"x_max":749,"o":"m 749 439 q 722 229 742 391 q 712 23 714 153 q 446 -18 549 -18 q 140 98 243 -18 q 37 381 37 214 q 188 748 37 601 q 561 895 338 895 q 742 876 665 895 l 704 715 q 526 743 606 743 q 303 644 385 743 q 221 398 221 544 q 286 200 221 281 q 471 119 351 119 q 558 127 508 119 q 557 173 557 139 q 563 293 557 205 q 568 439 568 381 l 749 439 m 652 1065 q 616 974 652 1012 q 526 937 579 937 q 462 962 484 937 q 439 1025 439 987 q 476 1116 439 1079 q 566 1152 513 1152 q 652 1065 652 1152 z "},"Ģ":{"ha":817,"x_min":37,"x_max":749,"o":"m 749 439 q 722 229 742 391 q 712 23 714 153 q 446 -18 549 -18 q 140 98 243 -18 q 37 381 37 214 q 188 748 37 601 q 561 895 338 895 q 742 876 665 895 l 704 715 q 526 743 606 743 q 303 644 385 743 q 221 398 221 544 q 286 200 221 281 q 471 119 351 119 q 558 127 508 119 q 557 173 557 139 q 563 293 557 205 q 568 439 568 381 l 749 439 m 514 -146 q 363 -355 514 -250 l 319 -312 q 378 -213 372 -268 q 340 -144 340 -187 q 369 -76 340 -102 q 439 -49 397 -49 q 494 -75 475 -49 q 514 -146 514 -100 z "},"Ĥ":{"ha":881,"x_min":56,"x_max":825,"o":"m 825 883 q 772 462 812 806 q 739 0 745 202 l 550 0 q 597 389 564 106 l 273 389 q 245 0 258 241 l 56 0 q 113 462 71 102 q 142 883 138 703 l 332 883 q 286 530 318 794 l 614 530 q 635 883 631 684 l 825 883 m 701 960 l 602 960 q 507 1047 602 969 q 388 960 389 969 l 289 960 q 361 1052 290 969 q 436 1146 432 1135 l 600 1146 q 652 1052 602 1135 q 701 960 701 969 z "},"Ħ":{"ha":881,"x_min":56,"x_max":865,"o":"m 865 735 l 847 635 l 792 635 q 772 462 783 559 q 739 0 745 202 l 550 0 q 597 389 564 106 l 273 389 q 245 0 258 241 l 56 0 q 113 462 71 102 q 129 635 123 553 l 68 635 l 85 735 l 136 735 q 142 883 140 814 l 332 883 q 311 735 324 835 l 630 735 q 635 883 633 806 l 825 883 q 804 735 819 844 l 865 735 m 624 635 l 298 635 q 286 530 293 587 l 614 530 q 624 635 620 580 z "},"Ì":{"ha":389,"x_min":57,"x_max":334,"o":"m 333 883 q 280 462 321 807 q 247 0 255 226 l 57 0 q 115 462 72 96 q 143 883 141 709 l 333 883 m 334 960 l 216 960 q 143 1055 216 971 q 68 1146 69 1138 l 248 1146 q 291 1055 248 1139 q 334 960 334 971 z "},"Í":{"ha":389,"x_min":57,"x_max":480,"o":"m 333 883 q 280 462 321 807 q 247 0 255 226 l 57 0 q 115 462 72 96 q 143 883 141 709 l 333 883 m 480 1146 q 380 1055 480 1138 q 280 960 280 971 l 162 960 q 228 1055 162 971 q 294 1146 294 1139 l 480 1146 z "},"Î":{"ha":389,"x_min":39,"x_max":452,"o":"m 333 883 q 280 462 321 807 q 247 0 255 226 l 57 0 q 115 462 72 96 q 143 883 141 709 l 333 883 m 452 960 l 353 960 q 258 1047 353 969 q 138 960 139 969 l 39 960 q 111 1052 40 969 q 186 1146 182 1135 l 350 1146 q 402 1052 353 1135 q 452 960 452 969 z "},"Ĩ":{"ha":389,"x_min":11,"x_max":516,"o":"m 333 883 q 280 462 321 807 q 247 0 255 226 l 57 0 q 115 462 72 96 q 143 883 141 709 l 333 883 m 516 1093 q 335 968 428 968 q 258 984 301 968 q 183 1000 215 1000 q 63 955 125 1000 l 11 1006 q 192 1132 99 1132 q 269 1117 226 1132 q 344 1102 312 1102 q 465 1144 402 1102 l 516 1093 z "},"Ï":{"ha":389,"x_min":48,"x_max":476,"o":"m 333 883 q 280 462 321 807 q 247 0 255 226 l 57 0 q 115 462 72 96 q 143 883 141 709 l 333 883 m 476 1074 q 446 997 476 1029 q 370 966 415 966 q 298 1040 298 966 q 329 1116 298 1085 q 405 1147 360 1147 q 476 1074 476 1147 m 226 1074 q 195 997 226 1029 q 119 966 164 966 q 48 1040 48 966 q 79 1116 48 1084 q 155 1147 110 1147 q 226 1074 226 1147 z "},"Ī":{"ha":389,"x_min":57,"x_max":430,"o":"m 333 883 q 280 462 321 807 q 247 0 255 226 l 57 0 q 115 462 72 96 q 143 883 141 709 l 333 883 m 430 1099 l 410 981 l 85 981 l 104 1099 l 430 1099 z "},"Ĭ":{"ha":389,"x_min":47,"x_max":471,"o":"m 333 883 q 280 462 321 807 q 247 0 255 226 l 57 0 q 115 462 72 96 q 143 883 141 709 l 333 883 m 471 1105 q 242 935 392 935 q 47 1105 83 935 l 138 1146 q 253 1046 173 1046 q 390 1146 330 1046 l 471 1105 z "},"İ":{"ha":389,"x_min":57,"x_max":371,"o":"m 333 883 q 280 462 321 807 q 247 0 255 226 l 57 0 q 115 462 72 96 q 143 883 141 709 l 333 883 m 371 1065 q 334 974 371 1012 q 244 937 298 937 q 180 962 203 937 q 158 1025 158 987 q 195 1116 158 1079 q 285 1152 231 1152 q 371 1065 371 1152 z "},"Į":{"ha":389,"x_min":-59,"x_max":333,"o":"m 333 883 q 280 462 321 807 q 247 0 255 226 q 66 -147 66 -44 q 133 -223 66 -223 q 184 -214 151 -223 l 191 -316 q 101 -330 146 -330 q -23 -293 14 -330 q -59 -192 -59 -256 q 57 0 -59 -75 q 115 462 72 96 q 143 883 141 709 l 333 883 z "},"Ĳ":{"ha":922,"x_min":57,"x_max":882,"o":"m 333 883 q 280 462 321 807 q 247 0 255 226 l 57 0 q 115 462 72 96 q 143 883 141 709 l 333 883 m 882 883 q 821 384 868 793 q 699 63 797 158 q 458 -18 616 -18 q 347 -4 401 -18 l 374 142 q 458 121 414 121 q 585 160 543 121 q 662 370 646 216 q 699 883 694 680 l 882 883 z "},"Ĵ":{"ha":554,"x_min":-20,"x_max":635,"o":"m 514 883 q 453 384 500 793 q 332 63 429 158 q 91 -18 248 -18 q -20 -4 34 -18 l 6 142 q 90 121 47 121 q 217 160 175 121 q 294 370 278 216 q 332 883 327 680 l 514 883 m 635 960 l 536 960 q 441 1047 536 969 q 321 960 322 969 l 222 960 q 294 1052 223 969 q 370 1146 366 1135 l 533 1146 q 585 1052 536 1135 q 635 960 635 969 z "},"Ķ":{"ha":800,"x_min":57,"x_max":785,"o":"m 785 883 q 648 712 785 861 q 449 519 511 562 l 448 509 q 624 260 506 477 q 743 0 743 43 l 538 0 q 445 225 538 40 q 303 411 351 411 l 275 411 q 245 0 258 256 l 57 0 q 113 462 71 93 q 142 883 139 709 l 332 883 q 288 530 319 795 l 302 530 q 457 695 330 530 q 584 883 584 861 l 785 883 m 477 -146 q 326 -355 477 -250 l 282 -312 q 341 -213 335 -268 q 303 -144 303 -187 q 332 -76 303 -102 q 402 -49 360 -49 q 457 -75 437 -49 q 477 -146 477 -100 z "},"Ĺ":{"ha":652,"x_min":57,"x_max":614,"o":"m 614 148 l 592 0 l 57 0 q 114 462 70 81 q 143 883 141 717 l 331 883 q 278 462 319 817 q 239 138 256 258 q 614 148 399 138 m 483 1146 q 383 1055 483 1138 q 283 960 283 971 l 165 960 q 231 1055 165 971 q 296 1146 296 1139 l 483 1146 z "},"Ľ":{"ha":652,"x_min":57,"x_max":703,"o":"m 614 148 l 592 0 l 57 0 q 114 462 70 81 q 143 883 141 717 l 331 883 q 278 462 319 817 q 239 138 256 258 q 614 148 399 138 m 703 812 q 546 560 703 667 l 502 604 q 558 732 547 659 q 517 795 517 754 q 550 870 517 840 q 627 901 583 901 q 684 878 665 901 q 703 812 703 855 z "},"Ļ":{"ha":652,"x_min":57,"x_max":614,"o":"m 614 148 l 592 0 l 57 0 q 114 462 70 81 q 143 883 141 717 l 331 883 q 278 462 319 817 q 239 138 256 258 q 614 148 399 138 m 437 -146 q 286 -355 437 -250 l 242 -312 q 301 -213 295 -268 q 263 -144 263 -187 q 292 -76 263 -102 q 362 -49 320 -49 q 417 -75 397 -49 q 437 -146 437 -100 z "},"Ł":{"ha":652,"x_min":-13,"x_max":614,"o":"m 614 148 l 593 0 l 58 0 q 99 315 77 138 l 32 267 l -13 353 l 111 431 l 114 462 q 144 883 140 717 l 332 883 q 288 545 311 753 l 528 709 l 586 616 l 277 431 q 237 138 256 252 q 614 148 414 138 z "},"Ŀ":{"ha":652,"x_min":57,"x_max":629,"o":"m 614 148 l 592 0 l 57 0 q 114 462 70 81 q 143 883 141 717 l 331 883 q 278 462 319 817 q 239 138 256 258 q 614 148 399 138 m 629 496 q 593 406 629 444 q 503 368 556 368 q 439 394 461 368 q 416 457 416 419 q 453 547 416 511 q 543 584 490 584 q 629 496 629 584 z "},"Ń":{"ha":897,"x_min":57,"x_max":840,"o":"m 840 883 q 787 462 828 808 q 747 0 760 207 l 589 0 q 436 312 589 33 q 260 698 277 603 l 250 698 q 258 594 258 646 q 245 401 258 515 q 215 0 228 234 l 57 0 q 114 462 71 96 q 142 883 140 709 l 340 883 q 477 575 340 838 q 637 214 622 298 l 647 214 q 639 297 639 253 q 652 513 639 391 q 675 883 672 709 l 840 883 m 759 1146 q 659 1055 759 1138 q 559 960 559 971 l 441 960 q 507 1055 441 971 q 572 1146 572 1139 l 759 1146 z "},"Ň":{"ha":897,"x_min":57,"x_max":840,"o":"m 840 883 q 787 462 828 808 q 747 0 760 207 l 589 0 q 436 312 589 33 q 260 698 277 603 l 250 698 q 258 594 258 646 q 245 401 258 515 q 215 0 228 234 l 57 0 q 114 462 71 96 q 142 883 140 709 l 340 883 q 477 575 340 838 q 637 214 622 298 l 647 214 q 639 297 639 253 q 652 513 639 391 q 675 883 672 709 l 840 883 m 726 1146 q 654 1054 725 1137 q 578 960 583 971 l 415 960 q 363 1054 412 971 q 313 1146 313 1137 l 412 1146 q 507 1059 412 1137 q 627 1146 626 1137 l 726 1146 z "},"Ñ":{"ha":897,"x_min":57,"x_max":840,"o":"m 840 883 q 787 462 828 808 q 747 0 760 207 l 589 0 q 436 312 589 33 q 260 698 277 603 l 250 698 q 258 594 258 646 q 245 401 258 515 q 215 0 228 234 l 57 0 q 114 462 71 96 q 142 883 140 709 l 340 883 q 477 575 340 838 q 637 214 622 298 l 647 214 q 639 297 639 253 q 652 513 639 391 q 675 883 672 709 l 840 883 m 766 1093 q 585 968 677 968 q 508 984 551 968 q 433 1000 465 1000 q 313 955 374 1000 l 260 1006 q 441 1132 349 1132 q 518 1117 475 1132 q 593 1102 562 1102 q 714 1144 652 1102 l 766 1093 z "},"Ņ":{"ha":897,"x_min":57,"x_max":840,"o":"m 840 883 q 787 462 828 808 q 747 0 760 207 l 589 0 q 436 312 589 33 q 260 698 277 603 l 250 698 q 258 594 258 646 q 245 401 258 515 q 215 0 228 234 l 57 0 q 114 462 71 96 q 142 883 140 709 l 340 883 q 477 575 340 838 q 637 214 622 298 l 647 214 q 639 297 639 253 q 652 513 639 391 q 675 883 672 709 l 840 883 m 494 -146 q 343 -355 494 -250 l 300 -312 q 359 -213 353 -268 q 321 -144 321 -187 q 349 -76 321 -102 q 420 -49 378 -49 q 475 -75 455 -49 q 494 -146 494 -100 z "},"Ò":{"ha":904,"x_min":37,"x_max":867,"o":"m 867 503 q 732 134 867 293 q 393 -24 597 -24 q 138 90 239 -24 q 37 376 37 203 q 173 746 37 588 q 511 903 309 903 q 766 790 666 903 q 867 503 867 676 m 687 490 q 628 684 687 611 q 479 756 568 756 q 290 642 361 756 q 218 392 218 528 q 277 198 218 271 q 426 125 336 125 q 615 240 543 125 q 687 490 687 355 m 578 960 l 460 960 q 387 1055 460 971 q 312 1146 313 1138 l 492 1146 q 535 1055 492 1139 q 578 960 578 971 z "},"Ó":{"ha":904,"x_min":37,"x_max":867,"o":"m 867 503 q 732 134 867 293 q 393 -24 597 -24 q 138 90 239 -24 q 37 376 37 203 q 173 746 37 588 q 511 903 309 903 q 766 790 666 903 q 867 503 867 676 m 687 490 q 628 684 687 611 q 479 756 568 756 q 290 642 361 756 q 218 392 218 528 q 277 198 218 271 q 426 125 336 125 q 615 240 543 125 q 687 490 687 355 m 760 1146 q 660 1055 760 1138 q 559 960 559 971 l 441 960 q 507 1055 441 971 q 573 1146 573 1139 l 760 1146 z "},"Ô":{"ha":904,"x_min":37,"x_max":867,"o":"m 867 503 q 732 134 867 293 q 393 -24 597 -24 q 138 90 239 -24 q 37 376 37 203 q 173 746 37 588 q 511 903 309 903 q 766 790 666 903 q 867 503 867 676 m 687 490 q 628 684 687 611 q 479 756 568 756 q 290 642 361 756 q 218 392 218 528 q 277 198 218 271 q 426 125 336 125 q 615 240 543 125 q 687 490 687 355 m 724 960 l 625 960 q 530 1047 625 969 q 410 960 411 969 l 311 960 q 383 1052 312 969 q 458 1146 454 1135 l 622 1146 q 674 1052 625 1135 q 724 960 724 969 z "},"Õ":{"ha":904,"x_min":37,"x_max":867,"o":"m 867 503 q 732 134 867 293 q 393 -24 597 -24 q 138 90 239 -24 q 37 376 37 203 q 173 746 37 588 q 511 903 309 903 q 766 790 666 903 q 867 503 867 676 m 687 490 q 628 684 687 611 q 479 756 568 756 q 290 642 361 756 q 218 392 218 528 q 277 198 218 271 q 426 125 336 125 q 615 240 543 125 q 687 490 687 355 m 785 1093 q 604 968 697 968 q 527 984 570 968 q 452 1000 484 1000 q 332 955 394 1000 l 280 1006 q 461 1132 368 1132 q 538 1117 495 1132 q 613 1102 581 1102 q 734 1144 671 1102 l 785 1093 z "},"Ö":{"ha":904,"x_min":37,"x_max":867,"o":"m 867 503 q 732 134 867 293 q 393 -24 597 -24 q 138 90 239 -24 q 37 376 37 203 q 173 746 37 588 q 511 903 309 903 q 766 790 666 903 q 867 503 867 676 m 687 490 q 628 684 687 611 q 479 756 568 756 q 290 642 361 756 q 218 392 218 528 q 277 198 218 271 q 426 125 336 125 q 615 240 543 125 q 687 490 687 355 m 736 1074 q 706 997 736 1029 q 631 966 675 966 q 558 1040 558 966 q 589 1116 558 1085 q 665 1147 621 1147 q 736 1074 736 1147 m 486 1074 q 455 997 486 1029 q 380 966 425 966 q 309 1040 309 966 q 339 1116 309 1084 q 415 1147 370 1147 q 486 1074 486 1147 z "},"Ō":{"ha":904,"x_min":37,"x_max":867,"o":"m 867 503 q 732 134 867 293 q 393 -24 597 -24 q 138 90 239 -24 q 37 376 37 203 q 173 746 37 588 q 511 903 309 903 q 766 790 666 903 q 867 503 867 676 m 687 490 q 628 684 687 611 q 479 756 568 756 q 290 642 361 756 q 218 392 218 528 q 277 198 218 271 q 426 125 336 125 q 615 240 543 125 q 687 490 687 355 m 694 1099 l 674 981 l 350 981 l 369 1099 l 694 1099 z "},"Ŏ":{"ha":904,"x_min":37,"x_max":867,"o":"m 867 503 q 732 134 867 293 q 393 -24 597 -24 q 138 90 239 -24 q 37 376 37 203 q 173 746 37 588 q 511 903 309 903 q 766 790 666 903 q 867 503 867 676 m 687 490 q 628 684 687 611 q 479 756 568 756 q 290 642 361 756 q 218 392 218 528 q 277 198 218 271 q 426 125 336 125 q 615 240 543 125 q 687 490 687 355 m 738 1105 q 509 935 659 935 q 315 1105 351 935 l 405 1146 q 520 1046 440 1046 q 657 1146 597 1046 l 738 1105 z "},"Ő":{"ha":904,"x_min":37,"x_max":867,"o":"m 867 503 q 732 134 867 293 q 393 -24 597 -24 q 138 90 239 -24 q 37 376 37 203 q 173 746 37 588 q 511 903 309 903 q 766 790 666 903 q 867 503 867 676 m 687 490 q 628 684 687 611 q 479 756 568 756 q 290 642 361 756 q 218 392 218 528 q 277 198 218 271 q 426 125 336 125 q 615 240 543 125 q 687 490 687 355 m 582 1146 q 508 1051 581 1131 q 434 960 435 971 l 342 960 q 375 1052 342 971 q 410 1146 408 1132 l 582 1146 m 825 1146 q 750 1051 823 1131 q 677 960 677 971 l 585 960 q 618 1052 585 971 q 652 1146 651 1132 l 825 1146 z "},"Ø":{"ha":904,"x_min":-10,"x_max":919,"o":"m 919 897 q 810 744 916 868 q 872 499 872 646 q 739 134 872 292 q 401 -24 606 -24 q 179 52 272 -24 q 83 -81 85 -56 l -10 -52 q 117 117 -7 -26 q 43 379 43 218 q 176 746 43 588 q 515 903 309 903 q 751 814 655 903 q 825 922 823 901 l 919 897 m 635 680 q 482 756 576 756 q 293 639 362 756 q 223 393 223 522 q 247 262 223 321 q 635 680 385 408 m 692 488 q 677 592 692 547 q 296 183 544 450 q 433 125 352 125 q 623 242 553 125 q 692 488 692 359 z "},"Ǿ":{"ha":904,"x_min":-10,"x_max":919,"o":"m 919 897 q 810 744 916 868 q 872 499 872 646 q 739 134 872 292 q 401 -24 606 -24 q 179 52 272 -24 q 83 -81 85 -56 l -10 -52 q 117 117 -7 -26 q 43 379 43 218 q 176 746 43 588 q 515 903 309 903 q 751 814 655 903 q 825 922 823 901 l 919 897 m 635 680 q 482 756 576 756 q 293 639 362 756 q 223 393 223 522 q 247 262 223 321 q 635 680 385 408 m 692 488 q 677 592 692 547 q 296 183 544 450 q 433 125 352 125 q 623 242 553 125 q 692 488 692 359 m 764 1146 q 664 1055 764 1138 q 564 960 564 971 l 446 960 q 511 1055 446 971 q 577 1146 577 1139 l 764 1146 z "},"Œ":{"ha":1187,"x_min":37,"x_max":1158,"o":"m 1158 883 l 1138 734 q 783 745 923 745 l 764 523 q 1061 528 879 523 l 1045 389 q 751 395 888 395 q 730 138 736 258 q 1113 149 875 138 l 1091 0 l 554 0 q 389 -24 468 -24 q 129 94 220 -24 q 37 377 37 211 q 169 744 37 585 q 503 903 301 903 q 660 883 570 903 l 1158 883 m 619 739 q 475 756 558 756 q 290 646 358 756 q 221 397 221 536 q 272 204 221 282 q 418 125 323 125 q 556 146 503 125 q 595 462 566 219 q 619 739 609 596 z "},"Ŕ":{"ha":810,"x_min":57,"x_max":743,"o":"m 743 0 l 553 0 q 465 293 505 233 q 336 353 425 353 q 267 352 309 353 q 242 0 247 164 l 57 0 q 113 462 71 93 q 143 883 139 709 l 260 883 q 342 885 280 883 q 456 887 404 887 q 653 836 576 887 q 730 685 730 785 q 676 533 730 599 q 536 439 622 467 l 535 429 q 642 317 597 410 q 743 0 686 224 m 560 645 q 409 759 560 759 q 303 749 349 759 q 280 475 300 690 q 340 474 315 474 q 560 645 560 474 m 680 1146 q 579 1055 680 1138 q 479 960 479 971 l 361 960 q 427 1055 361 971 q 493 1146 493 1139 l 680 1146 z "},"Ř":{"ha":810,"x_min":57,"x_max":743,"o":"m 743 0 l 553 0 q 465 293 505 233 q 336 353 425 353 q 267 352 309 353 q 242 0 247 164 l 57 0 q 113 462 71 93 q 143 883 139 709 l 260 883 q 342 885 280 883 q 456 887 404 887 q 653 836 576 887 q 730 685 730 785 q 676 533 730 599 q 536 439 622 467 l 535 429 q 642 317 597 410 q 743 0 686 224 m 560 645 q 409 759 560 759 q 303 749 349 759 q 280 475 300 690 q 340 474 315 474 q 560 645 560 474 m 659 1146 q 587 1054 658 1137 q 511 960 515 971 l 348 960 q 296 1054 345 971 q 246 1146 246 1137 l 345 1146 q 440 1059 345 1137 q 559 1146 559 1137 l 659 1146 z "},"Ŗ":{"ha":810,"x_min":57,"x_max":743,"o":"m 743 0 l 553 0 q 465 293 505 233 q 336 353 425 353 q 267 352 309 353 q 242 0 247 164 l 57 0 q 113 462 71 93 q 143 883 139 709 l 260 883 q 342 885 280 883 q 456 887 404 887 q 653 836 576 887 q 730 685 730 785 q 676 533 730 599 q 536 439 622 467 l 535 429 q 642 317 597 410 q 743 0 686 224 m 560 645 q 409 759 560 759 q 303 749 349 759 q 280 475 300 690 q 340 474 315 474 q 560 645 560 474 m 490 -146 q 338 -355 490 -250 l 295 -312 q 354 -213 348 -268 q 316 -144 316 -187 q 345 -76 316 -102 q 415 -49 373 -49 q 470 -75 450 -49 q 490 -146 490 -100 z "},"Ś":{"ha":702,"x_min":18,"x_max":679,"o":"m 657 875 l 617 724 q 433 758 534 758 q 270 659 270 758 q 305 591 270 620 q 427 526 336 566 q 635 260 635 433 q 244 -24 635 -24 q 18 7 121 -24 l 66 158 q 259 120 166 120 q 389 134 347 120 q 464 226 464 157 q 423 306 464 271 q 289 384 387 338 q 102 631 102 473 q 199 834 102 772 q 448 897 296 897 q 657 875 574 897 m 679 1146 q 579 1055 679 1138 q 479 960 479 971 l 361 960 q 427 1055 361 971 q 492 1146 492 1139 l 679 1146 z "},"Ŝ":{"ha":702,"x_min":18,"x_max":657,"o":"m 657 875 l 617 724 q 433 758 534 758 q 270 659 270 758 q 305 591 270 620 q 427 526 336 566 q 635 260 635 433 q 244 -24 635 -24 q 18 7 121 -24 l 66 158 q 259 120 166 120 q 389 134 347 120 q 464 226 464 157 q 423 306 464 271 q 289 384 387 338 q 102 631 102 473 q 199 834 102 772 q 448 897 296 897 q 657 875 574 897 m 633 960 l 534 960 q 439 1047 534 969 q 319 960 320 969 l 220 960 q 292 1052 221 969 q 368 1146 363 1135 l 531 1146 q 583 1052 534 1135 q 633 960 633 969 z "},"Š":{"ha":702,"x_min":18,"x_max":657,"o":"m 657 875 l 617 724 q 433 758 534 758 q 270 659 270 758 q 305 591 270 620 q 427 526 336 566 q 635 260 635 433 q 244 -24 635 -24 q 18 7 121 -24 l 66 158 q 259 120 166 120 q 389 134 347 120 q 464 226 464 157 q 423 306 464 271 q 289 384 387 338 q 102 631 102 473 q 199 834 102 772 q 448 897 296 897 q 657 875 574 897 m 654 1146 q 582 1054 653 1137 q 507 960 511 971 l 343 960 q 291 1054 340 971 q 241 1146 241 1137 l 340 1146 q 435 1059 340 1137 q 555 1146 554 1137 l 654 1146 z "},"Ş":{"ha":702,"x_min":18,"x_max":657,"o":"m 657 875 l 617 724 q 433 758 534 758 q 270 659 270 758 q 305 591 270 620 q 427 526 336 566 q 635 260 635 433 q 311 -22 635 1 l 304 -47 q 411 -178 411 -85 q 237 -335 411 -335 l 229 -259 q 278 -239 257 -259 q 299 -193 299 -220 q 225 -112 299 -127 l 250 -24 l 244 -24 q 18 7 121 -24 l 66 158 q 259 120 166 120 q 389 134 347 120 q 464 226 464 157 q 423 306 464 271 q 289 384 387 338 q 102 631 102 473 q 207 840 102 772 q 448 897 296 897 q 657 875 574 897 z "},"Ș":{"ha":702,"x_min":18,"x_max":657,"o":"m 657 875 l 617 724 q 433 758 534 758 q 270 659 270 758 q 305 591 270 620 q 427 526 336 566 q 635 260 635 433 q 244 -24 635 -24 q 18 7 121 -24 l 66 158 q 259 120 166 120 q 389 134 347 120 q 464 226 464 157 q 423 306 464 271 q 289 384 387 338 q 102 631 102 473 q 199 834 102 772 q 448 897 296 897 q 657 875 574 897 m 363 -146 q 212 -355 363 -250 l 169 -312 q 228 -213 222 -268 q 190 -144 190 -187 q 218 -76 190 -102 q 289 -49 247 -49 q 344 -75 324 -49 q 363 -146 363 -100 z "},"Ť":{"ha":720,"x_min":58,"x_max":740,"o":"m 740 883 l 720 737 q 479 747 592 747 q 447 462 471 686 q 412 0 419 199 l 225 0 q 282 462 239 98 q 309 747 298 616 q 58 736 218 747 l 79 883 l 740 883 m 636 1146 q 564 1054 635 1137 q 489 960 493 971 l 326 960 q 273 1054 323 971 q 224 1146 224 1137 l 323 1146 q 418 1059 323 1137 q 537 1146 536 1137 l 636 1146 z "},"Ţ":{"ha":720,"x_min":58,"x_max":740,"o":"m 740 883 l 720 737 q 479 747 592 747 q 447 462 471 686 q 412 0 419 199 l 225 0 q 282 462 239 98 q 309 747 298 616 q 58 736 218 747 l 79 883 l 740 883 m 404 -146 q 252 -355 404 -250 l 209 -312 q 268 -213 262 -268 q 230 -144 230 -187 q 258 -76 230 -102 q 329 -49 287 -49 q 384 -75 364 -49 q 404 -146 404 -100 z "},"Ŧ":{"ha":720,"x_min":58,"x_max":740,"o":"m 740 883 l 720 737 q 479 747 592 747 q 454 531 472 696 l 661 531 l 645 431 l 444 431 q 412 0 418 187 l 225 0 q 279 431 239 94 l 72 431 l 89 531 l 289 531 q 309 747 300 646 q 58 736 218 747 l 79 883 l 740 883 z "},"Ù":{"ha":882,"x_min":76,"x_max":835,"o":"m 835 883 q 782 427 823 789 q 385 -23 734 -23 q 155 50 235 -23 q 76 321 76 123 q 81 421 76 365 q 118 883 104 635 l 307 883 q 252 441 292 777 q 246 329 246 382 q 285 162 246 208 q 403 116 324 116 q 551 182 498 116 q 624 442 604 248 q 654 883 647 665 l 835 883 m 566 960 l 448 960 q 374 1055 448 971 q 299 1146 300 1138 l 479 1146 q 522 1055 479 1139 q 566 960 566 971 z "},"Ú":{"ha":882,"x_min":76,"x_max":835,"o":"m 835 883 q 782 427 823 789 q 385 -23 734 -23 q 155 50 235 -23 q 76 321 76 123 q 81 421 76 365 q 118 883 104 635 l 307 883 q 252 441 292 777 q 246 329 246 382 q 285 162 246 208 q 403 116 324 116 q 551 182 498 116 q 624 442 604 248 q 654 883 647 665 l 835 883 m 742 1146 q 642 1055 742 1138 q 542 960 542 971 l 424 960 q 490 1055 424 971 q 555 1146 555 1139 l 742 1146 z "},"Û":{"ha":882,"x_min":76,"x_max":835,"o":"m 835 883 q 782 427 823 789 q 385 -23 734 -23 q 155 50 235 -23 q 76 321 76 123 q 81 421 76 365 q 118 883 104 635 l 307 883 q 252 441 292 777 q 246 329 246 382 q 285 162 246 208 q 403 116 324 116 q 551 182 498 116 q 624 442 604 248 q 654 883 647 665 l 835 883 m 685 960 l 586 960 q 491 1047 586 969 q 372 960 372 969 l 273 960 q 345 1052 273 969 q 420 1146 416 1135 l 583 1146 q 635 1052 586 1135 q 685 960 685 969 z "},"Ũ":{"ha":882,"x_min":76,"x_max":835,"o":"m 835 883 q 782 427 823 789 q 385 -23 734 -23 q 155 50 235 -23 q 76 321 76 123 q 81 421 76 365 q 118 883 104 635 l 307 883 q 252 441 292 777 q 246 329 246 382 q 285 162 246 208 q 403 116 324 116 q 551 182 498 116 q 624 442 604 248 q 654 883 647 665 l 835 883 m 758 1093 q 577 968 670 968 q 500 984 543 968 q 425 1000 457 1000 q 305 955 367 1000 l 253 1006 q 434 1132 341 1132 q 511 1117 468 1132 q 586 1102 554 1102 q 707 1144 644 1102 l 758 1093 z "},"Ü":{"ha":882,"x_min":76,"x_max":835,"o":"m 835 883 q 782 427 823 789 q 385 -23 734 -23 q 155 50 235 -23 q 76 321 76 123 q 81 421 76 365 q 118 883 104 635 l 307 883 q 252 441 292 777 q 246 329 246 382 q 285 162 246 208 q 403 116 324 116 q 551 182 498 116 q 624 442 604 248 q 654 883 647 665 l 835 883 m 712 1074 q 682 997 712 1029 q 606 966 651 966 q 534 1040 534 966 q 565 1116 534 1085 q 641 1147 596 1147 q 712 1074 712 1147 m 462 1074 q 431 997 462 1029 q 355 966 400 966 q 284 1040 284 966 q 315 1116 284 1084 q 391 1147 346 1147 q 462 1074 462 1147 z "},"Ū":{"ha":882,"x_min":76,"x_max":835,"o":"m 835 883 q 782 427 823 789 q 385 -23 734 -23 q 155 50 235 -23 q 76 321 76 123 q 81 421 76 365 q 118 883 104 635 l 307 883 q 252 441 292 777 q 246 329 246 382 q 285 162 246 208 q 403 116 324 116 q 551 182 498 116 q 624 442 604 248 q 654 883 647 665 l 835 883 m 670 1099 l 650 981 l 326 981 l 345 1099 l 670 1099 z "},"Ŭ":{"ha":882,"x_min":76,"x_max":835,"o":"m 835 883 q 782 427 823 789 q 385 -23 734 -23 q 155 50 235 -23 q 76 321 76 123 q 81 421 76 365 q 118 883 104 635 l 307 883 q 252 441 292 777 q 246 329 246 382 q 285 162 246 208 q 403 116 324 116 q 551 182 498 116 q 624 442 604 248 q 654 883 647 665 l 835 883 m 717 1105 q 488 935 638 935 q 294 1105 330 935 l 384 1146 q 499 1046 419 1046 q 636 1146 576 1046 l 717 1105 z "},"Ů":{"ha":882,"x_min":76,"x_max":835,"o":"m 835 883 q 782 427 823 789 q 385 -23 734 -23 q 155 50 235 -23 q 76 321 76 123 q 81 421 76 365 q 118 883 104 635 l 307 883 q 252 441 292 777 q 246 329 246 382 q 285 162 246 208 q 403 116 324 116 q 551 182 498 116 q 624 442 604 248 q 654 883 647 665 l 835 883 m 661 1087 q 606 961 661 1009 q 488 918 556 918 q 386 955 427 918 q 339 1067 339 996 q 395 1192 339 1145 q 512 1234 444 1234 q 614 1198 573 1234 q 661 1087 661 1158 m 584 1081 q 560 1145 584 1122 q 506 1165 538 1165 q 445 1141 471 1165 q 416 1072 416 1115 q 440 1008 416 1031 q 494 987 462 987 q 555 1010 530 987 q 584 1081 584 1038 z "},"Ű":{"ha":882,"x_min":76,"x_max":835,"o":"m 835 883 q 782 427 823 789 q 385 -23 734 -23 q 155 50 235 -23 q 76 321 76 123 q 81 421 76 365 q 118 883 104 635 l 307 883 q 252 441 292 777 q 246 329 246 382 q 285 162 246 208 q 403 116 324 116 q 551 182 498 116 q 624 442 604 248 q 654 883 647 665 l 835 883 m 558 1146 q 484 1051 557 1131 q 410 960 411 971 l 318 960 q 352 1052 319 971 q 386 1146 385 1132 l 558 1146 m 801 1146 q 727 1051 800 1131 q 653 960 654 971 l 561 960 q 594 1052 562 971 q 629 1146 627 1132 l 801 1146 z "},"Ų":{"ha":882,"x_min":76,"x_max":835,"o":"m 835 883 q 782 427 823 789 q 545 7 747 94 q 399 -154 399 -54 q 465 -223 399 -223 q 517 -214 484 -223 l 524 -316 q 433 -330 479 -330 q 310 -293 346 -330 q 273 -192 273 -256 q 396 -33 273 -89 l 396 -23 l 385 -23 q 156 49 237 -23 q 76 319 76 121 q 81 421 76 365 q 118 883 104 635 l 307 883 q 252 441 292 777 q 246 329 246 382 q 285 162 246 208 q 403 116 324 116 q 551 182 498 116 q 624 442 604 248 q 654 883 647 665 l 835 883 z "},"Ẁ":{"ha":1263,"x_min":56,"x_max":1292,"o":"m 1292 883 q 1112 432 1292 817 q 928 0 932 46 l 757 0 q 704 318 757 76 q 648 652 652 559 l 637 652 q 514 307 618 566 q 405 0 410 48 l 231 0 q 143 455 231 99 q 56 883 56 812 l 258 883 q 301 547 258 816 q 345 189 345 279 l 354 189 q 475 532 359 240 q 591 883 591 824 l 774 883 q 820 542 774 811 q 866 189 866 273 l 876 189 q 991 515 880 231 q 1101 883 1101 800 l 1292 883 m 745 960 l 627 960 q 553 1055 627 971 q 478 1146 479 1138 l 658 1146 q 701 1055 658 1139 q 745 960 745 971 z "},"Ẃ":{"ha":1263,"x_min":56,"x_max":1292,"o":"m 1292 883 q 1112 432 1292 817 q 928 0 932 46 l 757 0 q 704 318 757 76 q 648 652 652 559 l 637 652 q 514 307 618 566 q 405 0 410 48 l 231 0 q 143 455 231 99 q 56 883 56 812 l 258 883 q 301 547 258 816 q 345 189 345 279 l 354 189 q 475 532 359 240 q 591 883 591 824 l 774 883 q 820 542 774 811 q 866 189 866 273 l 876 189 q 991 515 880 231 q 1101 883 1101 800 l 1292 883 m 931 1146 q 831 1055 931 1138 q 731 960 731 971 l 613 960 q 679 1055 613 971 q 745 1146 745 1139 l 931 1146 z "},"Ŵ":{"ha":1263,"x_min":56,"x_max":1292,"o":"m 1292 883 q 1112 432 1292 817 q 928 0 932 46 l 757 0 q 704 318 757 76 q 648 652 652 559 l 637 652 q 514 307 618 566 q 405 0 410 48 l 231 0 q 143 455 231 99 q 56 883 56 812 l 258 883 q 301 547 258 816 q 345 189 345 279 l 354 189 q 475 532 359 240 q 591 883 591 824 l 774 883 q 820 542 774 811 q 866 189 866 273 l 876 189 q 991 515 880 231 q 1101 883 1101 800 l 1292 883 m 888 960 l 789 960 q 694 1047 789 969 q 575 960 576 969 l 476 960 q 548 1052 477 969 q 623 1146 619 1135 l 787 1146 q 839 1052 789 1135 q 888 960 888 969 z "},"Ẅ":{"ha":1263,"x_min":56,"x_max":1292,"o":"m 1292 883 q 1112 432 1292 817 q 928 0 932 46 l 757 0 q 704 318 757 76 q 648 652 652 559 l 637 652 q 514 307 618 566 q 405 0 410 48 l 231 0 q 143 455 231 99 q 56 883 56 812 l 258 883 q 301 547 258 816 q 345 189 345 279 l 354 189 q 475 532 359 240 q 591 883 591 824 l 774 883 q 820 542 774 811 q 866 189 866 273 l 876 189 q 991 515 880 231 q 1101 883 1101 800 l 1292 883 m 906 1074 q 876 997 906 1029 q 800 966 845 966 q 728 1040 728 966 q 759 1116 728 1085 q 835 1147 790 1147 q 906 1074 906 1147 m 656 1074 q 625 997 656 1029 q 549 966 594 966 q 478 1040 478 966 q 509 1116 478 1084 q 585 1147 540 1147 q 656 1074 656 1147 z "},"Ỳ":{"ha":722,"x_min":45,"x_max":758,"o":"m 758 883 q 641 690 758 854 q 472 445 525 526 q 412 297 419 363 q 396 0 397 148 l 206 0 q 245 317 245 258 q 145 638 245 414 q 45 883 45 863 l 247 883 q 304 671 247 840 q 362 443 362 503 l 372 443 q 476 663 377 489 q 574 883 574 836 l 758 883 m 463 960 l 345 960 q 271 1055 345 971 q 196 1146 197 1138 l 376 1146 q 419 1055 376 1139 q 463 960 463 971 z "},"Ý":{"ha":722,"x_min":45,"x_max":758,"o":"m 758 883 q 641 690 758 854 q 472 445 525 526 q 412 297 419 363 q 396 0 397 148 l 206 0 q 245 317 245 258 q 145 638 245 414 q 45 883 45 863 l 247 883 q 304 671 247 840 q 362 443 362 503 l 372 443 q 476 663 377 489 q 574 883 574 836 l 758 883 m 656 1146 q 556 1055 656 1138 q 456 960 456 971 l 338 960 q 404 1055 338 971 q 469 1146 469 1139 l 656 1146 z "},"Ŷ":{"ha":722,"x_min":45,"x_max":758,"o":"m 758 883 q 641 690 758 854 q 472 445 525 526 q 412 297 419 363 q 396 0 397 148 l 206 0 q 245 317 245 258 q 145 638 245 414 q 45 883 45 863 l 247 883 q 304 671 247 840 q 362 443 362 503 l 372 443 q 476 663 377 489 q 574 883 574 836 l 758 883 m 629 960 l 530 960 q 435 1047 530 969 q 316 960 317 969 l 217 960 q 289 1052 218 969 q 364 1146 360 1135 l 528 1146 q 580 1052 530 1135 q 629 960 629 969 z "},"Ÿ":{"ha":722,"x_min":45,"x_max":758,"o":"m 758 883 q 641 690 758 854 q 472 445 525 526 q 412 297 419 363 q 396 0 397 148 l 206 0 q 245 317 245 258 q 145 638 245 414 q 45 883 45 863 l 247 883 q 304 671 247 840 q 362 443 362 503 l 372 443 q 476 663 377 489 q 574 883 574 836 l 758 883 m 645 1074 q 614 997 645 1029 q 539 966 584 966 q 467 1040 467 966 q 498 1116 467 1085 q 574 1147 529 1147 q 645 1074 645 1147 m 395 1074 q 364 997 395 1029 q 288 966 333 966 q 217 1040 217 966 q 248 1116 217 1084 q 323 1147 279 1147 q 395 1074 395 1147 z "},"Ź":{"ha":694,"x_min":15,"x_max":674,"o":"m 674 883 l 650 743 q 409 409 568 637 q 249 148 250 180 l 248 138 q 611 153 384 138 l 591 0 l 15 0 l 39 139 q 289 474 121 239 q 458 739 456 709 l 458 750 q 103 734 304 750 l 123 883 l 674 883 m 630 1146 q 530 1055 630 1138 q 430 960 430 971 l 312 960 q 378 1055 312 971 q 444 1146 444 1139 l 630 1146 z "},"Ž":{"ha":694,"x_min":15,"x_max":674,"o":"m 674 883 l 650 743 q 409 409 568 637 q 249 148 250 180 l 248 138 q 611 153 384 138 l 591 0 l 15 0 l 39 139 q 289 474 121 239 q 458 739 456 709 l 458 750 q 103 734 304 750 l 123 883 l 674 883 m 612 1146 q 540 1054 611 1137 q 465 960 469 971 l 301 960 q 249 1054 298 971 q 199 1146 199 1137 l 298 1146 q 393 1059 298 1137 q 513 1146 512 1137 l 612 1146 z "},"Ż":{"ha":694,"x_min":15,"x_max":674,"o":"m 674 883 l 650 743 q 409 409 568 637 q 249 148 250 180 l 248 138 q 611 153 384 138 l 591 0 l 15 0 l 39 139 q 289 474 121 239 q 458 739 456 709 l 458 750 q 103 734 304 750 l 123 883 l 674 883 m 521 1065 q 484 974 521 1012 q 394 937 448 937 q 330 962 353 937 q 308 1025 308 987 q 345 1116 308 1079 q 435 1152 381 1152 q 521 1065 521 1152 z "},"Ŋ":{"ha":897,"x_min":57,"x_max":840,"o":"m 840 883 q 787 464 812 703 q 761 167 767 269 q 745 -38 755 64 q 660 -223 733 -146 q 401 -300 587 -300 l 406 -164 q 528 -131 469 -164 q 609 22 587 -98 q 436 312 587 55 q 260 698 277 603 l 250 698 q 258 594 258 646 q 245 401 258 515 q 215 0 228 234 l 57 0 q 114 462 71 96 q 142 883 140 709 l 340 883 q 477 575 340 838 q 637 214 622 298 l 647 214 q 639 297 639 253 q 652 513 639 391 q 675 883 672 709 l 840 883 z "},"Ð":{"ha":867,"x_min":24,"x_max":830,"o":"m 830 515 q 688 145 830 299 q 336 -8 547 -8 q 69 0 235 -8 q 119 395 83 101 q 24 385 83 392 l 42 507 q 131 506 94 506 q 162 883 148 675 l 274 883 q 358 885 302 883 q 441 887 414 887 q 732 783 634 887 q 830 515 830 678 m 651 486 q 584 677 651 604 q 389 751 517 751 q 314 746 356 751 q 294 511 311 696 q 508 528 358 514 l 490 409 q 283 404 389 409 q 261 140 270 267 q 347 132 302 132 q 568 235 485 132 q 651 486 651 339 z "},"Þ":{"ha":759,"x_min":56,"x_max":730,"o":"m 730 576 q 601 326 730 404 q 287 249 473 249 l 256 249 q 242 0 244 134 l 56 0 q 113 464 71 98 q 142 883 138 706 l 324 883 q 307 798 318 860 q 461 801 391 801 q 651 742 572 801 q 730 576 730 682 m 559 548 q 390 673 559 673 q 295 663 347 673 q 275 482 286 589 q 265 372 270 431 l 307 372 q 559 548 559 372 z "},"a":{"ha":699,"x_min":35,"x_max":655,"o":"m 655 675 q 601 167 601 307 q 612 7 601 96 l 446 -12 q 441 119 441 44 l 431 119 q 208 -19 356 -19 q 79 45 122 -19 q 35 220 35 109 q 147 509 35 380 q 495 644 259 637 l 525 665 l 655 675 m 481 536 q 273 454 340 535 q 207 234 207 372 q 286 109 207 109 q 398 197 347 109 q 463 367 449 286 q 481 536 476 448 z "},"b":{"ha":756,"x_min":47,"x_max":709,"o":"m 709 404 q 615 104 709 228 q 366 -20 521 -20 q 222 26 269 -20 l 214 26 l 199 0 l 47 -7 q 107 504 60 82 q 134 954 134 762 l 321 964 q 297 761 321 936 q 262 524 273 587 l 270 524 q 500 666 346 666 q 655 594 601 666 q 709 404 709 523 m 537 368 q 427 539 537 539 q 304 451 361 539 q 236 262 247 363 l 222 136 q 332 105 273 105 q 486 183 435 105 q 537 368 537 261 z "},"c":{"ha":587,"x_min":43,"x_max":570,"o":"m 570 651 l 534 513 q 404 532 477 532 q 264 464 315 532 q 214 304 214 395 q 358 115 214 115 q 538 175 440 115 l 517 41 q 316 -20 434 -20 q 110 68 176 -20 q 43 286 43 156 q 150 553 43 442 q 431 664 257 664 q 570 651 510 664 z "},"d":{"ha":754,"x_min":48,"x_max":742,"o":"m 742 959 q 719 812 742 941 q 678 508 696 684 q 661 176 661 332 q 666 1 661 85 l 509 -7 q 501 125 501 49 l 492 124 q 256 -18 411 -18 q 102 54 156 -18 q 48 245 48 125 q 142 544 48 420 q 391 668 236 668 q 532 623 482 668 l 542 623 q 564 953 555 766 l 742 959 m 533 513 q 425 544 485 544 q 271 466 322 544 q 220 280 220 387 q 330 110 220 110 q 452 197 396 110 q 519 387 509 284 l 533 513 z "},"e":{"ha":669,"x_min":43,"x_max":644,"o":"m 644 504 q 209 294 644 302 q 242 160 209 204 q 358 115 275 115 q 591 185 467 115 l 570 51 q 313 -20 469 -20 q 109 63 175 -20 q 43 283 43 146 q 154 567 43 460 q 416 674 264 674 q 581 631 522 674 q 644 504 644 586 m 492 490 q 391 556 492 556 q 282 514 334 556 q 215 392 231 471 q 492 490 492 397 z "},"f":{"ha":470,"x_min":-3,"x_max":524,"o":"m 524 964 l 496 848 q 421 851 460 851 q 353 806 375 851 q 317 633 330 762 q 475 638 374 633 l 456 503 q 304 507 358 507 q 264 10 289 290 q 34 -310 239 -271 l -3 -214 q 76 -93 50 -174 q 120 163 101 -12 q 153 507 138 338 q 40 503 115 507 l 60 637 q 166 633 127 633 q 420 974 202 974 q 524 964 485 974 m 0 651 z "},"g":{"ha":730,"x_min":-22,"x_max":753,"o":"m 753 738 l 726 612 q 597 581 625 612 l 597 572 q 627 471 627 524 q 540 289 627 354 q 328 224 453 224 q 222 235 262 224 q 189 174 189 208 q 218 129 189 140 q 443 118 248 118 q 650 -37 650 118 q 530 -265 650 -179 q 241 -351 410 -351 q 44 -308 109 -351 q -22 -178 -22 -264 q 109 6 -22 -60 l 109 16 q 66 106 66 43 q 153 251 66 181 l 154 260 q 90 325 117 281 q 62 421 62 368 q 155 605 62 543 q 378 666 248 666 q 542 620 475 666 l 550 620 q 682 753 583 753 q 753 738 723 753 m 486 -90 q 457 -35 486 -51 q 325 -19 428 -19 q 199 -12 258 -19 q 125 -138 125 -56 q 255 -251 125 -251 q 420 -211 355 -251 q 486 -90 486 -172 m 468 458 q 434 538 468 511 q 359 566 401 566 q 266 528 304 566 q 227 427 227 490 q 261 348 227 375 q 337 321 294 321 q 429 359 391 321 q 468 458 468 396 z "},"h":{"ha":743,"x_min":47,"x_max":677,"o":"m 677 464 q 659 240 677 404 q 641 0 641 76 l 466 -7 q 488 187 466 26 q 511 414 511 348 q 490 512 511 485 q 422 539 470 539 q 308 458 363 539 q 241 262 252 378 q 218 0 226 116 l 47 -7 q 106 504 59 82 q 133 954 133 762 l 319 964 q 294 757 319 935 q 258 524 269 580 l 267 524 q 502 666 347 666 q 677 464 677 666 z "},"i":{"ha":331,"x_min":47,"x_max":337,"o":"m 285 658 q 269 518 286 640 q 245 322 253 397 q 220 0 230 181 l 47 -7 q 90 322 60 81 q 103 563 103 451 q 100 638 103 608 l 285 658 m 337 862 q 300 771 337 809 q 210 734 264 734 q 146 759 169 734 q 124 823 124 785 q 161 913 124 876 q 251 949 197 949 q 337 862 337 949 z "},"j":{"ha":331,"x_min":-41,"x_max":337,"o":"m 288 659 q 265 465 288 642 q 231 151 243 289 q 216 -19 220 12 q -5 -309 190 -269 l -41 -214 q 32 -101 8 -176 q 81 207 56 -26 q 105 583 105 441 q 103 640 105 619 l 288 659 m 337 862 q 300 771 337 809 q 210 734 263 734 q 146 759 168 734 q 123 823 123 785 q 161 913 123 876 q 252 949 198 949 q 337 862 337 949 z "},"k":{"ha":690,"x_min":47,"x_max":685,"o":"m 685 644 q 604 523 685 619 q 465 384 522 427 l 465 375 q 589 169 536 293 q 642 0 642 44 l 457 -7 q 424 113 457 24 q 345 262 390 202 q 285 185 311 225 q 218 0 224 90 l 47 -7 q 109 504 60 82 q 135 954 135 755 l 319 964 q 299 796 319 935 q 237 277 279 656 l 247 278 q 389 482 270 330 q 494 651 494 616 l 685 644 z "},"l":{"ha":352,"x_min":47,"x_max":321,"o":"m 321 964 q 300 786 321 930 q 265 504 280 643 q 222 2 232 190 l 47 -8 q 69 166 47 3 q 109 504 91 330 q 137 954 137 768 l 321 964 z "},"m":{"ha":1132,"x_min":47,"x_max":1067,"o":"m 1067 464 q 1048 233 1067 393 q 1030 0 1030 73 l 857 -7 q 879 196 857 37 q 901 411 901 355 q 884 511 901 483 q 825 539 867 539 q 709 462 761 539 q 644 262 656 385 q 625 0 629 109 l 452 -7 q 474 192 452 28 q 496 411 496 356 q 479 511 496 484 q 420 539 462 539 q 304 460 357 539 q 239 262 252 380 q 217 0 224 110 l 47 -7 q 94 468 94 345 q 83 642 94 539 l 252 659 q 256 524 256 606 l 266 524 q 494 666 341 666 q 611 627 570 666 q 654 524 652 587 l 662 524 q 896 666 743 666 q 1029 615 991 666 q 1067 464 1067 564 z "},"n":{"ha":741,"x_min":47,"x_max":676,"o":"m 676 464 q 658 240 676 404 q 640 0 640 76 l 465 -7 q 487 187 465 26 q 509 414 509 348 q 489 512 509 485 q 421 539 469 539 q 307 458 362 539 q 239 262 251 378 q 217 0 224 116 l 47 -7 q 94 468 94 345 q 83 642 94 539 l 252 659 q 256 524 256 601 l 266 524 q 500 666 345 666 q 676 464 676 666 z "},"o":{"ha":743,"x_min":43,"x_max":700,"o":"m 700 372 q 594 90 700 206 q 323 -26 489 -26 q 125 58 208 -26 q 43 281 43 142 q 149 560 43 446 q 420 674 254 674 q 618 592 536 674 q 700 372 700 511 m 528 357 q 492 495 528 441 q 393 549 456 549 q 263 468 313 549 q 214 290 214 387 q 250 152 214 206 q 350 98 287 98 q 480 178 432 98 q 528 357 528 258 z "},"p":{"ha":751,"x_min":8,"x_max":706,"o":"m 706 404 q 612 104 706 228 q 363 -20 518 -20 q 222 26 266 -20 l 214 26 q 184 -307 196 -140 l 8 -310 q 94 488 94 315 q 83 640 94 553 l 250 659 q 256 524 256 606 l 264 524 q 498 666 344 666 q 652 594 599 666 q 706 404 706 523 m 535 368 q 425 539 535 539 q 302 451 359 539 q 234 262 245 363 l 220 136 q 330 105 270 105 q 484 183 433 105 q 535 368 535 262 z "},"q":{"ha":754,"x_min":48,"x_max":710,"o":"m 710 655 q 652 195 698 589 q 608 -302 634 29 l 439 -310 q 475 -1 449 -239 q 498 124 481 61 l 490 124 q 256 -18 411 -18 q 102 54 156 -18 q 48 245 48 125 q 142 544 48 420 q 391 668 236 668 q 538 627 488 668 l 547 627 l 572 644 l 710 655 m 534 513 q 425 544 484 544 q 272 467 323 544 q 220 280 220 389 q 330 110 220 110 q 453 197 395 110 q 521 387 510 285 l 534 513 z "},"r":{"ha":513,"x_min":47,"x_max":536,"o":"m 536 652 l 482 492 q 387 506 437 506 q 250 371 264 506 q 217 0 229 166 l 47 -7 q 94 468 94 345 q 83 642 94 539 l 252 659 q 256 569 256 614 l 266 569 q 434 667 335 667 q 536 652 481 667 z "},"s":{"ha":551,"x_min":3,"x_max":515,"o":"m 515 655 l 478 521 q 323 543 407 543 q 217 479 217 543 q 317 396 217 436 q 493 202 493 325 q 183 -18 493 -18 q 3 2 79 -18 l 39 136 q 197 109 117 109 q 341 175 341 109 q 242 265 341 222 q 120 336 159 301 q 65 455 65 385 q 143 616 65 563 q 337 669 222 669 q 515 655 451 669 z "},"t":{"ha":506,"x_min":0,"x_max":468,"o":"m 468 638 l 450 503 q 293 507 354 507 q 264 233 264 323 q 279 140 264 165 q 333 115 294 115 q 460 157 393 115 l 437 34 q 285 -14 376 -14 q 148 33 189 -14 q 107 192 107 80 q 141 507 107 275 q 48 503 109 507 l 67 637 q 161 633 119 633 q 191 822 168 680 l 341 842 q 309 633 330 777 q 468 638 363 633 m 0 651 z "},"u":{"ha":736,"x_min":65,"x_max":689,"o":"m 689 658 q 642 159 642 282 q 652 5 642 87 l 486 -14 q 481 121 481 41 l 472 121 q 240 -21 395 -21 q 65 181 65 -21 q 83 405 65 241 q 101 644 101 568 l 277 658 q 254 463 277 625 q 231 235 231 301 q 251 135 231 163 q 317 106 270 106 q 431 187 376 106 q 498 383 487 267 q 517 644 517 572 l 689 658 z "},"v":{"ha":665,"x_min":54,"x_max":667,"o":"m 667 652 q 519 317 667 594 q 368 0 372 39 l 192 0 q 123 331 192 98 q 54 644 54 564 l 239 652 q 278 406 239 585 q 316 168 316 227 l 324 168 q 410 386 327 193 q 493 644 493 578 l 667 652 z "},"w":{"ha":1061,"x_min":60,"x_max":1057,"o":"m 1057 652 q 919 322 1057 602 q 775 0 780 43 l 625 0 q 590 217 625 41 q 544 465 555 392 l 534 465 q 429 213 508 390 q 347 0 351 35 l 197 0 q 129 322 197 56 q 60 643 60 589 l 244 652 q 274 404 244 588 q 304 168 304 220 l 313 168 q 406 408 319 212 q 493 644 493 605 l 645 644 q 683 407 645 598 q 720 168 720 215 l 729 168 q 811 393 732 200 q 889 643 889 586 l 1057 652 z "},"x":{"ha":695,"x_min":-3,"x_max":675,"o":"m 675 652 q 575 512 675 631 q 439 359 476 393 l 439 349 q 553 163 473 305 q 633 0 633 21 l 435 -7 q 391 115 435 15 q 322 260 347 216 l 314 260 q 238 125 290 231 q 185 0 185 19 l -3 -7 q 103 156 -3 16 q 255 340 209 296 l 256 351 q 157 507 227 387 q 87 644 87 627 l 285 652 q 319 544 285 634 q 372 422 353 454 l 381 422 q 448 537 404 449 q 493 644 493 626 l 675 652 z "},"y":{"ha":654,"x_min":4,"x_max":649,"o":"m 649 652 q 514 304 649 556 q 360 -4 380 52 q 221 -236 300 -172 q 4 -300 142 -300 l 4 -170 q 152 -115 90 -170 q 214 23 214 -60 q 131 345 214 115 q 49 644 49 574 l 244 652 q 282 391 244 559 q 321 162 321 223 l 331 162 q 405 365 334 186 q 476 642 476 545 l 649 652 z "},"z":{"ha":583,"x_min":20,"x_max":566,"o":"m 566 644 l 541 518 q 369 318 502 481 q 235 130 235 155 l 235 119 q 525 132 381 119 l 507 0 l 20 0 l 43 126 q 221 324 80 157 q 361 515 361 491 l 361 526 q 80 515 208 526 l 98 644 l 566 644 z "},"à":{"ha":699,"x_min":35,"x_max":655,"o":"m 655 675 q 601 167 601 307 q 612 7 601 96 l 446 -12 q 441 119 441 44 l 431 119 q 208 -19 356 -19 q 79 45 122 -19 q 35 220 35 109 q 147 509 35 380 q 495 644 259 637 l 525 665 l 655 675 m 481 536 q 273 454 340 535 q 207 234 207 372 q 286 109 207 109 q 398 197 347 109 q 463 367 449 286 q 481 536 476 448 m 460 736 l 342 736 q 269 848 342 747 q 194 956 195 948 l 367 956 q 414 848 367 949 q 460 736 460 747 z "},"á":{"ha":699,"x_min":35,"x_max":655,"o":"m 655 675 q 601 167 601 307 q 612 7 601 96 l 446 -12 q 441 119 441 44 l 431 119 q 208 -19 356 -19 q 79 45 122 -19 q 35 220 35 109 q 147 509 35 380 q 495 644 259 637 l 525 665 l 655 675 m 481 536 q 273 454 340 535 q 207 234 207 372 q 286 109 207 109 q 398 197 347 109 q 463 367 449 286 q 481 536 476 448 m 618 956 q 518 848 618 948 q 418 736 418 747 l 300 736 q 369 848 300 747 q 438 956 438 949 l 618 956 z "},"â":{"ha":699,"x_min":35,"x_max":655,"o":"m 655 675 q 601 167 601 307 q 612 7 601 96 l 446 -12 q 441 119 441 44 l 431 119 q 208 -19 356 -19 q 79 45 122 -19 q 35 220 35 109 q 147 509 35 380 q 495 644 259 637 l 525 665 l 655 675 m 481 536 q 273 454 340 535 q 207 234 207 372 q 286 109 207 109 q 398 197 347 109 q 463 367 449 286 q 481 536 476 448 m 584 736 l 485 736 q 390 850 485 745 q 271 736 271 745 l 172 736 q 243 845 172 745 q 319 956 315 945 l 482 956 q 534 845 485 945 q 584 736 584 745 z "},"ã":{"ha":699,"x_min":35,"x_max":665,"o":"m 655 675 q 601 167 601 307 q 612 7 601 96 l 446 -12 q 441 119 441 44 l 431 119 q 208 -19 356 -19 q 79 45 122 -19 q 35 220 35 109 q 147 509 35 380 q 495 644 259 637 l 525 665 l 655 675 m 481 536 q 273 454 340 535 q 207 234 207 372 q 286 109 207 109 q 398 197 347 109 q 463 367 449 286 q 481 536 476 448 m 665 910 q 484 778 576 778 q 407 794 450 778 q 332 810 363 810 q 212 738 273 810 l 159 789 q 340 928 248 928 q 417 913 374 928 q 492 899 460 899 q 613 961 551 899 l 665 910 z "},"ä":{"ha":699,"x_min":35,"x_max":655,"o":"m 655 675 q 601 167 601 307 q 612 7 601 96 l 446 -12 q 441 119 441 44 l 431 119 q 208 -19 356 -19 q 79 45 122 -19 q 35 220 35 109 q 147 509 35 380 q 495 644 259 637 l 525 665 l 655 675 m 481 536 q 273 454 340 535 q 207 234 207 372 q 286 109 207 109 q 398 197 347 109 q 463 367 449 286 q 481 536 476 448 m 621 866 q 591 790 621 821 q 515 758 560 758 q 443 833 443 758 q 474 908 443 878 q 550 939 505 939 q 621 866 621 939 m 371 866 q 340 790 371 821 q 264 758 309 758 q 193 832 193 758 q 224 908 193 877 q 300 939 255 939 q 371 866 371 939 z "},"ā":{"ha":699,"x_min":35,"x_max":655,"o":"m 655 675 q 601 167 601 307 q 612 7 601 96 l 446 -12 q 441 119 441 44 l 431 119 q 208 -19 356 -19 q 79 45 122 -19 q 35 220 35 109 q 147 509 35 380 q 495 644 259 637 l 525 665 l 655 675 m 481 536 q 273 454 340 535 q 207 234 207 372 q 286 109 207 109 q 398 197 347 109 q 463 367 449 286 q 481 536 476 448 m 575 905 l 554 787 l 242 787 l 262 905 l 575 905 z "},"ă":{"ha":699,"x_min":35,"x_max":655,"o":"m 655 675 q 601 167 601 307 q 612 7 601 96 l 446 -12 q 441 119 441 44 l 431 119 q 208 -19 356 -19 q 79 45 122 -19 q 35 220 35 109 q 147 509 35 380 q 495 644 259 637 l 525 665 l 655 675 m 481 536 q 273 454 340 535 q 207 234 207 372 q 286 109 207 109 q 398 197 347 109 q 463 367 449 286 q 481 536 476 448 m 634 948 q 403 754 553 754 q 211 948 245 754 l 309 982 q 414 865 347 865 q 536 982 479 865 l 634 948 z "},"å":{"ha":699,"x_min":35,"x_max":655,"o":"m 655 675 q 601 167 601 307 q 612 7 601 96 l 446 -12 q 441 119 441 44 l 431 119 q 208 -19 356 -19 q 79 45 122 -19 q 35 220 35 109 q 147 509 35 380 q 495 644 259 637 l 525 665 l 655 675 m 481 536 q 273 454 340 535 q 207 234 207 372 q 286 109 207 109 q 398 197 347 109 q 463 367 449 286 q 481 536 476 448 m 598 873 q 543 747 598 795 q 425 704 493 704 q 323 741 364 704 q 276 854 276 782 q 332 978 276 931 q 449 1021 381 1021 q 551 985 510 1021 q 598 873 598 944 m 521 867 q 497 931 521 908 q 443 951 475 951 q 382 928 408 951 q 353 858 353 901 q 377 794 353 817 q 431 773 399 773 q 492 797 467 773 q 521 867 521 824 z "},"ǻ":{"ha":699,"x_min":35,"x_max":719,"o":"m 655 675 q 601 167 601 307 q 612 7 601 96 l 446 -12 q 441 119 441 44 l 431 119 q 208 -19 356 -19 q 79 45 122 -19 q 35 220 35 109 q 147 509 35 380 q 495 644 259 637 l 525 665 l 655 675 m 481 536 q 273 454 340 535 q 207 234 207 372 q 286 109 207 109 q 398 197 347 109 q 463 367 449 286 q 481 536 476 448 m 598 861 q 543 734 598 783 q 425 691 493 691 q 323 728 364 691 q 276 841 276 769 q 332 965 276 918 q 449 1008 381 1008 q 551 972 510 1008 q 598 861 598 931 m 521 854 q 497 918 521 895 q 443 939 475 939 q 382 915 408 939 q 353 845 353 888 q 377 781 353 804 q 431 760 399 760 q 492 784 467 760 q 521 854 521 811 m 719 1213 q 619 1122 719 1205 q 519 1027 519 1038 l 401 1027 q 467 1122 401 1038 q 532 1213 532 1206 l 719 1213 z "},"ą":{"ha":699,"x_min":35,"x_max":655,"o":"m 655 675 q 601 167 601 307 q 612 7 601 96 q 464 -151 464 -48 q 532 -223 464 -223 q 583 -216 552 -223 l 591 -317 q 500 -330 549 -330 q 376 -290 414 -330 q 338 -183 338 -250 q 446 -12 338 -85 q 441 119 441 44 l 431 119 q 208 -19 356 -19 q 77 47 122 -19 q 35 220 35 109 q 133 492 35 373 q 495 644 258 644 l 525 665 l 655 675 m 481 536 q 267 446 338 536 q 207 234 207 368 q 286 109 207 109 q 401 201 347 109 q 469 401 451 286 q 481 536 476 448 z "},"æ":{"ha":1077,"x_min":35,"x_max":1052,"o":"m 1052 504 q 617 294 1052 302 q 648 162 617 209 q 766 115 680 115 q 999 185 874 115 l 978 51 q 722 -20 877 -20 q 468 147 522 -20 l 458 147 q 208 -19 366 -19 q 79 45 122 -19 q 35 220 35 109 q 149 510 35 381 q 495 644 262 639 l 525 665 l 642 675 l 633 623 l 644 623 q 825 674 728 674 q 991 630 930 674 q 1052 504 1052 586 m 481 536 q 274 453 340 534 q 207 234 207 371 q 286 109 207 109 q 398 194 347 109 q 469 401 450 279 q 481 536 476 448 m 901 490 q 800 556 901 556 q 690 514 742 556 q 623 392 638 471 q 901 490 901 397 z "},"ǽ":{"ha":1077,"x_min":35,"x_max":1052,"o":"m 1052 504 q 617 294 1052 302 q 648 162 617 209 q 766 115 680 115 q 999 185 874 115 l 978 51 q 722 -20 877 -20 q 468 147 522 -20 l 458 147 q 208 -19 366 -19 q 79 45 122 -19 q 35 220 35 109 q 149 510 35 381 q 495 644 262 639 l 525 665 l 642 675 l 633 623 l 644 623 q 825 674 728 674 q 991 630 930 674 q 1052 504 1052 586 m 481 536 q 274 453 340 534 q 207 234 207 371 q 286 109 207 109 q 398 194 347 109 q 469 401 450 279 q 481 536 476 448 m 901 490 q 800 556 901 556 q 690 514 742 556 q 623 392 638 471 q 901 490 901 397 m 854 956 q 754 848 854 948 q 654 736 654 747 l 536 736 q 606 848 536 747 q 675 956 675 949 l 854 956 z "},"ć":{"ha":587,"x_min":43,"x_max":644,"o":"m 570 651 l 534 513 q 404 532 477 532 q 264 464 315 532 q 214 304 214 395 q 358 115 214 115 q 538 175 440 115 l 517 41 q 316 -20 434 -20 q 110 68 176 -20 q 43 286 43 156 q 150 553 43 442 q 431 664 257 664 q 570 651 510 664 m 644 956 q 544 848 644 948 q 444 736 444 747 l 326 736 q 395 848 326 747 q 465 956 465 949 l 644 956 z "},"ĉ":{"ha":587,"x_min":43,"x_max":570,"o":"m 570 651 l 534 513 q 404 532 477 532 q 264 464 315 532 q 214 304 214 395 q 358 115 214 115 q 538 175 440 115 l 517 41 q 316 -20 434 -20 q 110 68 176 -20 q 43 286 43 156 q 150 553 43 442 q 431 664 257 664 q 570 651 510 664 m 561 736 l 462 736 q 367 850 462 745 q 248 736 248 745 l 149 736 q 220 845 149 745 q 296 956 292 945 l 459 956 q 511 845 462 945 q 561 736 561 745 z "},"č":{"ha":587,"x_min":43,"x_max":618,"o":"m 570 651 l 534 513 q 404 532 477 532 q 264 464 315 532 q 214 304 214 395 q 358 115 214 115 q 538 175 440 115 l 517 41 q 316 -20 434 -20 q 110 68 176 -20 q 43 286 43 156 q 150 553 43 442 q 431 664 257 664 q 570 651 510 664 m 618 956 q 546 847 617 947 q 471 736 475 747 l 307 736 q 255 847 304 747 q 205 956 205 947 l 304 956 q 399 842 304 947 q 519 956 518 947 l 618 956 z "},"ċ":{"ha":587,"x_min":43,"x_max":570,"o":"m 570 651 l 534 513 q 404 532 477 532 q 264 464 315 532 q 214 304 214 395 q 358 115 214 115 q 538 175 440 115 l 517 41 q 316 -20 434 -20 q 110 68 176 -20 q 43 286 43 156 q 150 553 43 442 q 431 664 257 664 q 570 651 510 664 m 528 862 q 491 771 528 809 q 401 734 454 734 q 337 759 359 734 q 315 823 315 785 q 351 913 315 876 q 441 949 388 949 q 528 862 528 949 z "},"ç":{"ha":587,"x_min":43,"x_max":570,"o":"m 570 651 l 534 513 q 404 532 477 532 q 264 464 315 532 q 214 304 214 395 q 358 115 214 115 q 538 175 440 115 l 517 41 q 316 -20 434 -20 q 297 -19 307 -20 l 290 -47 q 397 -178 397 -85 q 223 -335 397 -335 l 216 -259 q 264 -239 243 -259 q 286 -193 286 -220 q 212 -112 286 -127 l 239 -12 q 99 82 155 8 q 43 286 43 156 q 150 553 43 442 q 431 664 257 664 q 570 651 510 664 z "},"ď":{"ha":884,"x_min":48,"x_max":953,"o":"m 742 959 q 719 812 742 941 q 678 508 696 684 q 661 176 661 332 q 666 1 661 85 l 509 -7 q 501 125 501 49 l 492 124 q 256 -18 411 -18 q 102 54 156 -18 q 48 245 48 125 q 142 544 48 420 q 391 668 236 668 q 532 623 482 668 l 542 623 q 564 953 555 766 l 742 959 m 533 513 q 425 544 485 544 q 271 466 322 544 q 220 280 220 387 q 330 110 220 110 q 452 197 396 110 q 519 387 509 284 l 533 513 m 953 812 q 795 560 953 667 l 751 604 q 808 732 796 659 q 767 795 767 754 q 800 870 767 840 q 876 901 833 901 q 933 878 914 901 q 953 812 953 855 z "},"đ":{"ha":754,"x_min":0,"x_max":806,"o":"m 806 840 l 791 743 l 707 743 l 690 630 q 661 176 661 332 q 666 1 661 85 l 509 -7 q 501 124 501 49 l 492 124 q 256 -18 411 -18 q 102 54 156 -18 q 48 235 48 125 q 139 524 48 400 q 384 648 229 648 q 532 603 475 648 l 542 603 q 551 743 545 658 l 394 743 l 408 840 l 557 840 q 562 949 560 893 l 742 959 q 724 840 742 943 l 806 840 m 533 493 q 418 524 478 524 q 268 445 315 524 q 220 270 220 367 q 330 110 220 110 q 452 197 396 110 q 519 387 509 284 l 533 493 m 0 668 z "},"è":{"ha":669,"x_min":43,"x_max":644,"o":"m 644 504 q 209 294 644 302 q 242 160 209 204 q 358 115 275 115 q 591 185 467 115 l 570 51 q 313 -20 469 -20 q 109 63 175 -20 q 43 283 43 146 q 154 567 43 460 q 416 674 264 674 q 581 631 522 674 q 644 504 644 586 m 492 490 q 391 556 492 556 q 282 514 334 556 q 215 392 231 471 q 492 490 492 397 m 460 736 l 342 736 q 269 848 342 747 q 194 956 195 948 l 367 956 q 414 848 367 949 q 460 736 460 747 z "},"é":{"ha":669,"x_min":43,"x_max":644,"o":"m 644 504 q 209 294 644 302 q 242 160 209 204 q 358 115 275 115 q 591 185 467 115 l 570 51 q 313 -20 469 -20 q 109 63 175 -20 q 43 283 43 146 q 154 567 43 460 q 416 674 264 674 q 581 631 522 674 q 644 504 644 586 m 492 490 q 391 556 492 556 q 282 514 334 556 q 215 392 231 471 q 492 490 492 397 m 635 956 q 535 848 635 948 q 435 736 435 747 l 317 736 q 386 848 317 747 q 455 956 455 949 l 635 956 z "},"ê":{"ha":669,"x_min":43,"x_max":644,"o":"m 644 504 q 209 294 644 302 q 242 160 209 204 q 358 115 275 115 q 591 185 467 115 l 570 51 q 313 -20 469 -20 q 109 63 175 -20 q 43 283 43 146 q 154 567 43 460 q 416 674 264 674 q 581 631 522 674 q 644 504 644 586 m 492 490 q 391 556 492 556 q 282 514 334 556 q 215 392 231 471 q 492 490 492 397 m 594 736 l 495 736 q 400 850 495 745 q 281 736 281 745 l 182 736 q 254 845 182 745 q 329 956 325 945 l 492 956 q 545 845 495 945 q 594 736 594 745 z "},"ě":{"ha":669,"x_min":43,"x_max":644,"o":"m 644 504 q 209 294 644 302 q 242 160 209 204 q 358 115 275 115 q 591 185 467 115 l 570 51 q 313 -20 469 -20 q 109 63 175 -20 q 43 283 43 146 q 154 567 43 460 q 416 674 264 674 q 581 631 522 674 q 644 504 644 586 m 492 490 q 391 556 492 556 q 282 514 334 556 q 215 392 231 471 q 492 490 492 397 m 614 956 q 542 847 613 947 q 467 736 471 747 l 303 736 q 251 847 300 747 q 201 956 201 947 l 300 956 q 395 842 300 947 q 515 956 514 947 l 614 956 z "},"ë":{"ha":669,"x_min":43,"x_max":644,"o":"m 644 504 q 209 294 644 302 q 242 160 209 204 q 358 115 275 115 q 591 185 467 115 l 570 51 q 313 -20 469 -20 q 109 63 175 -20 q 43 283 43 146 q 154 567 43 460 q 416 674 264 674 q 581 631 522 674 q 644 504 644 586 m 492 490 q 391 556 492 556 q 282 514 334 556 q 215 392 231 471 q 492 490 492 397 m 614 866 q 584 790 614 821 q 509 758 553 758 q 436 833 436 758 q 467 908 436 878 q 543 939 498 939 q 614 866 614 939 m 364 866 q 333 790 364 821 q 258 758 302 758 q 186 832 186 758 q 217 908 186 877 q 293 939 248 939 q 364 866 364 939 z "},"ē":{"ha":669,"x_min":43,"x_max":644,"o":"m 644 504 q 209 294 644 302 q 242 160 209 204 q 358 115 275 115 q 591 185 467 115 l 570 51 q 313 -20 469 -20 q 109 63 175 -20 q 43 283 43 146 q 154 567 43 460 q 416 674 264 674 q 581 631 522 674 q 644 504 644 586 m 492 490 q 391 556 492 556 q 282 514 334 556 q 215 392 231 471 q 492 490 492 397 m 583 905 l 562 787 l 250 787 l 271 905 l 583 905 z "},"ĕ":{"ha":669,"x_min":43,"x_max":644,"o":"m 644 504 q 209 294 644 302 q 242 160 209 204 q 358 115 275 115 q 591 185 467 115 l 570 51 q 313 -20 469 -20 q 109 63 175 -20 q 43 283 43 146 q 154 567 43 460 q 416 674 264 674 q 581 631 522 674 q 644 504 644 586 m 492 490 q 391 556 492 556 q 282 514 334 556 q 215 392 231 471 q 492 490 492 397 m 635 948 q 404 754 554 754 q 212 948 246 754 l 310 982 q 416 865 349 865 q 538 982 480 865 l 635 948 z "},"ė":{"ha":669,"x_min":43,"x_max":644,"o":"m 644 504 q 209 294 644 302 q 242 160 209 204 q 358 115 275 115 q 591 185 467 115 l 570 51 q 313 -20 469 -20 q 109 63 175 -20 q 43 283 43 146 q 154 567 43 460 q 416 674 264 674 q 581 631 522 674 q 644 504 644 586 m 492 490 q 391 556 492 556 q 282 514 334 556 q 215 392 231 471 q 492 490 492 397 m 522 862 q 485 771 522 809 q 395 734 448 734 q 331 759 353 734 q 309 823 309 785 q 345 913 309 876 q 435 949 382 949 q 522 862 522 949 z "},"ę":{"ha":669,"x_min":43,"x_max":644,"o":"m 644 504 q 209 294 644 302 q 240 162 209 209 q 358 115 272 115 q 591 185 467 115 l 570 51 q 370 -154 370 -48 q 446 -223 370 -223 q 491 -214 465 -223 l 498 -316 q 408 -330 453 -330 q 280 -293 317 -330 q 244 -192 244 -256 q 351 -22 244 -79 l 352 -14 q 313 -20 329 -20 q 106 66 170 -20 q 43 283 43 152 q 154 567 43 460 q 416 674 264 674 q 581 631 522 674 q 644 504 644 586 m 492 490 q 391 556 492 556 q 282 514 334 556 q 215 392 231 471 q 492 490 492 397 z "},"ĝ":{"ha":730,"x_min":-22,"x_max":753,"o":"m 753 738 l 726 612 q 597 581 625 612 l 597 572 q 627 471 627 524 q 540 289 627 354 q 328 224 453 224 q 222 235 262 224 q 189 174 189 208 q 218 129 189 140 q 443 118 248 118 q 650 -37 650 118 q 530 -265 650 -179 q 241 -351 410 -351 q 44 -308 109 -351 q -22 -178 -22 -264 q 109 6 -22 -60 l 109 16 q 66 106 66 43 q 153 251 66 181 l 154 260 q 90 325 117 281 q 62 421 62 368 q 155 605 62 543 q 378 666 248 666 q 542 620 475 666 l 550 620 q 682 753 583 753 q 753 738 723 753 m 486 -90 q 457 -35 486 -51 q 325 -19 428 -19 q 199 -12 258 -19 q 125 -138 125 -56 q 255 -251 125 -251 q 420 -211 355 -251 q 486 -90 486 -172 m 468 458 q 434 538 468 511 q 359 566 401 566 q 266 528 304 566 q 227 427 227 490 q 261 348 227 375 q 337 321 294 321 q 429 359 391 321 q 468 458 468 396 m 572 736 l 473 736 q 378 850 473 745 q 258 736 259 745 l 159 736 q 231 845 160 745 q 307 956 302 945 l 470 956 q 522 845 473 945 q 572 736 572 745 z "},"ğ":{"ha":730,"x_min":-22,"x_max":753,"o":"m 753 738 l 726 612 q 597 581 625 612 l 597 572 q 627 471 627 524 q 540 289 627 354 q 328 224 453 224 q 222 235 262 224 q 189 174 189 208 q 218 129 189 140 q 443 118 248 118 q 650 -37 650 118 q 530 -265 650 -179 q 241 -351 410 -351 q 44 -308 109 -351 q -22 -178 -22 -264 q 109 6 -22 -60 l 109 16 q 66 106 66 43 q 153 251 66 181 l 154 260 q 90 325 117 281 q 62 421 62 368 q 155 605 62 543 q 378 666 248 666 q 542 620 475 666 l 550 620 q 682 753 583 753 q 753 738 723 753 m 486 -90 q 457 -35 486 -51 q 325 -19 428 -19 q 199 -12 258 -19 q 125 -138 125 -56 q 255 -251 125 -251 q 420 -211 355 -251 q 486 -90 486 -172 m 468 458 q 434 538 468 511 q 359 566 401 566 q 266 528 304 566 q 227 427 227 490 q 261 348 227 375 q 337 321 294 321 q 429 359 391 321 q 468 458 468 396 m 610 948 q 379 754 529 754 q 187 948 221 754 l 285 982 q 391 865 323 865 q 513 982 455 865 l 610 948 z "},"ġ":{"ha":730,"x_min":-22,"x_max":753,"o":"m 753 738 l 726 612 q 597 581 625 612 l 597 572 q 627 471 627 524 q 540 289 627 354 q 328 224 453 224 q 222 235 262 224 q 189 174 189 208 q 218 129 189 140 q 443 118 248 118 q 650 -37 650 118 q 530 -265 650 -179 q 241 -351 410 -351 q 44 -308 109 -351 q -22 -178 -22 -264 q 109 6 -22 -60 l 109 16 q 66 106 66 43 q 153 251 66 181 l 154 260 q 90 325 117 281 q 62 421 62 368 q 155 605 62 543 q 378 666 248 666 q 542 620 475 666 l 550 620 q 682 753 583 753 q 753 738 723 753 m 486 -90 q 457 -35 486 -51 q 325 -19 428 -19 q 199 -12 258 -19 q 125 -138 125 -56 q 255 -251 125 -251 q 420 -211 355 -251 q 486 -90 486 -172 m 468 458 q 434 538 468 511 q 359 566 401 566 q 266 528 304 566 q 227 427 227 490 q 261 348 227 375 q 337 321 294 321 q 429 359 391 321 q 468 458 468 396 m 498 862 q 462 771 498 809 q 372 734 425 734 q 308 759 330 734 q 286 823 286 785 q 322 913 286 876 q 412 949 359 949 q 498 862 498 949 z "},"ģ":{"ha":730,"x_min":-22,"x_max":753,"o":"m 753 738 l 726 612 q 597 581 625 612 l 597 572 q 627 471 627 524 q 540 289 627 354 q 328 224 453 224 q 222 235 262 224 q 189 174 189 208 q 218 129 189 140 q 443 118 248 118 q 650 -37 650 118 q 530 -265 650 -179 q 241 -351 410 -351 q 44 -308 109 -351 q -22 -178 -22 -264 q 109 6 -22 -60 l 109 16 q 66 106 66 43 q 153 251 66 181 l 154 260 q 90 325 117 281 q 62 421 62 368 q 155 605 62 543 q 378 666 248 666 q 542 620 475 666 l 550 620 q 682 753 583 753 q 753 738 723 753 m 486 -90 q 457 -35 486 -51 q 325 -19 428 -19 q 199 -12 258 -19 q 125 -138 125 -56 q 255 -251 125 -251 q 420 -211 355 -251 q 486 -90 486 -172 m 468 458 q 434 538 468 511 q 359 566 401 566 q 266 528 304 566 q 227 427 227 490 q 261 348 227 375 q 337 321 294 321 q 429 359 391 321 q 468 458 468 396 m 491 838 q 461 765 491 795 q 389 734 431 734 q 321 765 342 734 q 300 836 300 796 q 456 1074 300 987 l 500 1030 q 451 922 466 992 q 491 838 491 896 z "},"ĥ":{"ha":743,"x_min":23,"x_max":677,"o":"m 677 464 q 659 240 677 404 q 641 0 641 76 l 466 -7 q 488 187 466 26 q 511 414 511 348 q 490 512 511 485 q 422 539 470 539 q 308 458 363 539 q 241 262 252 378 q 218 0 226 116 l 47 -7 q 106 504 59 82 q 133 954 133 762 l 319 964 q 294 757 319 935 q 258 524 269 580 l 267 524 q 502 666 347 666 q 677 464 677 666 m 435 960 l 336 960 q 241 1047 336 969 q 122 960 123 969 l 23 960 q 95 1052 24 969 q 170 1146 166 1135 l 334 1146 q 386 1052 336 1135 q 435 960 435 969 z "},"ħ":{"ha":743,"x_min":47,"x_max":677,"o":"m 677 444 q 660 230 677 384 q 643 0 643 76 l 468 -7 q 490 187 468 26 q 511 394 513 348 q 490 492 511 465 q 422 519 470 519 q 308 448 363 519 q 241 262 252 378 q 218 0 226 116 l 47 -7 q 106 504 59 82 q 125 743 115 598 l 51 743 l 64 840 l 130 840 q 133 954 133 899 l 319 964 q 303 840 319 938 l 463 840 l 448 743 l 290 743 q 274 623 278 654 q 256 504 269 580 l 265 504 q 502 646 347 646 q 677 444 677 646 z "},"ì":{"ha":331,"x_min":12,"x_max":285,"o":"m 285 658 q 271 536 285 640 q 245 322 253 397 q 220 0 230 181 l 47 -7 q 90 322 60 81 q 103 563 103 451 q 100 638 103 608 l 285 658 m 278 736 l 160 736 q 86 848 160 747 q 12 956 13 948 l 184 956 q 231 848 184 949 q 278 736 278 747 z "},"í":{"ha":331,"x_min":47,"x_max":433,"o":"m 285 658 q 271 536 285 640 q 245 322 253 397 q 220 0 230 181 l 47 -7 q 90 322 60 81 q 103 563 103 451 q 100 638 103 608 l 285 658 m 433 956 q 333 848 433 948 q 233 736 233 747 l 115 736 q 184 848 115 747 q 254 956 254 949 l 433 956 z "},"î":{"ha":331,"x_min":-11,"x_max":401,"o":"m 285 658 q 271 536 285 640 q 245 322 253 397 q 220 0 230 181 l 47 -7 q 90 322 60 81 q 103 563 103 451 q 100 638 103 608 l 285 658 m 401 736 l 302 736 q 208 850 302 745 q 88 736 89 745 l -11 736 q 61 845 -10 745 q 136 956 132 945 l 300 956 q 352 845 302 945 q 401 736 401 745 z "},"ĩ":{"ha":331,"x_min":-12,"x_max":439,"o":"m 439 919 q 264 766 351 766 q 204 778 235 766 q 147 790 173 790 q 39 724 95 790 l -12 775 q 162 928 75 928 q 224 916 194 928 q 279 904 254 904 q 388 970 332 904 l 439 919 m 285 658 q 271 536 285 640 q 245 322 253 397 q 220 0 230 181 l 47 -7 q 90 322 60 81 q 103 563 103 451 q 100 638 103 608 l 285 658 z "},"ï":{"ha":331,"x_min":17,"x_max":418,"o":"m 285 658 q 271 536 286 640 q 245 322 253 397 q 220 0 230 181 l 47 -7 q 90 322 60 81 q 103 563 103 451 q 100 638 103 608 l 285 658 m 418 866 q 387 790 418 821 q 312 758 357 758 q 239 833 239 758 q 271 908 239 878 q 347 939 302 939 q 418 866 418 939 m 195 866 q 164 790 195 821 q 88 758 133 758 q 17 832 17 758 q 48 908 17 877 q 123 939 79 939 q 195 866 195 939 z "},"ī":{"ha":331,"x_min":47,"x_max":389,"o":"m 285 658 q 271 536 285 640 q 245 322 253 397 q 220 0 230 181 l 47 -7 q 90 322 60 81 q 103 563 103 451 q 100 638 103 608 l 285 658 m 389 905 l 368 787 l 56 787 l 76 905 l 389 905 z "},"ĭ":{"ha":331,"x_min":1,"x_max":425,"o":"m 285 658 q 271 536 285 640 q 245 322 253 397 q 220 0 230 181 l 47 -7 q 90 322 60 81 q 103 563 103 451 q 100 638 103 608 l 285 658 m 425 948 q 193 754 343 754 q 1 948 35 754 l 99 982 q 205 865 138 865 q 327 982 269 865 l 425 948 z "},"į":{"ha":331,"x_min":-54,"x_max":337,"o":"m 285 658 q 269 518 286 640 q 245 322 253 397 q 220 7 230 181 q 71 -151 71 -48 q 139 -223 71 -223 q 191 -216 159 -223 l 198 -317 q 107 -330 157 -330 q -16 -290 22 -330 q -54 -183 -54 -250 q 47 -7 -54 -85 q 90 322 60 81 q 103 563 103 451 q 100 638 103 608 l 285 658 m 337 862 q 300 771 337 809 q 210 734 264 734 q 146 759 169 734 q 124 823 124 785 q 161 913 124 876 q 251 949 197 949 q 337 862 337 949 z "},"ı":{"ha":331,"x_min":47,"x_max":285,"o":"m 285 658 q 271 536 285 640 q 245 322 253 397 q 220 0 230 181 l 47 -7 q 90 322 60 81 q 103 563 103 451 q 100 638 103 608 l 285 658 z "},"ĳ":{"ha":662,"x_min":47,"x_max":668,"o":"m 285 658 q 269 518 286 640 q 245 322 253 397 q 220 0 230 181 l 47 -7 q 90 322 60 81 q 103 563 103 451 q 100 638 103 608 l 285 658 m 337 862 q 300 771 337 809 q 210 734 264 734 q 146 759 169 734 q 124 823 124 785 q 161 913 124 876 q 251 949 197 949 q 337 862 337 949 m 618 659 q 596 465 618 642 q 562 151 574 289 q 547 -19 551 12 q 326 -309 521 -269 l 290 -214 q 363 -101 339 -176 q 412 207 387 -26 q 436 583 436 441 q 434 640 436 619 l 618 659 m 668 862 q 631 771 668 809 q 541 734 594 734 q 477 759 499 734 q 454 823 454 785 q 492 913 454 876 q 583 949 529 949 q 668 862 668 949 z "},"ĵ":{"ha":331,"x_min":-41,"x_max":403,"o":"m 288 659 q 269 504 288 642 q 235 189 251 366 q 216 -19 220 12 q -5 -309 190 -269 l -41 -214 q 32 -101 8 -176 q 81 207 56 -26 q 105 583 105 441 q 103 640 105 619 l 288 659 m 403 736 l 304 736 q 209 850 304 745 q 90 736 90 745 l -9 736 q 62 845 -9 745 q 138 956 134 945 l 301 956 q 353 845 304 945 q 403 736 403 745 z "},"ķ":{"ha":690,"x_min":47,"x_max":685,"o":"m 685 644 q 604 523 685 619 q 465 384 522 427 l 465 375 q 589 169 536 293 q 642 0 642 44 l 457 -7 q 424 113 457 24 q 345 262 390 202 q 285 185 311 225 q 218 0 224 90 l 47 -7 q 109 504 60 82 q 135 954 135 755 l 319 964 q 299 796 319 935 q 237 277 279 656 l 247 278 q 389 482 270 330 q 494 651 494 616 l 685 644 m 417 -146 q 266 -355 417 -250 l 222 -312 q 281 -213 275 -268 q 243 -144 243 -187 q 272 -76 243 -102 q 342 -49 300 -49 q 397 -75 378 -49 q 417 -146 417 -100 z "},"ĸ":{"ha":690,"x_min":47,"x_max":685,"o":"m 685 644 q 604 523 685 619 q 465 384 522 427 l 465 375 q 589 169 536 293 q 642 0 642 44 l 457 -7 q 424 113 457 24 q 345 262 390 202 q 285 185 311 225 q 218 0 224 90 l 47 -7 q 75 196 58 57 q 102 644 102 460 l 293 654 q 273 486 293 625 q 237 278 253 347 l 247 278 q 382 473 270 330 q 496 654 494 616 l 685 644 z "},"ĺ":{"ha":352,"x_min":47,"x_max":464,"o":"m 321 964 q 300 786 321 930 q 265 504 280 643 q 222 2 232 190 l 47 -8 q 69 166 47 3 q 109 504 91 330 q 137 954 137 768 l 321 964 m 464 1214 q 364 1122 464 1206 q 264 1028 264 1039 l 146 1028 q 212 1123 146 1039 q 277 1214 277 1206 l 464 1214 z "},"ľ":{"ha":464,"x_min":47,"x_max":532,"o":"m 321 964 q 300 786 321 930 q 265 504 280 643 q 222 2 232 190 l 47 -8 q 69 166 47 3 q 109 504 91 330 q 137 954 137 768 l 321 964 m 532 812 q 375 560 532 667 l 331 604 q 387 732 376 659 q 347 795 347 754 q 379 870 347 840 q 456 901 412 901 q 513 878 494 901 q 532 812 532 855 z "},"ļ":{"ha":352,"x_min":14,"x_max":321,"o":"m 321 964 q 300 786 321 930 q 265 504 280 643 q 222 2 232 190 l 47 -8 q 69 166 47 3 q 109 504 91 330 q 137 954 137 768 l 321 964 m 209 -146 q 58 -355 209 -250 l 14 -312 q 73 -213 67 -268 q 35 -144 35 -187 q 64 -76 35 -102 q 134 -49 92 -49 q 189 -75 170 -49 q 209 -146 209 -100 z "},"ł":{"ha":394,"x_min":-39,"x_max":462,"o":"m 462 638 l 278 504 q 235 0 251 244 l 58 -7 q 106 373 72 93 l 9 292 l -39 345 l 119 471 q 149 954 149 755 l 336 964 q 319 816 336 927 q 290 613 301 705 l 401 708 l 462 638 z "},"ŀ":{"ha":477,"x_min":47,"x_max":521,"o":"m 321 964 q 300 786 321 930 q 265 504 280 643 q 222 2 232 190 l 47 -8 q 69 166 47 3 q 109 504 91 330 q 137 954 137 768 l 321 964 m 521 429 q 484 339 521 376 q 394 301 448 301 q 330 327 353 301 q 308 390 308 352 q 345 480 308 444 q 435 517 381 517 q 521 429 521 517 z "},"ń":{"ha":741,"x_min":47,"x_max":676,"o":"m 676 464 q 658 240 676 404 q 640 0 640 76 l 465 -7 q 487 187 465 26 q 509 414 509 348 q 489 512 509 485 q 421 539 469 539 q 307 458 362 539 q 239 262 251 378 q 217 0 224 116 l 47 -7 q 94 468 94 345 q 83 642 94 539 l 252 659 q 256 524 256 601 l 266 524 q 500 666 345 666 q 676 464 676 666 m 666 956 q 566 848 666 948 q 466 736 466 747 l 348 736 q 417 848 348 747 q 486 956 486 949 l 666 956 z "},"ň":{"ha":741,"x_min":47,"x_max":676,"o":"m 676 464 q 658 240 676 404 q 640 0 640 76 l 465 -7 q 487 187 465 26 q 509 414 509 348 q 489 512 509 485 q 421 539 469 539 q 307 458 362 539 q 239 262 251 378 q 217 0 224 116 l 47 -7 q 94 468 94 345 q 83 642 94 539 l 252 659 q 256 524 256 601 l 266 524 q 500 666 345 666 q 676 464 676 666 m 650 956 q 578 847 650 947 q 503 736 507 747 l 340 736 q 288 847 337 747 q 238 956 238 947 l 337 956 q 432 842 337 947 q 551 956 551 947 l 650 956 z "},"ñ":{"ha":741,"x_min":47,"x_max":692,"o":"m 676 464 q 658 240 676 404 q 640 0 640 76 l 465 -7 q 487 187 465 26 q 509 414 509 348 q 489 512 509 485 q 421 539 469 539 q 307 458 362 539 q 239 262 251 378 q 217 0 224 116 l 47 -7 q 94 468 94 345 q 83 642 94 539 l 252 659 q 256 524 256 601 l 266 524 q 500 666 345 666 q 676 464 676 666 m 692 910 q 511 778 604 778 q 434 794 477 778 q 359 810 391 810 q 239 738 300 810 l 186 789 q 368 928 275 928 q 445 913 401 928 q 519 899 488 899 q 640 961 578 899 l 692 910 z "},"ņ":{"ha":741,"x_min":47,"x_max":676,"o":"m 676 464 q 658 240 676 404 q 640 0 640 76 l 465 -7 q 487 187 465 26 q 509 414 509 348 q 489 512 509 485 q 421 539 469 539 q 307 458 362 539 q 239 262 251 378 q 217 0 224 116 l 47 -7 q 94 468 94 345 q 83 642 94 539 l 252 659 q 256 524 256 601 l 266 524 q 500 666 345 666 q 676 464 676 666 m 415 -146 q 264 -355 415 -250 l 220 -312 q 279 -213 273 -268 q 241 -144 241 -187 q 270 -76 241 -102 q 340 -49 298 -49 q 395 -75 376 -49 q 415 -146 415 -100 z "},"ŉ":{"ha":888,"x_min":-40,"x_max":857,"o":"m 857 464 q 838 240 857 404 q 820 0 820 76 l 645 -7 q 667 187 645 26 q 690 414 690 348 q 669 512 690 485 q 602 539 649 539 q 487 458 543 539 q 420 262 431 378 q 397 0 405 116 l 227 -7 q 275 468 275 345 q 264 642 275 539 l 432 659 q 437 524 437 601 l 446 524 q 681 666 526 666 q 857 464 857 666 m 296 865 q 53 477 296 692 l -3 525 q 109 747 96 627 q 68 831 68 775 q 108 930 68 890 q 199 970 147 970 q 273 939 250 970 q 296 865 296 908 m -40 964 z "},"ò":{"ha":743,"x_min":43,"x_max":700,"o":"m 700 372 q 594 90 700 206 q 323 -26 489 -26 q 125 58 208 -26 q 43 281 43 142 q 149 560 43 446 q 420 674 254 674 q 618 592 536 674 q 700 372 700 511 m 528 357 q 492 495 528 441 q 393 549 456 549 q 263 468 313 549 q 214 290 214 387 q 250 152 214 206 q 350 98 287 98 q 480 178 432 98 q 528 357 528 258 m 481 736 l 363 736 q 289 848 363 747 q 214 956 216 948 l 387 956 q 434 848 387 949 q 481 736 481 747 z "},"ó":{"ha":743,"x_min":43,"x_max":700,"o":"m 700 372 q 594 90 700 206 q 323 -26 489 -26 q 125 58 208 -26 q 43 281 43 142 q 149 560 43 446 q 420 674 254 674 q 618 592 536 674 q 700 372 700 511 m 528 357 q 492 495 528 441 q 393 549 456 549 q 263 468 313 549 q 214 290 214 387 q 250 152 214 206 q 350 98 287 98 q 480 178 432 98 q 528 357 528 258 m 675 956 q 575 848 675 948 q 475 736 475 747 l 357 736 q 427 848 357 747 q 496 956 496 949 l 675 956 z "},"ô":{"ha":743,"x_min":43,"x_max":700,"o":"m 700 372 q 594 90 700 206 q 323 -26 489 -26 q 125 58 208 -26 q 43 281 43 142 q 149 560 43 446 q 420 674 254 674 q 618 592 536 674 q 700 372 700 511 m 528 357 q 492 495 528 441 q 393 549 456 549 q 263 468 313 549 q 214 290 214 387 q 250 152 214 206 q 350 98 287 98 q 480 178 432 98 q 528 357 528 258 m 625 736 l 526 736 q 431 850 526 745 q 311 736 312 745 l 212 736 q 284 845 213 745 q 359 956 355 945 l 523 956 q 575 845 526 945 q 625 736 625 745 z "},"õ":{"ha":743,"x_min":43,"x_max":700,"o":"m 700 372 q 594 90 700 206 q 323 -26 489 -26 q 125 58 208 -26 q 43 281 43 142 q 149 560 43 446 q 420 674 254 674 q 618 592 536 674 q 700 372 700 511 m 528 357 q 492 495 528 441 q 393 549 456 549 q 263 468 313 549 q 214 290 214 387 q 250 152 214 206 q 350 98 287 98 q 480 178 432 98 q 528 357 528 258 m 685 910 q 504 778 597 778 q 427 794 470 778 q 352 810 384 810 q 232 738 294 810 l 180 789 q 361 928 268 928 q 438 913 395 928 q 513 899 481 899 q 633 961 571 899 l 685 910 z "},"ö":{"ha":743,"x_min":43,"x_max":700,"o":"m 700 372 q 594 90 700 206 q 323 -26 489 -26 q 125 58 208 -26 q 43 281 43 142 q 149 560 43 446 q 420 674 254 674 q 618 592 536 674 q 700 372 700 511 m 528 357 q 492 495 528 441 q 393 549 456 549 q 263 468 313 549 q 214 290 214 387 q 250 152 214 206 q 350 98 287 98 q 480 178 432 98 q 528 357 528 258 m 648 866 q 618 790 648 821 q 543 758 587 758 q 470 833 470 758 q 501 908 470 878 q 577 939 532 939 q 648 866 648 939 m 398 866 q 367 790 398 821 q 292 758 336 758 q 220 832 220 758 q 251 908 220 877 q 327 939 282 939 q 398 866 398 939 z "},"ō":{"ha":743,"x_min":43,"x_max":700,"o":"m 700 372 q 594 90 700 206 q 323 -26 489 -26 q 125 58 208 -26 q 43 281 43 142 q 149 560 43 446 q 420 674 254 674 q 618 592 536 674 q 700 372 700 511 m 528 357 q 492 495 528 441 q 393 549 456 549 q 263 468 313 549 q 214 290 214 387 q 250 152 214 206 q 350 98 287 98 q 480 178 432 98 q 528 357 528 258 m 613 905 l 592 787 l 280 787 l 300 905 l 613 905 z "},"ŏ":{"ha":743,"x_min":43,"x_max":700,"o":"m 700 372 q 594 90 700 206 q 323 -26 489 -26 q 125 58 208 -26 q 43 281 43 142 q 149 560 43 446 q 420 674 254 674 q 618 592 536 674 q 700 372 700 511 m 528 357 q 492 495 528 441 q 393 549 456 549 q 263 468 313 549 q 214 290 214 387 q 250 152 214 206 q 350 98 287 98 q 480 178 432 98 q 528 357 528 258 m 646 948 q 414 754 564 754 q 222 948 256 754 l 320 982 q 426 865 359 865 q 548 982 490 865 l 646 948 z "},"ő":{"ha":743,"x_min":43,"x_max":715,"o":"m 700 372 q 594 90 700 206 q 323 -26 489 -26 q 125 58 208 -26 q 43 281 43 142 q 149 560 43 446 q 420 674 254 674 q 618 592 536 674 q 700 372 700 511 m 528 357 q 492 495 528 441 q 393 549 456 549 q 263 468 313 549 q 214 290 214 387 q 250 152 214 206 q 350 98 287 98 q 480 178 432 98 q 528 357 528 258 m 472 956 q 401 844 471 941 q 331 736 332 747 l 239 736 q 272 845 239 747 q 307 956 305 942 l 472 956 m 715 956 q 644 844 713 941 q 574 736 574 747 l 481 736 q 515 845 482 747 q 549 956 548 942 l 715 956 z "},"ø":{"ha":743,"x_min":-7,"x_max":746,"o":"m 746 665 q 659 547 743 641 q 700 373 700 478 q 595 91 700 208 q 326 -26 491 -26 q 148 31 221 -26 q 62 -77 64 -58 l -7 -49 q 98 82 -5 -26 q 44 273 44 155 q 149 556 44 439 q 419 674 254 674 q 613 602 536 674 q 675 690 673 670 l 746 665 m 499 482 q 392 549 461 549 q 261 467 307 549 q 214 293 214 385 q 226 211 214 248 l 499 482 m 529 337 q 523 406 529 384 q 258 144 432 316 q 351 98 295 98 q 483 173 436 98 q 529 337 529 248 z "},"ǿ":{"ha":743,"x_min":-7,"x_max":746,"o":"m 746 665 q 659 547 743 641 q 700 373 700 478 q 595 91 700 208 q 326 -26 491 -26 q 148 31 221 -26 q 62 -77 64 -58 l -7 -49 q 98 82 -5 -26 q 44 273 44 155 q 149 556 44 439 q 419 674 254 674 q 613 602 536 674 q 675 690 673 670 l 746 665 m 499 482 q 392 549 461 549 q 261 467 307 549 q 214 293 214 385 q 226 211 214 248 l 499 482 m 529 337 q 523 406 529 384 q 258 144 432 316 q 351 98 295 98 q 483 173 436 98 q 529 337 529 248 m 668 956 q 568 848 668 948 q 468 736 468 747 l 350 736 q 419 848 350 747 q 488 956 488 949 l 668 956 z "},"œ":{"ha":1137,"x_min":43,"x_max":1112,"o":"m 1112 504 q 677 294 1112 302 q 708 162 677 209 q 826 115 740 115 q 1059 185 935 115 l 1038 51 q 781 -20 937 -20 q 573 77 641 -20 l 563 77 q 323 -26 464 -26 q 125 58 208 -26 q 43 281 43 142 q 149 560 43 446 q 420 674 254 674 q 621 568 547 674 l 630 568 q 884 674 734 674 q 1050 630 989 674 q 1112 504 1112 586 m 525 357 q 490 495 525 441 q 393 549 455 549 q 261 466 309 549 q 214 290 214 382 q 250 152 214 206 q 350 98 287 98 q 480 181 435 98 q 525 357 525 263 m 960 490 q 859 556 960 556 q 750 514 802 556 q 683 392 699 471 q 960 490 960 397 z "},"ŕ":{"ha":513,"x_min":47,"x_max":569,"o":"m 536 652 l 482 492 q 387 506 437 506 q 250 371 264 506 q 217 0 229 166 l 47 -7 q 94 468 94 345 q 83 642 94 539 l 252 659 q 256 569 256 614 l 266 569 q 434 667 335 667 q 536 652 481 667 m 569 956 q 469 848 569 948 q 369 736 369 747 l 251 736 q 320 848 251 747 q 389 956 389 949 l 569 956 z "},"ř":{"ha":513,"x_min":47,"x_max":538,"o":"m 536 652 l 482 492 q 387 506 437 506 q 250 371 264 506 q 217 0 229 166 l 47 -7 q 94 468 94 345 q 83 642 94 539 l 252 659 q 256 569 256 614 l 266 569 q 434 667 335 667 q 536 652 481 667 m 538 956 q 466 847 537 947 q 391 736 395 747 l 227 736 q 175 847 224 747 q 125 956 125 947 l 224 956 q 319 842 224 947 q 439 956 438 947 l 538 956 z "},"ŗ":{"ha":513,"x_min":21,"x_max":536,"o":"m 536 652 l 482 492 q 387 506 437 506 q 250 371 264 506 q 217 0 229 166 l 47 -7 q 94 468 94 345 q 83 642 94 539 l 252 659 q 256 569 256 614 l 266 569 q 434 667 335 667 q 536 652 481 667 m 216 -146 q 64 -355 216 -250 l 21 -312 q 80 -213 74 -268 q 42 -144 42 -187 q 71 -76 42 -102 q 141 -49 99 -49 q 196 -75 176 -49 q 216 -146 216 -100 z "},"ś":{"ha":551,"x_min":3,"x_max":572,"o":"m 515 655 l 478 521 q 323 543 407 543 q 217 479 217 543 q 317 396 217 436 q 493 202 493 325 q 183 -18 493 -18 q 3 2 79 -18 l 39 136 q 197 109 117 109 q 341 175 341 109 q 242 265 341 222 q 120 336 159 301 q 65 455 65 385 q 143 616 65 563 q 337 669 222 669 q 515 655 451 669 m 572 956 q 472 848 572 948 q 372 736 372 747 l 254 736 q 323 848 254 747 q 392 956 392 949 l 572 956 z "},"ŝ":{"ha":551,"x_min":3,"x_max":515,"o":"m 515 655 l 478 521 q 323 543 407 543 q 217 479 217 543 q 317 396 217 436 q 493 202 493 325 q 183 -18 493 -18 q 3 2 79 -18 l 39 136 q 197 109 117 109 q 341 175 341 109 q 242 265 341 222 q 120 336 159 301 q 65 455 65 385 q 143 616 65 563 q 337 669 222 669 q 515 655 451 669 m 515 736 l 416 736 q 321 850 416 745 q 202 736 203 745 l 103 736 q 175 845 104 745 q 250 956 246 945 l 414 956 q 466 845 416 945 q 515 736 515 745 z "},"š":{"ha":551,"x_min":3,"x_max":556,"o":"m 515 655 l 478 521 q 323 543 407 543 q 217 479 217 543 q 317 396 217 436 q 493 202 493 325 q 183 -18 493 -18 q 3 2 79 -18 l 39 136 q 197 109 117 109 q 341 175 341 109 q 242 265 341 222 q 120 336 159 301 q 65 455 65 385 q 143 616 65 563 q 337 669 222 669 q 515 655 451 669 m 556 956 q 484 847 555 947 q 409 736 413 747 l 245 736 q 193 847 243 747 q 144 956 144 947 l 243 956 q 338 842 243 947 q 457 956 456 947 l 556 956 z "},"ş":{"ha":551,"x_min":3,"x_max":515,"o":"m 515 655 l 478 521 q 323 543 407 543 q 217 479 217 543 q 317 396 217 436 q 493 202 493 325 q 233 -16 493 0 l 225 -47 q 332 -178 332 -85 q 158 -335 332 -335 l 151 -259 q 199 -239 178 -259 q 220 -193 220 -220 q 146 -112 220 -127 l 173 -18 q 3 3 75 -17 l 39 136 q 197 109 117 109 q 341 175 341 109 q 242 265 341 222 q 120 336 159 301 q 65 455 65 385 q 143 616 65 563 q 337 669 222 669 q 515 655 451 669 z "},"ș":{"ha":551,"x_min":3,"x_max":515,"o":"m 515 655 l 478 521 q 323 543 407 543 q 217 479 217 543 q 317 396 217 436 q 493 202 493 325 q 183 -18 493 -18 q 3 2 79 -18 l 39 136 q 197 109 117 109 q 341 175 341 109 q 242 265 341 222 q 120 336 159 301 q 65 455 65 385 q 143 616 65 563 q 337 669 222 669 q 515 655 451 669 m 317 -146 q 165 -355 317 -250 l 122 -312 q 181 -213 175 -268 q 143 -144 143 -187 q 172 -76 143 -102 q 242 -49 200 -49 q 297 -75 277 -49 q 317 -146 317 -100 z "},"ß":{"ha":729,"x_min":-54,"x_max":693,"o":"m 693 808 q 646 681 693 741 l 558 590 q 511 500 511 541 q 576 394 511 460 q 673 199 673 294 q 595 41 673 97 q 410 -15 517 -15 q 286 1 339 -15 l 313 121 q 417 102 359 102 q 513 172 513 102 q 444 290 513 214 q 366 448 366 374 q 416 578 366 513 l 509 677 q 559 779 559 732 q 445 854 559 854 q 313 775 355 854 q 254 493 270 696 q 213 10 238 290 q -17 -310 188 -271 l -54 -214 q 25 -93 -1 -174 q 71 163 50 -12 q 107 552 91 338 q 204 870 123 766 q 451 974 284 974 q 632 931 572 974 q 693 808 693 888 z "},"ſ":{"ha":363,"x_min":-54,"x_max":473,"o":"m 473 964 l 444 848 q 376 853 408 853 q 299 810 323 853 q 265 633 275 768 q 213 10 238 290 q -17 -310 188 -271 l -54 -214 q 25 -93 -1 -174 q 69 163 50 -12 q 115 633 87 338 q 355 974 151 974 q 473 964 433 974 z "},"ť":{"ha":612,"x_min":0,"x_max":681,"o":"m 468 638 l 450 503 q 293 507 354 507 q 264 233 264 323 q 279 140 264 165 q 333 115 294 115 q 460 157 393 115 l 437 34 q 285 -14 376 -14 q 148 33 189 -14 q 107 192 107 80 q 141 507 107 275 q 48 503 109 507 l 67 637 q 161 633 119 633 q 191 822 168 680 l 341 842 q 309 633 330 777 q 468 638 363 633 m 0 651 m 681 812 q 524 560 681 667 l 479 604 q 536 732 524 659 q 495 795 495 754 q 528 870 495 840 q 604 901 561 901 q 662 878 642 901 q 681 812 681 855 z "},"ţ":{"ha":506,"x_min":0,"x_max":468,"o":"m 468 638 l 450 503 q 293 507 354 507 q 264 233 264 323 q 279 140 264 165 q 333 115 294 115 q 460 157 393 115 l 437 34 q 285 -14 376 -14 q 148 33 189 -14 q 107 192 107 80 q 141 507 107 275 q 48 503 109 507 l 67 637 q 161 633 119 633 q 191 822 168 680 l 341 842 q 309 633 330 777 q 468 638 363 633 m 0 651 m 343 -146 q 192 -355 343 -250 l 149 -312 q 208 -213 201 -268 q 170 -144 170 -187 q 198 -76 170 -102 q 269 -49 227 -49 q 323 -75 304 -49 q 343 -146 343 -100 z "},"ŧ":{"ha":506,"x_min":0,"x_max":468,"o":"m 468 638 l 450 503 q 293 507 354 507 q 278 403 284 450 l 420 403 l 409 313 l 268 313 q 264 233 264 267 q 279 140 264 165 q 333 115 294 115 q 460 157 393 115 l 437 34 q 285 -14 376 -14 q 148 33 189 -14 q 107 192 107 80 q 115 313 107 233 l 37 313 l 47 403 l 126 403 l 141 507 q 48 503 109 507 l 67 637 q 161 633 119 633 q 187 822 165 664 l 341 842 q 309 633 330 777 q 468 638 363 633 m 0 651 z "},"ù":{"ha":736,"x_min":65,"x_max":689,"o":"m 689 658 q 642 159 642 282 q 652 5 642 87 l 486 -14 q 481 121 481 41 l 472 121 q 240 -21 395 -21 q 65 181 65 -21 q 83 405 65 241 q 101 644 101 568 l 277 658 q 254 463 277 625 q 231 235 231 301 q 251 135 231 163 q 317 106 270 106 q 431 187 376 106 q 498 383 487 267 q 517 644 517 572 l 689 658 m 460 736 l 342 736 q 269 848 342 747 q 194 956 195 948 l 367 956 q 414 848 367 949 q 460 736 460 747 z "},"ú":{"ha":736,"x_min":65,"x_max":689,"o":"m 689 658 q 642 159 642 282 q 652 5 642 87 l 486 -14 q 481 121 481 41 l 472 121 q 240 -21 395 -21 q 65 181 65 -21 q 83 405 65 241 q 101 644 101 568 l 277 658 q 254 463 277 625 q 231 235 231 301 q 251 135 231 163 q 317 106 270 106 q 431 187 376 106 q 498 383 487 267 q 517 644 517 572 l 689 658 m 648 956 q 548 848 648 948 q 448 736 448 747 l 330 736 q 399 848 330 747 q 469 956 469 949 l 648 956 z "},"û":{"ha":736,"x_min":65,"x_max":689,"o":"m 689 658 q 642 159 642 282 q 652 5 642 87 l 486 -14 q 481 121 481 41 l 472 121 q 240 -21 395 -21 q 65 181 65 -21 q 83 405 65 241 q 101 644 101 568 l 277 658 q 254 463 277 625 q 231 235 231 301 q 251 135 231 163 q 317 106 270 106 q 431 187 376 106 q 498 383 487 267 q 517 644 517 572 l 689 658 m 608 736 l 509 736 q 414 850 509 745 q 294 736 295 745 l 195 736 q 267 845 196 745 q 342 956 338 945 l 506 956 q 558 845 509 945 q 608 736 608 745 z "},"ũ":{"ha":736,"x_min":65,"x_max":689,"o":"m 689 658 q 642 159 642 282 q 652 5 642 87 l 486 -14 q 481 121 481 41 l 472 121 q 240 -21 395 -21 q 65 181 65 -21 q 83 405 65 241 q 101 644 101 568 l 277 658 q 254 463 277 625 q 231 235 231 301 q 251 135 231 163 q 317 106 270 106 q 431 187 376 106 q 498 383 487 267 q 517 644 517 572 l 689 658 m 669 910 q 488 778 581 778 q 411 794 454 778 q 336 810 368 810 q 216 738 278 810 l 164 789 q 345 928 252 928 q 422 913 379 928 q 497 899 465 899 q 618 961 555 899 l 669 910 z "},"ü":{"ha":736,"x_min":65,"x_max":689,"o":"m 689 658 q 642 159 642 282 q 652 5 642 87 l 486 -14 q 481 121 481 41 l 472 121 q 240 -21 395 -21 q 65 181 65 -21 q 83 405 65 241 q 101 644 101 568 l 277 658 q 254 463 277 625 q 231 235 231 301 q 251 135 231 163 q 317 106 270 106 q 431 187 376 106 q 498 383 487 267 q 517 644 517 572 l 689 658 m 628 866 q 597 790 628 821 q 522 758 567 758 q 450 833 450 758 q 481 908 450 878 q 557 939 512 939 q 628 866 628 939 m 378 866 q 347 790 378 821 q 271 758 316 758 q 200 832 200 758 q 231 908 200 877 q 307 939 262 939 q 378 866 378 939 z "},"ū":{"ha":736,"x_min":65,"x_max":689,"o":"m 689 658 q 642 159 642 282 q 652 5 642 87 l 486 -14 q 481 121 481 41 l 472 121 q 240 -21 395 -21 q 65 181 65 -21 q 83 405 65 241 q 101 644 101 568 l 277 658 q 254 463 277 625 q 231 235 231 301 q 251 135 231 163 q 317 106 270 106 q 431 187 376 106 q 498 383 487 267 q 517 644 517 572 l 689 658 m 581 905 l 559 787 l 248 787 l 268 905 l 581 905 z "},"ŭ":{"ha":736,"x_min":65,"x_max":689,"o":"m 689 658 q 642 159 642 282 q 652 5 642 87 l 486 -14 q 481 121 481 41 l 472 121 q 240 -21 395 -21 q 65 181 65 -21 q 83 405 65 241 q 101 644 101 568 l 277 658 q 254 463 277 625 q 231 235 231 301 q 251 135 231 163 q 317 106 270 106 q 431 187 376 106 q 498 383 487 267 q 517 644 517 572 l 689 658 m 636 948 q 405 754 555 754 q 213 948 247 754 l 311 982 q 416 865 349 865 q 538 982 481 865 l 636 948 z "},"ů":{"ha":736,"x_min":65,"x_max":689,"o":"m 689 658 q 642 159 642 282 q 652 5 642 87 l 486 -14 q 481 121 481 41 l 472 121 q 240 -21 395 -21 q 65 181 65 -21 q 83 405 65 241 q 101 644 101 568 l 277 658 q 254 463 277 625 q 231 235 231 301 q 251 135 231 163 q 317 106 270 106 q 431 187 376 106 q 498 383 487 267 q 517 644 517 572 l 689 658 m 576 873 q 521 747 576 795 q 404 704 471 704 q 301 741 342 704 q 254 854 254 782 q 310 978 254 931 q 427 1021 359 1021 q 530 985 488 1021 q 576 873 576 944 m 499 867 q 475 931 499 908 q 421 951 454 951 q 360 928 386 951 q 332 858 332 901 q 355 794 332 817 q 410 773 377 773 q 471 797 445 773 q 499 867 499 824 z "},"ű":{"ha":736,"x_min":65,"x_max":707,"o":"m 689 658 q 642 159 642 282 q 652 5 642 87 l 486 -14 q 481 121 481 41 l 472 121 q 240 -21 395 -21 q 65 181 65 -21 q 83 405 65 241 q 101 644 101 568 l 277 658 q 254 463 277 625 q 231 235 231 301 q 251 135 231 163 q 317 106 270 106 q 431 187 376 106 q 498 383 487 267 q 517 644 517 572 l 689 658 m 465 956 q 394 844 463 941 q 323 736 324 747 l 231 736 q 265 845 232 747 q 299 956 298 942 l 465 956 m 707 956 q 636 844 706 941 q 566 736 567 747 l 474 736 q 508 845 475 747 q 542 956 541 942 l 707 956 z "},"ų":{"ha":736,"x_min":65,"x_max":689,"o":"m 689 658 q 642 159 642 282 q 652 5 642 87 q 504 -152 504 -50 q 572 -224 504 -224 q 623 -218 592 -224 l 631 -319 q 540 -331 589 -331 q 416 -291 454 -331 q 378 -184 378 -251 q 486 -14 378 -87 q 481 121 481 41 l 472 121 q 240 -21 395 -21 q 65 181 65 -21 q 83 405 65 241 q 101 644 101 568 l 277 658 q 254 463 277 625 q 231 235 231 301 q 251 135 231 163 q 317 106 270 106 q 431 187 376 106 q 498 383 487 267 q 517 644 517 572 l 689 658 z "},"ẁ":{"ha":1061,"x_min":60,"x_max":1057,"o":"m 1057 652 q 919 322 1057 602 q 775 0 780 43 l 625 0 q 590 217 625 41 q 544 465 555 392 l 534 465 q 429 213 508 390 q 347 0 351 35 l 197 0 q 129 322 197 56 q 60 643 60 589 l 244 652 q 274 404 244 588 q 304 168 304 220 l 313 168 q 406 408 319 212 q 493 644 493 605 l 645 644 q 683 407 645 598 q 720 168 720 215 l 729 168 q 811 393 732 200 q 889 643 889 586 l 1057 652 m 621 736 l 503 736 q 429 848 503 747 q 354 956 355 948 l 527 956 q 574 848 527 949 q 621 736 621 747 z "},"ẃ":{"ha":1061,"x_min":60,"x_max":1057,"o":"m 1057 652 q 919 322 1057 602 q 775 0 780 43 l 625 0 q 590 217 625 41 q 544 465 555 392 l 534 465 q 429 213 508 390 q 347 0 351 35 l 197 0 q 129 322 197 56 q 60 643 60 589 l 244 652 q 274 404 244 588 q 304 168 304 220 l 313 168 q 406 408 319 212 q 493 644 493 605 l 645 644 q 683 407 645 598 q 720 168 720 215 l 729 168 q 811 393 732 200 q 889 643 889 586 l 1057 652 m 814 956 q 714 848 814 948 q 614 736 614 747 l 496 736 q 566 848 496 747 q 635 956 635 949 l 814 956 z "},"ŵ":{"ha":1061,"x_min":60,"x_max":1057,"o":"m 1057 652 q 919 322 1057 602 q 775 0 780 43 l 625 0 q 590 217 625 41 q 544 465 555 392 l 534 465 q 429 213 508 390 q 347 0 351 35 l 197 0 q 129 322 197 56 q 60 643 60 589 l 244 652 q 274 404 244 588 q 304 168 304 220 l 313 168 q 406 408 319 212 q 493 644 493 605 l 645 644 q 683 407 645 598 q 720 168 720 215 l 729 168 q 811 393 732 200 q 889 643 889 586 l 1057 652 m 773 736 l 674 736 q 579 850 674 745 q 460 736 460 745 l 361 736 q 433 845 361 745 q 508 956 504 945 l 671 956 q 724 845 674 945 q 773 736 773 745 z "},"ẅ":{"ha":1061,"x_min":60,"x_max":1057,"o":"m 1057 652 q 919 322 1057 602 q 775 0 780 43 l 625 0 q 590 217 625 41 q 544 465 555 392 l 534 465 q 429 213 508 390 q 347 0 351 35 l 197 0 q 129 322 197 56 q 60 643 60 589 l 244 652 q 274 404 244 588 q 304 168 304 220 l 313 168 q 406 408 319 212 q 493 644 493 605 l 645 644 q 683 407 645 598 q 720 168 720 215 l 729 168 q 811 393 732 200 q 889 643 889 586 l 1057 652 m 798 866 q 767 790 798 821 q 692 758 736 758 q 619 833 619 758 q 650 908 619 878 q 726 939 682 939 q 798 866 798 939 m 547 866 q 516 790 547 821 q 441 758 486 758 q 370 832 370 758 q 400 908 370 877 q 476 939 431 939 q 547 866 547 939 z "},"ỳ":{"ha":654,"x_min":4,"x_max":649,"o":"m 649 652 q 514 304 649 556 q 360 -4 380 52 q 221 -236 300 -172 q 4 -300 142 -300 l 4 -170 q 152 -115 90 -170 q 214 23 214 -60 q 131 345 214 115 q 49 644 49 574 l 244 652 q 282 391 244 559 q 321 162 321 223 l 331 162 q 405 365 334 186 q 476 642 476 545 l 649 652 m 418 736 l 300 736 q 226 848 300 747 q 151 956 153 948 l 324 956 q 371 848 324 949 q 418 736 418 747 z "},"ý":{"ha":654,"x_min":4,"x_max":649,"o":"m 649 652 q 514 304 649 556 q 360 -4 380 52 q 221 -236 300 -172 q 4 -300 142 -300 l 4 -170 q 152 -115 90 -170 q 214 23 214 -60 q 131 345 214 115 q 49 644 49 574 l 244 652 q 282 391 244 559 q 321 162 321 223 l 331 162 q 405 365 334 186 q 476 642 476 545 l 649 652 m 614 956 q 514 848 614 948 q 414 736 414 747 l 296 736 q 366 848 296 747 q 435 956 435 949 l 614 956 z "},"ŷ":{"ha":654,"x_min":4,"x_max":649,"o":"m 649 652 q 514 304 649 556 q 360 -4 380 52 q 221 -236 300 -172 q 4 -300 142 -300 l 4 -170 q 152 -115 90 -170 q 214 23 214 -60 q 131 345 214 115 q 49 644 49 574 l 244 652 q 282 391 244 559 q 321 162 321 223 l 331 162 q 405 365 334 186 q 476 642 476 545 l 649 652 m 568 736 l 469 736 q 374 850 469 745 q 255 736 256 745 l 156 736 q 228 845 157 745 q 303 956 299 945 l 467 956 q 519 845 469 945 q 568 736 568 745 z "},"ÿ":{"ha":654,"x_min":4,"x_max":649,"o":"m 649 652 q 514 304 649 556 q 360 -4 380 52 q 221 -236 300 -172 q 4 -300 142 -300 l 4 -170 q 152 -115 90 -170 q 214 23 214 -60 q 131 345 214 115 q 49 644 49 574 l 244 652 q 282 391 244 559 q 321 162 321 223 l 331 162 q 405 365 334 186 q 476 642 476 545 l 649 652 m 590 866 q 559 790 590 821 q 484 758 529 758 q 412 833 412 758 q 443 908 412 878 q 519 939 474 939 q 590 866 590 939 m 340 866 q 309 790 340 821 q 233 758 278 758 q 162 832 162 758 q 193 908 162 877 q 269 939 224 939 q 340 866 340 939 z "},"ź":{"ha":583,"x_min":20,"x_max":579,"o":"m 566 644 l 541 518 q 369 318 502 481 q 235 130 235 155 l 235 119 q 525 132 381 119 l 507 0 l 20 0 l 43 126 q 221 324 80 157 q 361 515 361 491 l 361 526 q 80 515 208 526 l 98 644 l 566 644 m 579 956 q 479 848 579 948 q 379 736 379 747 l 261 736 q 330 848 261 747 q 399 956 399 949 l 579 956 z "},"ž":{"ha":583,"x_min":20,"x_max":566,"o":"m 566 644 l 541 518 q 369 318 502 481 q 235 130 235 155 l 235 119 q 525 132 381 119 l 507 0 l 20 0 l 43 126 q 221 324 80 157 q 361 515 361 491 l 361 526 q 80 515 208 526 l 98 644 l 566 644 m 563 956 q 491 847 562 947 q 416 736 420 747 l 252 736 q 200 847 250 747 q 151 956 151 947 l 250 956 q 345 842 250 947 q 464 956 463 947 l 563 956 z "},"ż":{"ha":583,"x_min":20,"x_max":566,"o":"m 566 644 l 541 518 q 369 318 502 481 q 235 130 235 155 l 235 119 q 525 132 381 119 l 507 0 l 20 0 l 43 126 q 221 324 80 157 q 361 515 361 491 l 361 526 q 80 515 208 526 l 98 644 l 566 644 m 463 862 q 426 771 463 809 q 336 734 389 734 q 272 759 294 734 q 250 823 250 785 q 286 913 250 876 q 376 949 323 949 q 463 862 463 949 z "},"ŋ":{"ha":741,"x_min":47,"x_max":676,"o":"m 676 464 q 649 99 676 328 q 518 -215 622 -130 q 279 -300 414 -300 l 284 -171 q 424 -116 382 -171 q 487 110 465 -62 q 509 414 509 282 q 489 512 509 485 q 421 539 469 539 q 308 460 362 539 q 239 262 251 378 q 217 0 224 116 l 47 -7 q 94 468 94 345 q 83 642 94 539 l 252 659 q 256 524 256 601 l 266 524 q 500 666 345 666 q 676 464 676 666 z "},"ð":{"ha":755,"x_min":43,"x_max":699,"o":"m 689 888 q 583 842 662 877 q 699 472 699 681 q 604 130 699 285 q 328 -26 509 -26 q 116 62 189 -26 q 43 277 43 150 q 138 528 43 414 q 384 641 233 641 q 517 597 464 641 l 527 597 q 464 772 510 705 q 350 703 401 740 l 303 800 q 427 844 330 811 q 350 921 389 894 l 440 989 q 530 911 469 976 q 643 987 579 943 l 689 888 m 531 471 q 395 513 473 513 q 262 436 311 513 q 213 275 213 359 q 248 148 213 199 q 347 96 283 96 q 531 471 531 96 z "},"þ":{"ha":749,"x_min":6,"x_max":704,"o":"m 704 404 q 610 104 704 228 q 361 -20 516 -20 q 220 26 264 -20 l 212 26 q 182 -310 194 -140 l 6 -310 q 104 504 33 -132 q 130 954 130 768 l 316 964 q 293 764 316 941 q 257 524 270 587 l 265 524 q 496 666 342 666 q 650 594 597 666 q 704 404 704 523 m 533 368 q 422 539 533 539 q 300 451 357 539 q 232 262 243 363 l 218 136 q 328 105 268 105 q 482 183 431 105 q 533 368 533 262 z "},"ⁿ":{"ha":393,"x_min":15,"x_max":370,"o":"m 370 673 q 368 631 370 659 q 362 556 366 602 q 357 478 358 514 q 355 418 355 442 l 245 412 q 248 456 245 427 q 256 528 251 486 q 265 604 262 572 q 268 658 268 637 q 257 704 268 694 q 228 714 246 714 q 178 688 199 714 q 150 633 158 662 q 138 566 141 605 q 130 484 134 524 q 125 418 127 444 l 15 412 q 38 581 31 515 q 45 677 45 648 q 44 720 45 694 q 38 781 43 745 l 143 789 q 146 732 145 759 l 152 732 q 259 791 199 791 q 345 763 319 791 q 370 673 370 734 z "},"ﬀ":{"ha":837,"x_min":-3,"x_max":899,"o":"m 899 964 l 871 848 q 796 851 835 851 q 728 808 750 851 q 692 633 705 762 q 850 638 749 633 l 831 503 q 679 507 733 507 q 635 10 664 290 q 409 -310 606 -271 l 372 -214 q 451 -93 425 -174 q 495 163 476 -12 q 528 507 513 338 l 304 507 q 260 10 289 290 q 34 -310 231 -271 l -3 -214 q 76 -93 50 -174 q 120 163 101 -12 q 153 507 138 338 q 40 503 115 507 l 60 637 q 166 633 127 633 q 252 893 187 825 q 420 960 317 960 q 651 920 541 960 q 795 974 709 974 q 899 964 860 974 m 582 814 q 435 844 522 844 q 350 801 372 844 q 317 633 327 755 l 541 633 q 582 814 553 741 z "},"ﬁ":{"ha":772,"x_min":-3,"x_max":758,"o":"m 758 907 l 694 773 q 448 851 570 851 q 353 808 375 851 q 317 633 330 762 q 729 659 496 633 q 713 536 727 640 q 686 322 694 397 q 661 0 671 181 l 488 -7 q 531 322 502 81 q 549 518 541 420 q 304 507 519 507 q 260 10 289 290 q 34 -310 231 -271 l -3 -214 q 76 -93 50 -174 q 120 163 101 -12 q 153 507 138 338 q 40 503 115 507 l 60 637 q 166 633 127 633 q 257 901 186 828 q 447 974 327 974 q 758 907 631 974 z "},"ﬃ":{"ha":1147,"x_min":-3,"x_max":1133,"o":"m 582 814 q 435 844 522 844 q 350 801 372 844 q 317 633 327 755 l 541 633 q 582 814 553 741 m 1133 907 l 1069 773 q 823 851 945 851 q 728 808 750 851 q 692 633 705 762 q 1104 659 871 633 q 1088 536 1102 640 q 1061 322 1069 397 q 1036 0 1046 181 l 863 -7 q 906 322 877 81 q 924 518 916 420 q 679 507 894 507 q 635 10 664 290 q 409 -310 606 -271 l 372 -214 q 451 -93 425 -174 q 495 163 476 -12 q 528 507 513 338 l 304 507 q 260 10 289 290 q 34 -310 231 -271 l -3 -214 q 76 -93 50 -174 q 120 163 101 -12 q 153 507 138 338 q 40 503 115 507 l 60 637 q 166 633 127 633 q 252 893 187 825 q 420 960 317 960 q 651 920 541 960 q 822 974 709 974 q 1133 907 1006 974 z "},"ﬂ":{"ha":778,"x_min":-3,"x_max":762,"o":"m 762 964 q 741 786 762 930 q 706 504 721 643 q 663 2 673 190 l 488 -8 q 510 166 488 3 q 550 504 532 330 q 576 844 570 694 q 435 858 499 858 q 353 814 375 858 q 317 633 330 768 q 475 638 374 633 l 456 503 q 304 507 358 507 q 264 10 289 290 q 34 -310 239 -271 l -3 -214 q 76 -93 50 -174 q 120 163 101 -12 q 153 507 138 338 q 40 503 115 507 l 60 637 q 166 633 127 633 q 420 974 202 974 q 578 954 503 974 l 762 964 z "},"ﬄ":{"ha":1153,"x_min":-3,"x_max":1137,"o":"m 1137 964 q 1116 786 1137 930 q 1081 504 1096 643 q 1038 2 1048 190 l 863 -8 q 885 166 863 3 q 925 504 907 330 q 951 844 945 694 q 810 858 874 858 q 728 814 750 858 q 692 633 705 768 q 850 638 749 633 l 831 503 q 679 507 733 507 q 635 10 664 290 q 409 -310 606 -271 l 372 -214 q 451 -93 425 -174 q 495 163 476 -12 q 528 507 513 338 l 304 507 q 260 10 289 290 q 34 -310 231 -271 l -3 -214 q 76 -93 50 -174 q 120 163 101 -12 q 153 507 138 338 q 40 503 115 507 l 60 637 q 166 633 127 633 q 252 893 187 825 q 420 960 317 960 q 651 920 541 960 q 795 974 709 974 q 953 954 878 974 l 1137 964 m 582 814 q 435 844 522 844 q 350 801 372 844 q 317 633 327 755 l 541 633 q 582 814 553 741 z "},"&":{"ha":923,"x_min":23,"x_max":846,"o":"m 846 0 l 655 0 q 631 77 655 23 q 590 153 608 131 l 580 153 q 258 -20 439 -20 q 86 43 150 -20 q 23 204 23 106 q 237 494 23 403 l 238 504 q 142 680 142 587 q 223 840 142 782 q 410 898 303 898 q 557 851 496 898 q 619 724 619 805 q 473 526 619 595 l 471 515 q 621 372 526 482 l 631 372 q 671 517 660 415 l 833 517 q 782 412 831 489 q 695 298 733 334 l 694 289 q 787 145 728 252 q 846 0 846 38 m 538 239 q 448 350 505 286 q 321 451 391 415 q 227 366 262 424 q 191 241 191 308 q 227 143 191 180 q 327 106 262 106 q 537 229 426 106 l 538 239 m 484 699 q 399 788 484 788 q 324 760 355 788 q 293 690 293 732 q 392 566 293 615 q 484 699 484 608 z "},"`":{"ha":381,"x_min":65,"x_max":332,"o":"m 332 736 l 214 736 q 140 848 214 747 q 65 956 66 948 l 238 956 q 285 848 238 949 q 332 736 332 747 z "},"̀":{"ha":0,"x_min":-494,"x_max":-228,"o":"m -228 736 l -346 736 q -419 848 -346 747 q -494 956 -493 948 l -321 956 q -275 848 -321 949 q -228 736 -228 747 z "},"´":{"ha":381,"x_min":49,"x_max":367,"o":"m 367 956 q 267 848 367 948 q 167 736 167 747 l 49 736 q 118 848 49 747 q 187 956 187 949 l 367 956 z "},"́":{"ha":0,"x_min":-386,"x_max":-68,"o":"m -68 956 q -168 848 -68 948 q -268 736 -268 747 l -386 736 q -317 848 -386 747 q -248 956 -248 949 l -68 956 z "},"ˆ":{"ha":530,"x_min":63,"x_max":475,"o":"m 475 736 l 376 736 q 281 850 376 745 q 162 736 163 745 l 63 736 q 135 845 64 745 q 210 956 206 945 l 374 956 q 426 845 376 945 q 475 736 475 745 z "},"̂":{"ha":0,"x_min":-510,"x_max":-98,"o":"m -98 736 l -197 736 q -292 850 -197 745 q -411 736 -410 745 l -510 736 q -438 845 -509 745 q -363 956 -367 945 l -199 956 q -147 845 -197 945 q -98 736 -98 745 z "},"ˇ":{"ha":530,"x_min":76,"x_max":488,"o":"m 488 956 q 416 847 488 947 q 341 736 345 747 l 178 736 q 125 847 175 747 q 76 956 76 947 l 175 956 q 270 842 175 947 q 389 956 389 947 l 488 956 z "},"̌":{"ha":0,"x_min":-485,"x_max":-73,"o":"m -73 956 q -144 847 -73 947 q -220 736 -216 747 l -383 736 q -435 847 -386 747 q -485 956 -485 947 l -386 956 q -291 842 -386 947 q -172 956 -172 947 l -73 956 z "},"̕":{"ha":113,"x_min":-41,"x_max":161,"o":"m 161 812 q 3 560 161 667 l -41 604 q 16 732 4 659 q -25 795 -25 754 q 8 870 -25 840 q 84 901 41 901 q 141 878 122 901 q 161 812 161 855 z "},"˜":{"ha":600,"x_min":54,"x_max":559,"o":"m 559 910 q 378 778 471 778 q 301 794 344 778 q 226 810 258 810 q 106 738 168 810 l 54 789 q 235 928 142 928 q 312 913 269 928 q 387 899 355 899 q 507 961 445 899 l 559 910 z "},"̃":{"ha":0,"x_min":-550,"x_max":-45,"o":"m -45 910 q -226 778 -133 778 q -303 794 -260 778 q -378 810 -346 810 q -498 738 -436 810 l -550 789 q -369 928 -462 928 q -292 913 -335 928 q -217 899 -249 899 q -96 961 -159 899 l -45 910 z "},"¨":{"ha":567,"x_min":85,"x_max":513,"o":"m 513 866 q 482 790 513 821 q 407 758 452 758 q 334 833 334 758 q 366 908 334 878 q 441 939 397 939 q 513 866 513 939 m 262 866 q 232 790 262 821 q 156 758 201 758 q 85 832 85 758 q 116 908 85 877 q 191 939 146 939 q 262 866 262 939 z "},"̈":{"ha":0,"x_min":-513,"x_max":-85,"o":"m -85 866 q -115 790 -85 821 q -191 758 -146 758 q -263 833 -263 758 q -232 908 -263 878 q -156 939 -201 939 q -85 866 -85 939 m -335 866 q -366 790 -335 821 q -441 758 -397 758 q -513 832 -513 758 q -482 908 -513 877 q -406 939 -451 939 q -335 866 -335 939 z "},"¯":{"ha":339,"x_min":43,"x_max":376,"o":"m 376 905 l 355 787 l 43 787 l 63 905 l 376 905 z "},"̄":{"ha":0,"x_min":-473,"x_max":-140,"o":"m -140 905 l -161 787 l -473 787 l -452 905 l -140 905 z "},"˘":{"ha":530,"x_min":107,"x_max":530,"o":"m 530 948 q 299 754 449 754 q 107 948 141 754 l 205 982 q 311 865 243 865 q 433 982 375 865 l 530 948 z "},"̆":{"ha":0,"x_min":-500,"x_max":-77,"o":"m -77 948 q -308 754 -158 754 q -500 948 -466 754 l -402 982 q -296 865 -363 865 q -174 982 -232 865 l -77 948 z "},"˚":{"ha":414,"x_min":52,"x_max":374,"o":"m 374 873 q 319 747 374 795 q 201 704 269 704 q 99 741 140 704 q 52 854 52 782 q 108 978 52 931 q 225 1021 157 1021 q 328 985 286 1021 q 374 873 374 944 m 297 867 q 273 931 297 908 q 219 951 252 951 q 158 928 184 951 q 130 858 130 901 q 153 794 130 817 q 208 773 175 773 q 269 797 243 773 q 297 867 297 824 z "},"̊":{"ha":0,"x_min":-473,"x_max":-151,"o":"m -151 873 q -207 747 -151 795 q -324 703 -256 703 q -427 741 -385 703 q -473 853 -473 781 q -418 977 -473 930 q -300 1020 -368 1020 q -198 984 -239 1020 q -151 873 -151 943 m -229 867 q -252 930 -229 907 q -307 951 -274 951 q -368 927 -342 951 q -396 857 -396 901 q -372 793 -396 817 q -318 772 -351 772 q -257 796 -283 772 q -229 867 -229 823 z "},"˝":{"ha":598,"x_min":69,"x_max":545,"o":"m 302 956 q 232 844 301 941 q 161 736 162 747 l 69 736 q 103 845 70 747 q 137 956 136 942 l 302 956 m 545 956 q 474 844 544 941 q 404 736 405 747 l 312 736 q 346 845 313 747 q 380 956 378 942 l 545 956 z "},"̋":{"ha":0,"x_min":-507,"x_max":-31,"o":"m -273 956 q -344 844 -275 941 q -414 736 -414 747 l -507 736 q -473 845 -506 747 q -439 956 -440 942 l -273 956 m -31 956 q -101 844 -32 941 q -172 736 -171 747 l -264 736 q -230 845 -263 747 q -196 956 -197 942 l -31 956 z "},"˙":{"ha":357,"x_min":124,"x_max":337,"o":"m 337 862 q 300 771 337 809 q 210 734 264 734 q 146 759 169 734 q 124 823 124 785 q 161 913 124 876 q 251 949 197 949 q 337 862 337 949 z "},"̇":{"ha":0,"x_min":-386,"x_max":-173,"o":"m -173 862 q -210 771 -173 809 q -300 734 -246 734 q -363 759 -341 734 q -386 823 -386 785 q -349 913 -386 876 q -259 949 -313 949 q -173 862 -173 949 z "},"¸":{"ha":319,"x_min":66,"x_max":252,"o":"m 252 -178 q 77 -335 252 -335 l 70 -259 q 119 -239 98 -259 q 140 -193 140 -220 q 66 -112 140 -127 l 107 35 l 162 26 l 144 -47 q 252 -178 252 -85 z "},"̧":{"ha":0,"x_min":-300,"x_max":-114,"o":"m -114 -178 q -288 -335 -114 -335 l -296 -259 q -247 -239 -268 -259 q -226 -193 -226 -220 q -300 -112 -226 -127 l -258 35 l -203 26 l -221 -47 q -114 -178 -114 -85 z "},"˛":{"ha":319,"x_min":31,"x_max":292,"o":"m 292 7 q 157 -151 157 -48 q 224 -223 157 -223 q 276 -216 245 -223 l 283 -317 q 193 -330 242 -330 q 69 -290 107 -330 q 31 -183 31 -250 q 132 7 31 -85 l 292 7 z "},"̨":{"ha":0,"x_min":-345,"x_max":-85,"o":"m -85 7 q -220 -151 -220 -48 q -152 -223 -220 -223 q -100 -216 -132 -223 l -93 -317 q -184 -330 -134 -330 q -307 -290 -269 -330 q -345 -183 -345 -250 q -244 7 -345 -85 l -85 7 z "},"̦":{"ha":0,"x_min":-262,"x_max":-67,"o":"m -67 -146 q -218 -355 -67 -250 l -262 -312 q -203 -213 -209 -268 q -241 -144 -241 -187 q -212 -76 -241 -102 q -142 -49 -184 -49 q -87 -75 -106 -49 q -67 -146 -67 -100 z "},"̒":{"ha":0,"x_min":-420,"x_max":-220,"o":"m -229 838 q -259 765 -229 795 q -331 734 -289 734 q -399 765 -378 734 q -420 836 -420 796 q -264 1074 -420 987 l -220 1030 q -269 922 -254 992 q -229 838 -229 896 z "},",":{"ha":350,"x_min":-28,"x_max":271,"o":"m 271 121 q 27 -264 271 -50 l -28 -219 q 83 3 71 -117 q 45 86 45 29 q 83 185 45 145 q 174 226 121 226 q 248 195 225 226 q 271 121 271 163 m 0 -7 z "},";":{"ha":350,"x_min":-28,"x_max":304,"o":"m 271 121 q 27 -264 271 -50 l -28 -219 q 83 3 71 -117 q 45 86 45 29 q 83 185 45 145 q 174 226 121 226 q 248 195 225 226 q 271 121 271 163 m 0 -7 m 304 555 q 265 456 304 497 q 168 416 227 416 q 101 444 124 416 q 77 512 77 471 q 116 609 77 570 q 213 648 155 648 q 304 555 304 648 z "},":":{"ha":350,"x_min":37,"x_max":306,"o":"m 263 132 q 224 34 263 75 q 127 -7 186 -7 q 60 21 83 -7 q 37 90 37 49 q 76 186 37 147 q 172 226 115 226 q 263 132 263 226 m 306 555 q 267 457 306 498 q 170 416 229 416 q 103 444 126 416 q 79 513 79 472 q 118 610 79 570 q 215 649 157 649 q 306 555 306 649 z "},".":{"ha":350,"x_min":37,"x_max":263,"o":"m 263 132 q 224 34 263 75 q 127 -7 186 -7 q 60 21 83 -7 q 37 90 37 49 q 76 186 37 147 q 172 226 115 226 q 263 132 263 226 z "},"…":{"ha":1389,"x_min":85,"x_max":1112,"o":"m 1112 132 q 1073 34 1112 75 q 976 -7 1034 -7 q 908 21 932 -7 q 885 90 885 49 q 924 186 885 147 q 1021 226 963 226 q 1112 132 1112 226 m 712 132 q 673 34 712 75 q 576 -7 635 -7 q 509 21 532 -7 q 486 90 486 49 q 525 186 486 147 q 621 226 564 226 q 712 132 712 226 m 312 132 q 273 34 312 75 q 176 -7 235 -7 q 109 21 132 -7 q 85 90 85 49 q 124 186 85 147 q 221 226 163 226 q 312 132 312 226 z "},"-":{"ha":350,"x_min":26,"x_max":324,"o":"m 324 410 l 303 288 l 26 278 l 45 400 l 324 410 z "},"!":{"ha":350,"x_min":19,"x_max":316,"o":"m 316 804 q 195 364 316 685 l 129 364 q 115 701 115 572 q 233 907 115 907 q 316 804 316 907 m 246 132 q 207 34 246 75 q 110 -7 168 -7 q 42 21 66 -7 q 19 90 19 49 q 58 186 19 147 q 155 226 97 226 q 246 132 246 226 z "},"¡":{"ha":350,"x_min":21,"x_max":318,"o":"m 222 -45 q 104 -251 222 -251 q 21 -147 21 -251 q 142 292 21 -28 l 208 292 q 222 -45 222 84 m 318 567 q 279 470 318 509 q 182 431 240 431 q 91 524 91 431 q 130 623 91 582 q 227 663 170 663 q 295 635 271 663 q 318 567 318 608 z "},"?":{"ha":490,"x_min":41,"x_max":465,"o":"m 465 720 q 406 569 465 635 q 260 467 346 502 l 236 364 l 151 364 l 140 509 q 295 661 295 559 q 68 777 295 770 l 96 905 q 370 865 283 905 q 465 720 465 821 m 269 132 q 230 34 269 75 q 133 -7 191 -7 q 65 21 89 -7 q 41 90 41 49 q 81 186 41 147 q 178 226 120 226 q 269 132 269 226 z "},"¿":{"ha":490,"x_min":-20,"x_max":404,"o":"m 377 -117 l 349 -245 q 76 -205 163 -245 q -20 -60 -20 -161 q 40 92 -20 25 q 186 194 100 159 l 210 296 l 295 296 l 306 152 q 151 -1 151 102 q 377 -117 151 -109 m 404 571 q 365 474 404 513 q 268 435 326 435 q 176 528 176 435 q 215 627 176 586 q 313 667 254 667 q 381 640 357 667 q 404 571 404 612 z "},"‘":{"ha":350,"x_min":0,"x_max":340,"o":"m 340 928 q 229 706 241 826 q 269 623 269 678 q 229 524 269 564 q 138 484 190 484 q 64 514 87 484 q 41 588 41 545 q 284 977 41 762 l 340 928 m 0 964 z "},"’":{"ha":350,"x_min":0,"x_max":336,"o":"m 336 865 q 93 477 336 692 l 37 525 q 149 747 136 627 q 109 831 109 775 q 148 930 109 890 q 239 970 187 970 q 313 939 290 970 q 336 865 336 908 m 0 964 z "},"“":{"ha":701,"x_min":0,"x_max":676,"o":"m 676 928 q 565 706 578 826 q 605 623 605 678 q 566 524 605 564 q 474 484 526 484 q 400 514 423 484 q 378 588 378 545 q 621 977 378 762 l 676 928 m 336 964 m 340 928 q 229 706 241 826 q 269 623 269 678 q 229 524 269 564 q 138 484 190 484 q 64 514 87 484 q 41 588 41 545 q 284 977 41 762 l 340 928 m 0 964 z "},"”":{"ha":701,"x_min":0,"x_max":665,"o":"m 665 865 q 422 477 665 692 l 367 525 q 478 747 465 627 q 438 831 438 775 q 477 930 438 890 q 569 970 517 970 q 643 939 620 970 q 665 865 665 908 m 330 964 m 336 865 q 93 477 336 692 l 37 525 q 149 747 136 627 q 109 831 109 775 q 148 930 109 890 q 239 970 187 970 q 313 939 290 970 q 336 865 336 908 m 0 964 z "},"‚":{"ha":350,"x_min":-28,"x_max":271,"o":"m 271 121 q 27 -264 271 -50 l -28 -219 q 83 3 71 -117 q 45 86 45 29 q 83 185 45 145 q 174 226 121 226 q 248 195 225 226 q 271 121 271 163 m 0 -7 z "},"„":{"ha":701,"x_min":-28,"x_max":626,"o":"m 626 121 q 382 -264 626 -50 l 328 -219 q 439 3 427 -117 q 400 86 400 29 q 438 185 400 145 q 530 226 477 226 q 603 195 581 226 q 626 121 626 163 m 355 -7 m 271 121 q 27 -264 271 -50 l -28 -219 q 83 3 71 -117 q 45 86 45 29 q 83 185 45 145 q 174 226 121 226 q 248 195 225 226 q 271 121 271 163 m 0 -7 z "},"‹":{"ha":350,"x_min":45,"x_max":313,"o":"m 313 495 l 166 331 l 278 165 l 216 85 l 45 262 l 60 399 l 268 574 l 313 495 z "},"›":{"ha":350,"x_min":22,"x_max":289,"o":"m 289 399 l 274 262 l 67 85 l 22 165 l 169 330 l 56 495 l 118 574 l 289 399 z "},"«":{"ha":630,"x_min":45,"x_max":582,"o":"m 582 495 l 435 331 l 547 165 l 486 85 l 315 262 l 330 399 l 537 574 l 582 495 m 313 495 l 166 331 l 278 165 l 216 85 l 45 262 l 60 399 l 268 574 l 313 495 z "},"»":{"ha":630,"x_min":22,"x_max":566,"o":"m 566 399 l 551 262 l 345 85 l 300 165 l 446 330 l 334 495 l 395 574 l 566 399 m 289 399 l 274 262 l 67 85 l 22 165 l 169 330 l 56 495 l 118 574 l 289 399 z "},"/":{"ha":371,"x_min":-77,"x_max":393,"o":"m 393 987 q 220 425 389 940 q 39 -205 51 -90 l -77 -205 q 96 349 -73 -161 q 278 987 265 859 l 393 987 z "},"|":{"ha":350,"x_min":106,"x_max":243,"o":"m 243 -351 l 106 -351 q 113 319 113 175 q 106 1051 113 457 l 242 1051 q 235 381 235 526 q 243 -351 235 243 z "},"–":{"ha":694,"x_min":45,"x_max":649,"o":"m 649 400 l 636 278 l 45 278 l 58 400 l 649 400 z "},"—":{"ha":1389,"x_min":-7,"x_max":1396,"o":"m 1396 400 l 1383 278 l -7 278 l 5 400 l 1396 400 z "},"―":{"ha":1389,"x_min":58,"x_max":1321,"o":"m 1321 400 l 1309 278 l 58 278 l 70 400 l 1321 400 z "},"•":{"ha":916,"x_min":276,"x_max":671,"o":"m 671 460 q 611 286 671 359 q 450 213 551 213 q 327 266 378 213 q 276 408 276 318 q 337 583 276 509 q 498 656 397 656 q 621 603 570 656 q 671 460 671 550 z "},"·":{"ha":350,"x_min":63,"x_max":290,"o":"m 290 430 q 251 332 290 372 q 154 291 212 291 q 86 319 110 291 q 63 387 63 347 q 102 484 63 445 q 199 524 141 524 q 290 430 290 524 z "},"(":{"ha":490,"x_min":62,"x_max":496,"o":"m 496 939 q 349 775 410 871 q 202 211 202 544 q 379 -237 202 -95 l 323 -330 q 193 -223 247 -290 q 62 203 62 -63 q 162 680 62 447 q 473 1031 279 952 l 496 939 z "},")":{"ha":490,"x_min":-24,"x_max":410,"o":"m 410 499 q 311 23 410 256 q -1 -330 194 -250 l -24 -237 q 123 -67 62 -165 q 270 492 270 168 q 93 939 270 798 l 150 1031 q 280 925 226 991 q 410 499 410 766 z "},"[":{"ha":490,"x_min":49,"x_max":501,"o":"m 501 1031 l 479 888 q 311 892 363 892 l 246 319 q 197 -198 236 225 q 373 -186 244 -197 l 351 -330 l 49 -322 l 125 319 q 191 1023 139 458 l 501 1031 z "},"]":{"ha":490,"x_min":-45,"x_max":407,"o":"m 407 1024 l 331 382 q 265 -321 317 245 l -45 -330 l -24 -186 q 145 -190 94 -190 l 210 382 q 259 901 220 477 q 83 888 212 900 l 104 1031 l 407 1024 z "},"{":{"ha":490,"x_min":32,"x_max":508,"o":"m 508 926 q 298 725 298 888 q 316 616 298 692 q 335 515 335 540 q 284 404 335 454 q 171 355 233 355 l 170 345 q 250 317 211 345 q 304 214 304 281 q 259 76 304 168 q 215 -62 215 -16 q 394 -224 215 -178 l 338 -332 q 81 -132 81 -276 q 126 42 81 -72 q 172 205 172 155 q 121 274 172 248 q 32 297 82 294 l 42 398 q 210 518 210 420 q 194 642 210 549 q 178 777 178 735 q 279 962 178 892 q 490 1031 366 1023 l 508 926 z "},"}":{"ha":490,"x_min":-35,"x_max":446,"o":"m 446 400 l 435 299 q 272 178 272 282 q 286 55 272 148 q 299 -82 299 -39 q 197 -259 299 -191 q -7 -332 116 -315 l -35 -224 q 170 -32 170 -176 q 156 78 170 -1 q 142 183 142 157 q 192 294 142 246 q 305 342 241 342 l 307 352 q 227 381 267 352 q 174 487 174 420 q 213 622 174 530 q 252 760 252 713 q 90 925 252 892 l 134 1031 q 264 996 210 1021 q 395 827 395 939 q 348 653 395 771 q 301 496 301 534 q 354 426 301 453 q 446 400 394 405 z "},"*":{"ha":701,"x_min":85,"x_max":626,"o":"m 626 722 q 589 668 626 679 q 480 656 552 656 q 408 660 453 656 l 400 642 q 511 490 511 530 q 479 434 511 463 q 418 406 446 406 q 342 604 366 406 l 323 604 q 191 426 237 426 q 138 449 164 426 q 112 500 112 473 q 277 647 112 546 l 274 667 q 107 698 211 675 q 85 743 85 706 q 104 806 85 775 q 150 836 123 836 q 307 730 187 836 l 323 741 q 312 906 312 857 q 393 972 312 972 q 452 928 452 972 q 387 737 452 886 l 399 724 q 576 808 537 808 q 612 780 599 808 q 626 722 626 751 z "},"†":{"ha":490,"x_min":19,"x_max":488,"o":"m 488 639 l 467 509 q 332 513 432 511 q 194 -280 298 189 l 134 -280 q 145 27 139 -113 q 175 513 159 364 q 19 509 130 513 l 40 639 q 198 632 100 635 q 204 817 204 726 q 201 953 204 889 l 387 967 q 331 632 368 877 q 488 639 382 633 z "},"‡":{"ha":490,"x_min":-4,"x_max":496,"o":"m 496 639 l 475 509 q 340 513 388 513 q 302 352 337 486 q 466 359 348 352 l 444 224 q 313 229 361 229 q 201 -280 298 75 l 142 -280 q 149 229 139 136 q -4 224 117 229 l 18 359 q 186 352 147 352 q 182 513 181 500 q 26 509 146 513 l 47 639 q 205 632 170 632 q 208 953 218 789 l 394 967 q 338 632 375 877 q 496 639 386 632 z "},"§":{"ha":583,"x_min":3,"x_max":572,"o":"m 572 938 l 536 803 q 375 833 459 833 q 273 754 273 833 q 341 646 273 713 l 467 520 q 536 355 536 442 q 396 155 536 203 q 494 -48 494 52 q 406 -235 494 -176 q 182 -294 317 -294 q 3 -271 77 -294 l 38 -137 q 196 -168 116 -168 q 340 -88 340 -168 q 273 24 340 -47 l 147 156 q 79 316 79 240 q 120 438 79 385 q 227 514 160 492 q 122 720 122 622 q 199 894 122 830 q 389 958 275 958 q 572 938 503 958 m 395 314 q 308 441 395 360 q 246 416 271 441 q 221 354 221 391 q 311 231 221 308 q 371 255 347 231 q 395 314 395 279 z "},"¶":{"ha":930,"x_min":110,"x_max":833,"o":"m 833 953 q 774 471 821 871 q 704 -280 729 39 l 530 -280 q 615 485 547 -140 q 644 819 635 674 q 559 823 620 821 q 493 267 540 676 q 438 -336 471 66 l 319 -336 q 390 267 331 -260 q 401 383 394 307 q 110 632 110 391 q 198 864 110 772 q 428 957 286 957 q 555 955 482 957 q 660 953 627 953 l 833 953 z "},"Α":{"ha":829,"x_min":-41,"x_max":777,"o":"m 777 0 l 570 0 q 538 254 570 74 l 241 254 q 199 149 216 196 q 153 0 155 38 l -41 0 q 155 434 -39 25 q 353 883 349 844 l 596 883 q 686 444 596 806 q 777 0 777 82 m 519 383 q 448 762 448 731 l 438 762 q 284 383 435 738 l 519 383 z "},"Β":{"ha":793,"x_min":57,"x_max":739,"o":"m 739 285 q 290 -4 739 -4 q 57 0 217 -4 q 113 462 71 93 q 142 883 139 709 l 254 883 q 357 885 283 883 q 470 887 431 887 q 664 841 592 887 q 736 706 736 795 q 689 570 736 630 q 568 492 642 511 l 567 482 q 687 421 635 471 q 739 285 739 372 m 564 275 q 352 393 564 393 q 269 390 308 393 q 246 129 254 248 q 318 123 275 123 q 507 160 450 123 q 564 275 564 197 m 557 656 q 424 760 557 760 q 300 749 357 760 q 281 514 300 722 q 339 513 312 513 q 557 656 557 513 z "},"Γ":{"ha":661,"x_min":57,"x_max":682,"o":"m 682 883 l 661 734 q 302 745 465 745 q 283 488 300 693 q 241 0 266 326 l 57 0 q 115 462 71 93 q 146 883 139 692 l 682 883 z "},"Δ":{"ha":809,"x_min":-27,"x_max":764,"o":"m 764 0 l -27 0 q 162 436 -27 29 q 354 883 352 843 l 595 883 q 679 450 595 809 q 764 0 764 92 m 550 138 q 491 479 541 203 q 449 762 449 711 l 439 762 q 344 499 435 722 q 203 138 234 232 l 550 138 z "},"Ε":{"ha":699,"x_min":56,"x_max":671,"o":"m 671 883 l 650 734 q 302 745 459 745 q 284 523 297 673 q 572 530 418 523 l 557 389 q 271 395 408 395 q 248 138 256 258 q 626 149 424 138 l 604 0 l 56 0 q 113 462 71 93 q 142 883 139 709 l 671 883 z "},"Ζ":{"ha":694,"x_min":15,"x_max":674,"o":"m 674 883 l 650 743 q 409 409 568 637 q 249 148 250 180 l 248 138 q 611 153 384 138 l 591 0 l 15 0 l 39 139 q 289 474 121 239 q 458 739 456 709 l 458 750 q 103 734 304 750 l 123 883 l 674 883 z "},"Η":{"ha":881,"x_min":56,"x_max":825,"o":"m 825 883 q 772 462 812 806 q 739 0 745 202 l 550 0 q 597 389 564 106 l 273 389 q 245 0 258 241 l 56 0 q 113 462 71 102 q 142 883 138 703 l 332 883 q 286 530 318 794 l 614 530 q 635 883 631 684 l 825 883 z "},"Θ":{"ha":904,"x_min":37,"x_max":867,"o":"m 867 503 q 733 135 867 295 q 393 -24 600 -24 q 138 90 239 -24 q 37 376 37 203 q 172 744 37 585 q 511 903 307 903 q 766 790 666 903 q 867 503 867 676 m 687 490 q 628 684 687 611 q 479 756 568 756 q 289 640 359 756 q 218 392 218 524 q 277 198 218 271 q 426 125 336 125 q 616 242 545 125 q 687 490 687 359 m 583 528 l 568 382 q 448 389 517 389 q 325 382 387 389 l 340 528 q 465 522 405 522 q 583 528 531 522 z "},"Ι":{"ha":389,"x_min":57,"x_max":333,"o":"m 333 883 q 280 462 321 807 q 247 0 255 226 l 57 0 q 115 462 72 96 q 143 883 141 709 l 333 883 z "},"Κ":{"ha":800,"x_min":57,"x_max":785,"o":"m 785 883 q 648 712 785 861 q 449 519 511 562 l 448 509 q 624 260 506 477 q 743 0 743 43 l 538 0 q 445 225 538 40 q 303 411 351 411 l 275 411 q 245 0 258 256 l 57 0 q 113 462 71 93 q 142 883 139 709 l 332 883 q 288 530 319 795 l 302 530 q 457 695 330 530 q 584 883 584 861 l 785 883 z "},"Λ":{"ha":809,"x_min":-27,"x_max":764,"o":"m 764 0 l 557 0 q 503 396 557 97 q 449 762 449 695 l 439 762 q 299 391 435 722 q 167 0 167 69 l -27 0 q 163 435 -27 28 q 354 883 354 842 l 595 883 q 679 445 595 802 q 764 0 764 87 z "},"Μ":{"ha":1124,"x_min":17,"x_max":1040,"o":"m 1040 883 q 1017 400 1017 690 q 1027 0 1017 210 l 834 0 q 875 734 834 281 l 864 734 q 821 595 854 691 q 688 272 787 500 q 583 0 588 45 l 436 0 q 385 282 436 54 q 323 578 334 511 q 304 734 313 646 l 294 734 q 239 345 286 656 q 192 0 192 33 l 17 0 q 104 420 17 18 q 200 883 192 822 l 447 883 q 497 547 447 790 q 547 216 547 304 l 557 216 q 674 552 564 282 q 791 883 785 822 l 1040 883 z "},"Ν":{"ha":897,"x_min":57,"x_max":840,"o":"m 840 883 q 787 462 828 808 q 747 0 760 207 l 589 0 q 436 312 589 33 q 260 698 277 603 l 250 698 q 258 594 258 646 q 245 401 258 515 q 215 0 228 234 l 57 0 q 114 462 71 96 q 142 883 140 709 l 340 883 q 477 575 340 838 q 637 214 622 298 l 647 214 q 639 297 639 253 q 652 513 639 391 q 675 883 672 709 l 840 883 z "},"Ξ":{"ha":738,"x_min":22,"x_max":716,"o":"m 650 159 l 628 0 l 22 0 l 45 159 q 351 146 196 146 q 650 159 496 146 m 716 883 l 694 726 q 400 737 531 737 q 113 726 267 737 l 134 883 l 716 883 m 601 534 l 585 382 q 376 388 488 388 q 154 382 265 388 l 170 534 q 389 526 290 526 q 601 534 486 526 z "},"Ο":{"ha":904,"x_min":37,"x_max":867,"o":"m 867 503 q 732 134 867 293 q 393 -24 597 -24 q 138 90 239 -24 q 37 376 37 203 q 173 746 37 588 q 511 903 309 903 q 766 790 666 903 q 867 503 867 676 m 687 490 q 628 684 687 611 q 479 756 568 756 q 290 642 361 756 q 218 392 218 528 q 277 198 218 271 q 426 125 336 125 q 615 240 543 125 q 687 490 687 355 z "},"Π":{"ha":884,"x_min":57,"x_max":827,"o":"m 827 883 q 775 465 814 799 q 738 0 750 229 l 551 0 q 606 448 564 87 q 648 741 621 594 l 300 741 q 281 456 296 653 q 243 0 252 179 l 57 0 q 113 465 72 109 q 146 883 136 687 l 827 883 z "},"Ρ":{"ha":768,"x_min":57,"x_max":739,"o":"m 739 663 q 621 418 739 501 q 304 335 502 335 q 266 336 279 335 q 245 0 252 209 l 57 0 q 114 462 71 87 q 143 883 140 706 l 261 883 q 353 885 285 883 q 471 887 422 887 q 661 828 583 887 q 739 663 739 769 m 568 634 q 399 760 568 760 q 304 749 354 760 q 279 459 300 692 q 316 458 294 458 q 568 634 568 458 z "},"Σ":{"ha":703,"x_min":-32,"x_max":684,"o":"m 684 883 l 663 734 q 332 750 469 750 l 332 738 q 512 492 332 709 q 228 168 228 195 l 227 157 q 640 172 476 157 l 616 0 l -32 0 q 322 463 -26 52 l 323 473 q 77 883 77 814 l 684 883 z "},"Τ":{"ha":720,"x_min":58,"x_max":740,"o":"m 740 883 l 720 737 q 479 747 592 747 q 447 462 471 686 q 412 0 419 199 l 225 0 q 282 462 239 98 q 309 747 298 616 q 58 736 218 747 l 79 883 l 740 883 z "},"Υ":{"ha":722,"x_min":45,"x_max":758,"o":"m 758 883 q 641 690 758 854 q 472 445 525 526 q 412 297 419 363 q 396 0 397 148 l 206 0 q 245 317 245 258 q 145 638 245 414 q 45 883 45 863 l 247 883 q 304 671 247 840 q 362 443 362 503 l 372 443 q 476 663 377 489 q 574 883 574 836 l 758 883 z "},"Φ":{"ha":924,"x_min":30,"x_max":895,"o":"m 895 496 q 786 217 895 331 q 509 72 677 103 q 505 -27 505 12 l 321 -27 q 336 70 324 -9 q 112 188 195 89 q 30 419 30 287 q 139 698 30 585 q 416 842 248 812 q 418 910 418 883 l 602 910 q 591 844 600 898 q 813 727 732 824 q 895 496 895 630 m 408 726 q 250 618 303 698 q 197 423 197 538 q 351 187 197 239 q 385 462 360 252 q 408 726 397 584 m 730 503 q 574 725 730 676 q 543 462 566 662 q 517 186 530 336 q 675 303 620 216 q 730 503 730 391 z "},"Χ":{"ha":804,"x_min":-35,"x_max":802,"o":"m 802 883 q 672 695 802 865 q 509 494 543 525 l 509 484 q 643 235 546 438 q 741 0 741 31 l 524 0 q 464 176 524 27 q 380 366 404 326 l 370 366 q 254 175 336 323 q 172 0 172 26 l -35 0 q 115 228 -35 20 q 304 473 265 436 l 305 484 q 189 692 276 524 q 102 883 102 860 l 309 883 q 359 734 309 859 q 429 582 410 610 l 439 582 q 539 738 467 615 q 612 883 612 861 l 802 883 z "},"Ψ":{"ha":974,"x_min":92,"x_max":968,"o":"m 968 857 q 945 778 959 829 q 923 640 931 728 q 812 398 906 477 q 557 292 718 319 q 537 0 541 125 l 351 0 q 389 290 360 57 q 168 371 244 309 q 92 562 92 433 q 97 651 92 592 q 102 739 102 709 q 95 857 102 806 l 238 878 q 259 749 259 831 q 258 648 258 667 q 290 479 258 527 q 404 416 321 432 q 441 883 434 707 l 627 883 q 569 416 613 797 q 701 490 659 429 q 768 681 743 550 q 832 878 795 823 l 968 857 z "},"Ω":{"ha":916,"x_min":-2,"x_max":872,"o":"m 872 555 q 823 356 872 438 q 701 209 774 275 q 638 141 640 153 l 637 130 q 852 150 737 130 l 830 0 l 479 0 q 545 178 488 90 q 642 329 593 252 q 692 528 692 407 q 634 692 692 629 q 488 754 577 754 q 302 667 363 754 q 241 444 241 579 q 299 229 241 357 q 350 0 355 105 l -2 0 l 7 150 q 206 130 121 130 l 208 140 l 208 143 q 170 206 208 159 q 94 326 123 266 q 64 474 64 387 q 193 785 64 666 q 517 905 321 905 q 774 805 675 905 q 872 555 872 705 z "},"Ά":{"ha":947,"x_min":78,"x_max":895,"o":"m 895 0 l 689 0 q 656 254 689 74 l 359 254 q 317 149 335 196 q 272 0 274 38 l 78 0 q 274 434 80 25 q 472 883 468 844 l 715 883 q 805 444 715 806 q 895 0 895 82 m 637 383 q 567 762 567 731 l 557 762 q 403 383 554 738 l 637 383 m 396 1024 q 300 892 395 1009 q 204 757 205 774 l 89 757 q 149 895 90 779 q 208 1024 208 1010 l 396 1024 z "},"Έ":{"ha":939,"x_min":89,"x_max":910,"o":"m 910 883 l 889 734 q 541 745 699 745 q 524 523 536 673 q 812 530 658 523 l 796 389 q 510 395 648 395 q 487 138 496 258 q 865 149 663 138 l 844 0 l 296 0 q 353 462 310 93 q 382 883 378 709 l 910 883 m 396 1024 q 300 892 395 1009 q 204 757 205 774 l 89 757 q 149 895 90 779 q 208 1024 208 1010 l 396 1024 z "},"Ή":{"ha":1128,"x_min":89,"x_max":1072,"o":"m 1072 883 q 1019 462 1059 806 q 985 0 991 202 l 797 0 q 844 389 811 106 l 520 389 q 492 0 505 241 l 303 0 q 360 462 318 102 q 389 883 385 703 l 578 883 q 533 530 565 794 l 861 530 q 882 883 878 684 l 1072 883 m 396 1024 q 300 892 395 1009 q 204 757 205 774 l 89 757 q 149 895 90 779 q 208 1024 208 1010 l 396 1024 z "},"Ί":{"ha":626,"x_min":89,"x_max":570,"o":"m 570 883 q 517 462 557 807 q 484 0 492 226 l 294 0 q 352 462 309 96 q 380 883 378 709 l 570 883 m 396 1024 q 300 892 395 1009 q 204 757 205 774 l 89 757 q 149 895 90 779 q 208 1024 208 1010 l 396 1024 z "},"Ϊ":{"ha":389,"x_min":37,"x_max":465,"o":"m 333 883 q 280 462 321 807 q 247 0 255 226 l 57 0 q 115 462 72 96 q 143 883 141 709 l 333 883 m 465 1074 q 435 997 465 1029 q 359 966 404 966 q 287 1040 287 966 q 318 1116 287 1085 q 394 1147 349 1147 q 465 1074 465 1147 m 215 1074 q 184 997 215 1029 q 109 966 153 966 q 37 1040 37 966 q 68 1116 37 1084 q 144 1147 99 1147 q 215 1074 215 1147 z "},"Ό":{"ha":1101,"x_min":89,"x_max":1063,"o":"m 1063 503 q 929 134 1063 293 q 590 -24 794 -24 q 335 90 435 -24 q 234 376 234 203 q 370 746 234 588 q 708 903 505 903 q 963 790 863 903 q 1063 503 1063 676 m 884 490 q 824 684 884 611 q 675 756 765 756 q 486 642 557 756 q 415 392 415 528 q 474 198 415 271 q 623 125 533 125 q 812 240 740 125 q 884 490 884 355 m 396 1024 q 300 892 395 1009 q 204 757 205 774 l 89 757 q 149 895 90 779 q 208 1024 208 1010 l 396 1024 z "},"Ύ":{"ha":1009,"x_min":89,"x_max":1044,"o":"m 1044 883 q 928 690 1044 854 q 759 445 812 526 q 699 297 706 363 q 683 0 684 148 l 493 0 q 532 317 532 258 q 432 638 532 414 q 332 883 332 863 l 534 883 q 591 671 534 840 q 649 443 649 503 l 659 443 q 763 663 664 489 q 861 883 861 836 l 1044 883 m 396 1024 q 300 892 395 1009 q 204 757 205 774 l 89 757 q 149 895 90 779 q 208 1024 208 1010 l 396 1024 z "},"Ϋ":{"ha":722,"x_min":45,"x_max":758,"o":"m 758 883 q 641 690 758 854 q 472 445 525 526 q 412 297 419 363 q 396 0 397 148 l 206 0 q 245 317 245 258 q 145 638 245 414 q 45 883 45 863 l 247 883 q 304 671 247 840 q 362 443 362 503 l 372 443 q 476 663 377 489 q 574 883 574 836 l 758 883 m 625 1074 q 595 997 625 1029 q 519 966 564 966 q 447 1040 447 966 q 478 1116 447 1085 q 554 1147 509 1147 q 625 1074 625 1147 m 375 1074 q 344 997 375 1029 q 269 966 313 966 q 197 1040 197 966 q 228 1116 197 1084 q 304 1147 259 1147 q 375 1074 375 1147 z "},"Ώ":{"ha":1124,"x_min":89,"x_max":1080,"o":"m 396 1024 q 300 892 395 1009 q 204 757 205 774 l 89 757 q 149 895 90 779 q 208 1024 208 1010 l 396 1024 m 1080 555 q 1031 356 1080 438 q 909 209 983 275 q 846 141 848 153 l 845 130 q 1061 150 945 130 l 1038 0 l 687 0 q 753 178 696 90 q 850 329 801 252 q 900 528 900 407 q 843 692 900 629 q 696 754 785 754 q 510 667 572 754 q 449 444 449 579 q 507 229 449 357 q 558 0 564 105 l 206 0 l 216 150 q 414 130 329 130 l 416 140 l 416 143 q 378 206 416 159 q 302 326 331 266 q 273 474 273 387 q 401 785 273 666 q 725 905 529 905 q 982 805 884 905 q 1080 555 1080 705 z "},"α":{"ha":793,"x_min":50,"x_max":753,"o":"m 753 150 l 730 30 q 609 -14 677 -14 q 527 18 556 -14 q 491 143 498 49 l 483 143 q 244 -24 363 -24 q 50 249 50 -24 q 129 543 50 419 q 358 667 208 667 q 474 610 435 667 q 532 409 513 553 l 541 409 q 590 555 569 477 q 610 658 610 633 l 751 637 q 691 478 751 608 q 574 252 631 348 q 603 141 582 168 q 659 115 623 115 q 753 150 690 115 m 468 270 q 347 541 434 541 q 246 457 277 541 q 216 269 216 373 q 296 105 216 105 q 468 270 368 105 z "},"β":{"ha":716,"x_min":50,"x_max":688,"o":"m 688 804 q 637 664 688 728 q 525 579 592 609 l 524 569 q 662 328 662 501 q 562 81 662 178 q 311 -16 461 -16 q 111 66 173 -16 q 50 347 50 148 q 160 789 50 598 q 482 979 271 979 q 628 933 567 979 q 688 804 688 888 m 497 337 q 417 522 497 461 q 224 467 363 500 q 214 318 214 375 q 243 157 214 204 q 337 111 271 111 q 458 178 418 111 q 497 337 497 245 m 531 779 q 441 862 531 862 q 317 789 373 862 q 237 566 261 717 q 424 625 317 570 q 531 779 531 680 z "},"γ":{"ha":673,"x_min":23,"x_max":647,"o":"m 647 566 q 574 350 647 486 q 440 135 532 272 q 338 -34 349 -3 q 302 -299 338 -193 l 155 -324 q 148 -224 149 -284 q 209 0 149 -126 q 23 594 209 387 l 184 659 q 281 470 240 606 q 322 132 322 335 l 331 132 q 420 323 376 228 q 499 637 499 503 l 627 659 q 647 566 647 621 z "},"δ":{"ha":728,"x_min":43,"x_max":725,"o":"m 725 898 l 680 762 q 401 863 519 863 q 332 812 332 863 q 423 712 332 788 q 593 551 543 613 q 685 325 685 438 q 585 71 685 168 q 323 -26 484 -26 q 120 44 197 -26 q 43 237 43 115 q 149 490 43 384 q 313 597 220 560 l 314 607 q 218 707 237 683 q 182 810 182 756 q 416 983 182 983 q 725 898 587 983 m 515 304 q 390 535 515 433 q 214 254 214 462 q 349 98 214 98 q 472 159 429 98 q 515 304 515 221 z "},"ε":{"ha":607,"x_min":48,"x_max":585,"o":"m 585 648 l 552 525 q 378 549 473 549 q 252 464 252 549 q 401 391 252 391 q 496 397 442 391 l 470 278 q 391 284 427 284 q 214 182 214 284 q 338 104 214 104 q 559 164 424 104 l 538 39 q 298 -18 431 -18 q 48 149 48 -18 q 89 266 48 220 q 202 323 130 311 l 203 334 q 91 471 91 374 q 176 619 91 573 q 374 665 261 665 q 585 648 500 665 z "},"ζ":{"ha":559,"x_min":43,"x_max":595,"o":"m 595 857 q 353 650 494 809 q 212 281 212 492 q 248 180 212 212 q 351 138 275 155 q 530 -30 530 95 q 416 -249 530 -155 l 351 -223 q 381 -96 381 -146 q 261 -1 381 -28 q 43 258 43 50 q 153 576 43 420 q 399 805 250 713 l 401 816 q 180 800 307 800 l 211 941 q 583 970 441 941 l 595 857 z "},"η":{"ha":738,"x_min":47,"x_max":673,"o":"m 673 483 q 652 298 673 425 q 628 142 631 172 q 604 -292 604 -84 l 439 -316 q 463 79 439 -154 q 485 230 466 105 q 505 421 505 355 q 423 528 505 528 q 309 454 356 528 q 249 283 261 380 q 219 -3 232 149 l 47 3 q 109 403 109 264 q 59 612 109 524 l 212 660 q 241 605 224 642 q 260 508 257 568 l 265 508 q 492 665 349 665 q 673 483 673 665 z "},"θ":{"ha":768,"x_min":31,"x_max":726,"o":"m 726 575 q 622 149 726 321 q 314 -24 517 -24 q 138 32 189 -24 q 74 210 87 88 q 31 359 66 284 l 164 390 q 195 357 181 376 q 235 240 227 310 q 268 131 244 163 q 345 99 292 99 q 486 199 434 99 q 551 437 537 298 q 365 414 475 414 q 164 487 238 414 q 90 675 90 559 q 178 893 90 818 q 413 968 266 968 q 645 852 564 968 q 726 575 726 735 m 562 583 q 511 782 562 715 q 396 848 460 848 q 289 806 327 848 q 252 696 252 763 q 291 574 252 618 q 394 531 331 531 q 561 547 493 531 q 562 583 562 570 z "},"ι":{"ha":364,"x_min":56,"x_max":345,"o":"m 345 141 l 321 26 q 182 -14 260 -14 q 87 20 117 -14 q 56 159 56 55 q 115 644 56 317 l 271 659 q 213 204 213 363 q 223 135 213 153 q 267 116 233 116 q 345 141 294 116 z "},"κ":{"ha":780,"x_min":31,"x_max":758,"o":"m 758 149 l 741 27 q 593 -14 681 -14 q 479 28 527 -14 q 432 164 432 70 q 489 342 432 250 l 479 349 q 323 168 473 340 q 182 -16 184 9 l 31 12 q 79 84 31 22 q 174 239 136 159 q 212 416 212 319 q 146 537 212 537 q 77 513 111 537 l 94 635 q 210 665 130 665 q 310 620 269 665 q 351 481 351 575 q 296 291 351 391 l 305 284 q 452 469 309 291 q 585 659 583 630 l 739 631 q 694 557 738 615 q 606 414 640 486 q 572 247 572 342 q 661 114 572 114 q 758 149 701 114 z "},"λ":{"ha":651,"x_min":-13,"x_max":643,"o":"m 643 45 l 473 -24 q 431 63 449 8 q 377 446 386 194 l 368 446 q 268 233 367 408 q 163 -7 170 58 l -13 7 q 175 319 -7 64 q 371 610 357 575 q 336 771 371 730 q 234 811 302 811 q 142 789 186 811 l 172 930 q 296 960 227 960 q 441 898 399 960 q 484 661 484 837 q 643 45 484 194 z "},"μ":{"ha":768,"x_min":14,"x_max":747,"o":"m 747 140 l 724 26 q 583 -14 663 -14 q 494 20 517 -14 q 471 123 471 55 l 460 123 q 277 -17 390 -17 q 191 24 224 -17 q 151 121 157 66 l 142 121 q 134 -9 134 40 q 200 -279 134 -163 l 45 -327 q 14 -205 14 -281 q 40 1 14 -134 q 70 179 65 136 q 93 647 93 399 l 277 659 q 237 277 237 452 q 326 112 237 112 q 422 184 380 112 q 478 363 465 256 q 497 643 490 463 l 677 659 q 630 326 663 582 q 621 201 621 242 q 663 115 621 115 q 747 140 696 115 z "},"ν":{"ha":650,"x_min":23,"x_max":624,"o":"m 624 544 q 567 323 624 424 q 423 123 509 223 q 330 -1 337 23 l 204 -1 q 144 368 204 191 q 23 619 83 545 l 198 662 q 282 460 242 614 q 321 147 321 307 l 330 147 q 469 637 469 354 l 594 659 q 624 544 624 614 z "},"ξ":{"ha":570,"x_min":43,"x_max":591,"o":"m 591 857 q 298 647 298 775 q 326 592 298 604 q 418 581 354 581 q 526 587 463 581 l 495 436 q 404 445 450 445 q 267 394 322 445 q 211 262 211 344 q 248 177 211 206 q 353 134 278 153 q 533 -33 533 90 q 495 -163 533 -102 q 418 -249 456 -224 l 353 -223 q 384 -100 384 -159 q 264 -1 384 -31 q 115 64 165 24 q 43 224 43 121 q 101 385 43 313 q 251 477 159 456 l 252 488 q 140 615 140 531 q 199 735 140 685 q 345 809 259 785 l 346 819 q 138 803 233 803 l 168 944 q 579 973 419 944 l 591 857 z "},"ο":{"ha":743,"x_min":43,"x_max":700,"o":"m 700 372 q 594 90 700 206 q 323 -26 489 -26 q 125 58 208 -26 q 43 281 43 142 q 149 560 43 446 q 420 674 254 674 q 618 592 536 674 q 700 372 700 511 m 528 357 q 492 495 528 441 q 393 549 456 549 q 263 468 313 549 q 214 290 214 387 q 250 152 214 206 q 350 98 287 98 q 480 178 432 98 q 528 357 528 258 z "},"π":{"ha":831,"x_min":38,"x_max":813,"o":"m 813 652 l 793 507 q 638 511 713 511 q 609 233 609 361 q 668 115 609 115 q 755 141 708 115 l 732 26 q 606 -14 682 -14 q 448 172 448 -14 q 511 502 448 323 l 512 511 l 355 511 q 231 -7 292 112 l 60 7 q 126 144 96 71 q 228 511 197 321 l 171 511 q 38 481 119 511 l 54 559 q 279 644 125 644 q 813 652 612 644 z "},"ρ":{"ha":701,"x_min":9,"x_max":659,"o":"m 659 374 q 571 102 659 225 q 341 -20 484 -20 q 188 96 222 -20 l 180 96 q 176 -64 176 27 q 195 -294 176 -188 l 34 -323 q 9 -168 9 -286 q 102 521 9 368 q 393 674 195 674 q 591 588 524 674 q 659 374 659 503 m 488 361 q 361 547 488 547 q 193 259 218 547 q 332 106 233 106 q 450 187 412 106 q 488 361 488 269 z "},"σ":{"ha":743,"x_min":43,"x_max":739,"o":"m 739 666 l 718 553 q 572 516 652 516 l 571 503 q 651 301 651 433 q 552 66 651 159 q 303 -26 453 -26 q 114 52 186 -26 q 43 273 43 130 q 142 543 43 437 q 408 648 241 648 q 739 666 635 648 m 496 340 q 446 519 496 446 q 391 526 417 526 q 256 453 298 526 q 213 282 213 380 q 334 100 213 100 q 456 175 416 100 q 496 340 496 250 z "},"ς":{"ha":571,"x_min":43,"x_max":557,"o":"m 557 654 l 520 514 q 394 536 467 536 q 252 471 302 536 q 202 311 202 406 q 324 141 202 197 q 455 57 418 98 q 492 -43 492 15 q 458 -164 492 -105 q 369 -249 424 -222 l 311 -223 q 344 -107 344 -158 q 235 3 344 -49 q 43 292 43 93 q 143 563 43 463 q 416 664 243 664 q 557 654 499 664 z "},"τ":{"ha":668,"x_min":38,"x_max":650,"o":"m 650 652 l 630 509 q 394 511 541 511 q 366 240 366 321 q 427 115 366 115 q 546 141 484 115 l 522 26 q 353 -14 458 -14 q 243 21 281 -14 q 205 163 205 57 q 266 502 205 339 l 267 511 l 176 511 q 38 481 106 511 l 52 559 q 257 644 114 644 q 650 652 492 644 z "},"υ":{"ha":732,"x_min":54,"x_max":685,"o":"m 685 433 q 584 118 685 259 q 314 -22 482 -22 q 139 30 200 -22 q 78 211 78 81 q 90 330 78 251 q 102 448 102 410 q 54 631 102 550 l 231 659 q 273 501 273 590 q 261 385 273 463 q 250 269 250 307 q 274 144 250 178 q 347 111 298 111 q 479 223 439 111 q 519 487 519 336 q 503 641 519 572 l 588 659 q 685 433 685 576 z "},"φ":{"ha":1004,"x_min":43,"x_max":961,"o":"m 961 433 q 837 131 961 258 q 536 -20 713 3 q 467 -332 522 -238 l 341 -326 q 368 -186 353 -281 q 384 -20 382 -91 q 137 65 231 -10 q 43 282 43 140 q 133 541 43 437 q 376 677 222 645 l 403 578 q 213 291 213 512 q 256 156 213 201 q 392 100 299 111 q 407 340 395 176 q 702 674 442 674 q 896 608 831 674 q 961 433 961 541 m 790 420 q 689 549 790 549 q 597 505 630 549 q 552 341 565 462 q 539 100 543 256 q 723 211 656 123 q 790 420 790 298 z "},"χ":{"ha":681,"x_min":-47,"x_max":673,"o":"m 673 644 q 395 178 661 525 q 501 -97 464 -34 q 576 -159 538 -159 q 646 -140 608 -159 l 616 -296 q 503 -328 569 -328 q 400 -240 446 -328 q 307 63 355 -153 l 296 63 q 190 -138 252 -19 q 120 -323 127 -258 l -47 -310 q 256 214 -36 -198 q 169 452 199 406 q 87 498 140 498 q 37 486 67 498 l 67 640 q 153 663 101 663 q 259 593 220 663 q 342 319 298 524 l 350 319 q 509 659 503 579 l 673 644 z "},"ψ":{"ha":954,"x_min":57,"x_max":905,"o":"m 905 421 q 800 130 905 243 q 507 -5 694 17 q 481 -296 490 -176 l 323 -323 q 361 -8 331 -262 q 130 67 202 1 q 57 264 57 133 q 71 387 57 299 q 85 525 85 474 q 70 630 85 580 l 208 658 q 243 479 243 589 q 233 387 243 448 q 222 294 222 326 q 256 162 222 206 q 374 107 289 119 l 403 360 q 471 955 441 719 l 593 965 q 543 360 569 637 q 518 109 534 274 q 745 499 745 150 q 730 642 745 570 l 831 662 q 905 421 905 570 z "},"ω":{"ha":993,"x_min":43,"x_max":950,"o":"m 950 347 q 868 82 950 186 q 634 -22 786 -22 q 517 14 554 -22 q 464 119 481 50 l 450 119 q 374 21 425 64 q 256 -22 323 -22 q 43 237 43 -22 q 100 474 43 364 q 254 662 157 585 l 345 613 q 220 281 220 467 q 315 111 220 111 q 429 205 381 111 l 430 218 q 424 329 424 278 q 439 464 424 391 q 480 568 454 536 l 566 574 q 587 435 587 516 q 548 218 587 298 l 547 205 q 634 111 568 111 q 743 184 703 111 q 783 365 783 258 q 761 506 783 449 q 710 600 739 562 l 805 655 q 950 347 950 526 z "},"ά":{"ha":793,"x_min":50,"x_max":753,"o":"m 753 150 l 730 30 q 609 -14 677 -14 q 527 18 556 -14 q 491 143 498 49 l 483 143 q 244 -24 363 -24 q 50 249 50 -24 q 129 543 50 419 q 358 667 208 667 q 474 610 435 667 q 532 409 513 553 l 541 409 q 590 555 569 477 q 610 658 610 633 l 751 637 q 691 478 751 608 q 574 252 631 348 q 603 141 582 168 q 659 115 623 115 q 753 150 690 115 m 468 270 q 347 541 434 541 q 246 457 277 541 q 216 269 216 373 q 296 105 216 105 q 468 270 368 105 m 627 1024 q 531 892 627 1009 q 435 757 436 774 l 320 757 q 380 895 321 779 q 439 1024 439 1010 l 627 1024 z "},"έ":{"ha":607,"x_min":48,"x_max":636,"o":"m 585 648 l 552 525 q 378 549 473 549 q 252 464 252 549 q 401 391 252 391 q 496 397 442 391 l 470 278 q 391 284 427 284 q 214 182 214 284 q 338 104 214 104 q 559 164 424 104 l 538 39 q 298 -18 431 -18 q 48 149 48 -18 q 89 266 48 220 q 202 323 130 311 l 203 334 q 91 471 91 374 q 176 619 91 573 q 374 665 261 665 q 585 648 500 665 m 636 1024 q 540 892 635 1009 q 444 757 445 774 l 329 757 q 389 895 330 779 q 448 1024 448 1010 l 636 1024 z "},"ή":{"ha":738,"x_min":47,"x_max":694,"o":"m 673 483 q 652 298 673 425 q 628 142 631 172 q 604 -292 604 -84 l 439 -316 q 463 79 439 -154 q 485 230 466 105 q 505 421 505 355 q 423 528 505 528 q 309 454 356 528 q 249 283 261 380 q 219 -3 232 149 l 47 3 q 109 403 109 264 q 59 612 109 524 l 212 660 q 241 605 224 642 q 260 508 257 568 l 265 508 q 492 665 349 665 q 673 483 673 665 m 694 1024 q 598 892 693 1009 q 502 757 503 774 l 387 757 q 447 895 388 779 q 506 1024 505 1010 l 694 1024 z "},"ί":{"ha":364,"x_min":56,"x_max":444,"o":"m 345 141 l 321 26 q 182 -14 260 -14 q 87 20 117 -14 q 56 159 56 55 q 115 644 56 317 l 271 659 q 213 204 213 363 q 223 135 213 153 q 267 116 233 116 q 345 141 294 116 m 444 1024 q 348 892 443 1009 q 252 757 252 774 l 136 757 q 196 895 138 779 q 256 1024 255 1010 l 444 1024 z "},"ϊ":{"ha":364,"x_min":20,"x_max":427,"o":"m 427 866 q 397 790 427 821 q 321 758 366 758 q 249 833 249 758 q 280 908 249 878 q 356 939 311 939 q 427 866 427 939 m 197 866 q 166 790 197 821 q 91 758 136 758 q 20 832 20 758 q 51 908 20 877 q 126 939 81 939 q 197 866 197 939 m 345 141 l 321 26 q 182 -14 260 -14 q 87 20 117 -14 q 56 159 56 55 q 115 644 56 317 l 271 659 q 213 204 213 363 q 223 135 213 153 q 267 116 233 116 q 345 141 294 116 z "},"ΐ":{"ha":364,"x_min":-41,"x_max":479,"o":"m 345 141 l 321 26 q 182 -14 260 -14 q 87 20 117 -14 q 56 159 56 55 q 115 644 56 317 l 271 659 q 213 204 213 363 q 223 135 213 153 q 267 116 233 116 q 345 141 294 116 m 462 1118 q 362 985 461 1103 q 263 850 264 868 l 161 850 q 218 988 163 873 q 274 1118 273 1103 l 462 1118 m 479 863 q 448 786 479 818 q 373 755 418 755 q 301 829 301 755 q 332 905 301 873 q 408 936 363 936 q 479 863 479 936 m 136 863 q 105 786 136 818 q 30 755 75 755 q -41 829 -41 755 q -11 905 -41 873 q 65 936 20 936 q 136 863 136 936 z "},"ό":{"ha":743,"x_min":43,"x_max":700,"o":"m 700 372 q 594 90 700 206 q 323 -26 489 -26 q 125 58 208 -26 q 43 281 43 142 q 149 560 43 446 q 420 674 254 674 q 618 592 536 674 q 700 372 700 511 m 528 357 q 492 495 528 441 q 393 549 456 549 q 263 468 313 549 q 214 290 214 387 q 250 152 214 206 q 350 98 287 98 q 480 178 432 98 q 528 357 528 258 m 674 1024 q 578 892 673 1009 q 482 757 483 774 l 367 757 q 427 895 368 779 q 486 1024 486 1010 l 674 1024 z "},"ύ":{"ha":732,"x_min":54,"x_max":685,"o":"m 685 433 q 584 118 685 259 q 314 -22 482 -22 q 139 30 200 -22 q 78 211 78 81 q 90 330 78 251 q 102 448 102 410 q 54 631 102 550 l 231 659 q 273 501 273 590 q 261 385 273 463 q 250 269 250 307 q 274 144 250 178 q 347 111 298 111 q 479 223 439 111 q 519 487 519 336 q 503 641 519 572 l 588 659 q 685 433 685 576 m 635 1024 q 539 892 635 1009 q 444 757 444 774 l 328 757 q 388 895 330 779 q 448 1024 447 1010 l 635 1024 z "},"ϋ":{"ha":732,"x_min":54,"x_max":685,"o":"m 685 433 q 584 118 685 259 q 314 -22 482 -22 q 139 30 200 -22 q 78 211 78 81 q 90 330 78 251 q 102 448 102 410 q 54 631 102 550 l 231 659 q 273 501 273 590 q 261 385 273 463 q 250 269 250 307 q 274 144 250 178 q 347 111 298 111 q 479 223 439 111 q 519 487 519 336 q 503 641 519 572 l 588 659 q 685 433 685 576 m 621 866 q 591 790 621 821 q 515 758 560 758 q 443 833 443 758 q 474 908 443 878 q 550 939 505 939 q 621 866 621 939 m 371 866 q 340 790 371 821 q 264 758 309 758 q 193 832 193 758 q 224 908 193 877 q 300 939 255 939 q 371 866 371 939 z "},"ΰ":{"ha":732,"x_min":54,"x_max":685,"o":"m 685 433 q 584 118 685 259 q 314 -22 482 -22 q 139 30 200 -22 q 78 211 78 81 q 90 330 78 251 q 102 448 102 410 q 54 631 102 550 l 231 659 q 273 501 273 590 q 261 385 273 463 q 250 269 250 307 q 274 144 250 178 q 347 111 298 111 q 479 223 439 111 q 519 487 519 336 q 503 641 519 572 l 588 659 q 685 433 685 576 m 643 1118 q 544 985 642 1103 q 444 850 445 868 l 342 850 q 399 988 344 873 q 455 1118 454 1103 l 643 1118 m 660 863 q 629 786 660 818 q 554 755 599 755 q 482 829 482 755 q 513 905 482 873 q 589 936 545 936 q 660 863 660 936 m 317 863 q 287 786 317 818 q 211 755 256 755 q 140 829 140 755 q 171 905 140 873 q 246 936 201 936 q 317 863 317 936 z "},"ώ":{"ha":993,"x_min":43,"x_max":950,"o":"m 950 347 q 868 82 950 186 q 634 -22 786 -22 q 517 14 554 -22 q 464 119 481 50 l 450 119 q 374 21 425 64 q 256 -22 323 -22 q 43 237 43 -22 q 100 474 43 364 q 254 662 157 585 l 345 613 q 220 281 220 467 q 315 111 220 111 q 429 205 381 111 l 430 218 q 424 329 424 278 q 439 464 424 391 q 480 568 454 536 l 566 574 q 587 435 587 516 q 548 218 587 298 l 547 205 q 634 111 568 111 q 743 184 703 111 q 783 365 783 258 q 761 506 783 449 q 710 600 739 562 l 805 655 q 950 347 950 526 m 786 1024 q 690 892 785 1009 q 594 757 595 774 l 479 757 q 539 895 480 779 q 598 1024 597 1010 l 786 1024 z "},"΄":{"ha":381,"x_min":89,"x_max":396,"o":"m 396 1024 q 300 892 395 1009 q 204 757 205 774 l 89 757 q 149 895 90 779 q 208 1024 208 1010 l 396 1024 z "},"΅":{"ha":567,"x_min":68,"x_max":588,"o":"m 571 1118 q 472 985 570 1103 q 372 850 373 868 l 271 850 q 327 988 272 873 q 383 1118 382 1103 l 571 1118 m 588 863 q 557 786 588 818 q 482 755 527 755 q 410 829 410 755 q 441 905 410 873 q 517 936 473 936 q 588 863 588 936 m 245 863 q 215 786 245 818 q 139 755 184 755 q 68 829 68 755 q 99 905 68 873 q 174 936 130 936 q 245 863 245 936 z "},"̈́":{"ha":0,"x_min":-399,"x_max":121,"o":"m 104 1118 q 5 985 104 1103 q -94 850 -94 868 l -196 850 q -139 988 -195 873 q -83 1118 -84 1103 l 104 1118 m 121 863 q 91 786 121 818 q 16 755 60 755 q -56 829 -56 755 q -25 905 -56 873 q 51 936 6 936 q 121 863 121 936 m -221 863 q -252 786 -221 818 q -328 755 -283 755 q -399 829 -399 755 q -368 905 -399 873 q -292 936 -337 936 q -221 863 -221 936 z "},"·":{"ha":339,"x_min":74,"x_max":300,"o":"m 300 559 q 262 460 300 501 q 165 420 223 420 q 97 448 121 420 q 74 516 74 475 q 113 613 74 574 q 210 652 152 652 q 300 559 300 652 z "},";":{"ha":341,"x_min":-28,"x_max":304,"o":"m 304 555 q 265 456 304 497 q 168 416 227 416 q 101 444 124 416 q 77 512 77 471 q 116 609 77 570 q 213 648 155 648 q 304 555 304 648 m 271 121 q 27 -264 271 -50 l -28 -219 q 83 3 71 -117 q 45 86 45 29 q 83 185 45 145 q 174 226 121 226 q 248 195 225 226 q 271 121 271 163 m 0 -7 z "},"ʹ":{"ha":321,"x_min":0,"x_max":321,"o":"m 321 956 q 218 848 320 941 q 115 736 116 754 l 0 736 q 67 850 1 759 q 133 956 132 942 l 321 956 z "},"͵":{"ha":321,"x_min":0,"x_max":321,"o":"m 321 -68 q 254 -182 319 -90 q 188 -288 189 -273 l 0 -288 q 103 -179 1 -273 q 205 -68 205 -85 l 321 -68 z "},"А":{"ha":825,"x_min":-41,"x_max":777,"o":"m 777 0 l 570 0 q 538 254 570 74 l 241 254 q 199 149 216 196 q 153 0 155 38 l -41 0 q 155 434 -39 25 q 353 883 349 844 l 596 883 q 686 444 596 806 q 777 0 777 82 m 519 383 q 448 762 448 731 l 438 762 q 284 383 435 738 l 519 383 z "},"Б":{"ha":799,"x_min":57,"x_max":738,"o":"m 738 883 l 718 734 q 298 745 478 745 q 282 524 297 700 q 380 527 335 527 q 631 470 530 527 q 732 287 732 412 q 283 -4 732 -4 q 57 0 210 -4 q 114 462 71 94 q 142 883 142 733 l 738 883 m 557 275 q 345 393 557 393 q 269 390 301 393 q 246 129 254 248 q 311 123 268 123 q 502 161 446 123 q 557 275 557 198 z "},"В":{"ha":793,"x_min":57,"x_max":739,"o":"m 739 285 q 290 -4 739 -4 q 57 0 217 -4 q 113 462 71 93 q 142 883 139 709 l 254 883 q 357 885 283 883 q 470 887 431 887 q 664 841 592 887 q 736 706 736 795 q 689 570 736 630 q 568 492 642 511 l 567 482 q 687 421 635 471 q 739 285 739 372 m 564 275 q 352 393 564 393 q 269 390 308 393 q 246 129 254 248 q 318 123 275 123 q 507 160 450 123 q 564 275 564 197 m 557 656 q 424 760 557 760 q 300 749 357 760 q 281 514 300 722 q 339 513 312 513 q 557 656 557 513 z "},"Г":{"ha":665,"x_min":57,"x_max":685,"o":"m 685 883 l 665 732 q 298 742 458 742 q 273 419 294 666 q 239 0 243 137 l 57 0 q 111 439 69 83 q 142 883 142 736 l 685 883 z "},"Д":{"ha":891,"x_min":-49,"x_max":846,"o":"m 846 138 q 808 -53 843 104 q 766 -281 773 -210 l 637 -281 q 666 5 646 -195 q 393 12 560 12 q 140 5 252 12 q 75 -281 112 -94 l -49 -281 q -29 -70 -42 -216 q -9 138 -16 75 l 56 138 q 416 883 214 520 l 789 883 q 743 481 778 793 q 723 138 723 294 l 846 138 m 602 749 l 495 749 q 215 138 298 386 l 548 138 q 574 453 553 224 q 602 749 593 632 z "},"Е":{"ha":699,"x_min":56,"x_max":671,"o":"m 671 883 l 650 734 q 302 745 459 745 q 284 523 297 673 q 572 530 418 523 l 557 389 q 271 395 408 395 q 248 138 256 258 q 626 149 424 138 l 604 0 l 56 0 q 113 462 71 93 q 142 883 139 709 l 671 883 z "},"Ж":{"ha":1133,"x_min":-15,"x_max":1116,"o":"m 1116 883 q 1083 809 1105 862 q 967 578 1023 650 q 825 469 911 505 l 825 461 q 946 359 905 433 q 1034 75 987 286 q 1054 0 1040 46 l 857 0 q 844 46 852 10 q 775 315 816 245 q 655 384 735 384 q 640 381 648 384 q 615 35 621 206 l 614 0 l 433 0 q 479 381 445 85 q 460 384 467 384 q 327 318 380 384 q 202 46 275 252 q 180 0 194 23 l -15 0 q 21 75 -3 22 q 170 364 116 296 q 312 461 223 432 l 313 469 q 193 575 233 506 q 126 809 153 644 q 109 883 121 839 l 284 883 q 295 841 289 875 q 480 516 317 516 q 494 517 486 516 q 518 883 512 694 l 700 883 q 654 517 686 789 q 666 516 661 516 q 918 841 827 516 q 937 883 924 865 l 1116 883 z "},"З":{"ha":735,"x_min":13,"x_max":687,"o":"m 687 707 q 637 571 687 631 q 512 489 588 511 l 511 479 q 628 415 580 467 q 676 278 676 363 q 564 52 676 129 q 264 -24 452 -24 q 13 18 123 -24 l 47 170 q 279 116 156 116 q 501 262 501 116 q 264 384 501 384 q 153 381 216 384 l 185 522 q 298 518 244 518 q 509 659 509 518 q 469 733 509 707 q 366 760 430 760 q 127 720 231 760 l 161 863 q 429 898 271 898 q 616 848 546 898 q 687 707 687 798 z "},"И":{"ha":909,"x_min":57,"x_max":852,"o":"m 852 883 q 794 419 837 782 q 766 0 769 180 l 577 0 q 622 338 587 47 q 660 600 631 430 l 650 600 q 399 284 614 521 q 197 0 204 69 l 57 0 q 111 419 71 81 q 142 883 137 663 l 331 883 q 283 511 318 804 q 247 283 273 421 l 257 283 q 510 597 294 361 q 712 883 705 810 l 852 883 z "},"Й":{"ha":909,"x_min":57,"x_max":852,"o":"m 852 883 q 794 419 837 782 q 766 0 769 180 l 577 0 q 622 338 587 47 q 660 600 631 430 l 650 600 q 399 284 614 521 q 197 0 204 69 l 57 0 q 111 419 71 81 q 142 883 137 663 l 331 883 q 283 511 318 804 q 247 283 273 421 l 257 283 q 510 597 294 361 q 712 883 705 810 l 852 883 m 851 1124 q 530 920 718 920 q 286 1109 317 920 l 444 1149 q 572 1017 470 1017 q 779 1166 668 1017 l 851 1124 z "},"К":{"ha":800,"x_min":57,"x_max":784,"o":"m 784 883 q 751 809 774 862 q 635 578 692 650 q 493 469 579 505 l 492 461 q 614 360 574 433 q 702 75 655 288 q 722 0 708 46 l 524 0 q 511 46 519 10 q 440 319 481 254 q 314 384 399 384 q 271 381 290 384 q 247 35 253 206 l 245 0 l 57 0 q 114 462 71 93 q 143 883 140 709 l 332 883 q 286 517 318 789 q 324 516 312 516 q 584 841 494 516 q 604 883 591 865 l 784 883 z "},"Л":{"ha":826,"x_min":-21,"x_max":770,"o":"m 770 883 q 726 471 750 703 q 690 0 699 214 l 503 0 q 559 453 532 195 q 586 749 578 632 l 485 749 q 448 637 470 696 q 400 514 427 577 q 343 389 374 452 q 278 269 313 327 q 208 161 244 211 q 133 73 171 111 q 55 13 94 35 q -21 -12 16 -9 l -9 158 q 48 197 15 163 q 119 288 81 232 q 195 416 157 344 q 270 567 234 488 q 336 727 306 646 q 386 883 366 808 l 770 883 z "},"М":{"ha":1124,"x_min":17,"x_max":1040,"o":"m 1040 883 q 1017 400 1017 690 q 1027 0 1017 210 l 834 0 q 875 734 834 281 l 864 734 q 821 595 854 691 q 688 272 787 500 q 583 0 588 45 l 436 0 q 385 282 436 54 q 323 578 334 511 q 304 734 313 646 l 294 734 q 239 345 286 656 q 192 0 192 33 l 17 0 q 104 420 17 18 q 200 883 192 822 l 447 883 q 497 547 447 790 q 547 216 547 304 l 557 216 q 674 552 564 282 q 791 883 785 822 l 1040 883 z "},"Н":{"ha":881,"x_min":56,"x_max":825,"o":"m 825 883 q 772 462 812 806 q 739 0 745 202 l 550 0 q 597 389 564 106 l 273 389 q 245 0 258 241 l 56 0 q 113 462 71 102 q 142 883 138 703 l 332 883 q 286 530 318 794 l 614 530 q 635 883 631 684 l 825 883 z "},"О":{"ha":904,"x_min":37,"x_max":867,"o":"m 867 503 q 732 134 867 293 q 393 -24 597 -24 q 138 90 239 -24 q 37 376 37 203 q 173 746 37 588 q 511 903 309 903 q 766 790 666 903 q 867 503 867 676 m 687 490 q 628 684 687 611 q 479 756 568 756 q 290 642 361 756 q 218 392 218 528 q 277 198 218 271 q 426 125 336 125 q 615 240 543 125 q 687 490 687 355 z "},"П":{"ha":848,"x_min":57,"x_max":792,"o":"m 792 883 q 741 465 779 799 q 706 0 714 210 l 519 0 q 573 448 532 87 q 608 741 589 594 l 297 741 q 278 456 293 653 q 243 0 249 180 l 57 0 q 113 454 72 102 q 139 883 138 684 l 792 883 z "},"Р":{"ha":768,"x_min":57,"x_max":739,"o":"m 739 663 q 621 418 739 501 q 304 335 502 335 q 266 336 279 335 q 245 0 252 209 l 57 0 q 114 462 71 87 q 143 883 140 706 l 261 883 q 353 885 285 883 q 471 887 422 887 q 661 828 583 887 q 739 663 739 769 m 568 634 q 399 760 568 760 q 304 749 354 760 q 279 459 300 692 q 316 458 294 458 q 568 634 568 458 z "},"С":{"ha":711,"x_min":37,"x_max":696,"o":"m 696 876 l 658 720 q 515 745 585 745 q 301 645 378 745 q 223 406 223 545 q 289 211 223 290 q 479 132 354 132 q 657 161 559 132 l 629 5 q 446 -18 522 -18 q 139 100 241 -18 q 37 385 37 218 q 184 748 37 600 q 549 895 330 895 q 696 876 628 895 z "},"Т":{"ha":720,"x_min":58,"x_max":740,"o":"m 740 883 l 720 737 q 479 747 592 747 q 447 462 471 686 q 412 0 419 199 l 225 0 q 282 462 239 98 q 309 747 298 616 q 58 736 218 747 l 79 883 l 740 883 z "},"У":{"ha":726,"x_min":35,"x_max":771,"o":"m 771 883 q 661 616 769 846 q 460 238 552 386 q 277 32 368 91 q 35 -27 186 -27 l 37 115 q 208 147 151 118 q 307 250 265 176 q 188 585 307 301 q 68 883 68 869 l 271 883 q 341 658 272 865 q 410 414 410 451 l 416 414 q 510 627 430 429 q 593 883 590 824 l 771 883 z "},"Ф":{"ha":923,"x_min":30,"x_max":893,"o":"m 893 515 q 788 257 893 351 q 503 142 682 162 q 497 0 497 62 l 331 0 q 350 142 335 29 q 107 235 185 156 q 30 433 30 315 q 135 691 30 597 q 419 805 239 785 q 422 918 425 875 l 589 918 q 572 805 585 898 q 815 712 738 791 q 893 515 893 633 m 736 515 q 558 696 736 668 q 534 486 551 639 q 512 251 524 391 q 736 515 736 281 m 411 696 q 186 432 186 666 q 364 251 186 279 q 388 461 371 308 q 411 696 398 557 z "},"Х":{"ha":804,"x_min":-35,"x_max":802,"o":"m 802 883 q 672 695 802 865 q 509 494 543 525 l 509 484 q 643 235 546 438 q 741 0 741 31 l 524 0 q 464 176 524 27 q 380 366 404 326 l 370 366 q 254 175 336 323 q 172 0 172 26 l -35 0 q 115 228 -35 20 q 304 473 265 436 l 305 484 q 189 692 276 524 q 102 883 102 860 l 309 883 q 359 734 309 859 q 429 582 410 610 l 439 582 q 539 738 467 615 q 612 883 612 861 l 802 883 z "},"Ц":{"ha":861,"x_min":57,"x_max":816,"o":"m 816 138 q 781 -52 812 105 q 742 -281 749 -210 l 609 -281 q 637 0 618 -195 l 57 0 q 111 437 71 94 q 143 883 137 691 l 330 883 q 277 449 318 804 l 245 138 l 524 138 l 555 443 q 588 883 583 700 l 775 883 q 720 437 761 786 q 697 138 709 330 l 816 138 z "},"Ч":{"ha":810,"x_min":75,"x_max":753,"o":"m 753 883 q 701 462 741 807 q 668 0 673 206 l 478 0 q 527 374 490 71 q 356 356 456 356 q 138 410 200 356 q 75 606 75 464 q 84 744 75 652 q 94 883 94 837 l 275 883 q 246 654 246 742 q 282 522 246 556 q 408 488 318 488 q 541 505 490 488 q 564 883 564 731 l 753 883 z "},"Ш":{"ha":1196,"x_min":57,"x_max":1140,"o":"m 1140 883 q 1085 437 1126 786 q 1054 0 1059 191 l 57 0 q 111 437 71 94 q 142 883 137 691 l 328 883 q 275 449 316 804 l 242 138 l 484 138 l 516 443 q 549 883 544 705 l 734 883 q 682 449 722 804 l 650 138 l 890 138 l 922 443 q 954 883 950 705 l 1140 883 z "},"Щ":{"ha":1230,"x_min":57,"x_max":1185,"o":"m 1185 138 q 1149 -54 1181 102 q 1110 -281 1118 -210 l 978 -281 q 1005 0 987 -195 l 57 0 q 111 437 71 94 q 143 883 137 691 l 329 883 q 276 449 317 804 l 243 138 l 485 138 l 517 443 q 549 883 545 705 l 734 883 q 682 449 722 804 l 649 138 l 890 138 l 922 443 q 954 883 950 705 l 1140 883 q 1085 437 1126 786 q 1062 138 1074 330 l 1185 138 z "},"Ъ":{"ha":923,"x_min":62,"x_max":875,"o":"m 875 313 q 758 74 875 152 q 446 -4 641 -4 q 227 0 369 -4 q 283 462 241 94 q 323 746 302 633 q 62 738 222 746 l 80 883 l 504 883 q 459 557 494 839 q 541 561 506 561 q 780 500 684 561 q 875 313 875 439 m 699 301 q 512 428 699 428 q 445 425 481 428 q 418 129 430 283 q 475 123 452 123 q 639 169 579 123 q 699 301 699 214 z "},"Ы":{"ha":1067,"x_min":57,"x_max":1010,"o":"m 699 309 q 584 73 699 149 q 270 -4 469 -4 q 57 0 197 -4 q 114 462 71 94 q 142 883 142 733 l 332 883 q 289 557 323 839 q 366 561 331 561 q 603 498 507 561 q 699 309 699 435 m 1010 883 q 958 462 998 807 q 924 0 933 227 l 736 0 q 793 462 750 96 q 821 883 819 709 l 1010 883 m 523 298 q 468 398 523 368 q 336 428 412 428 q 275 425 304 428 q 248 129 260 283 q 298 123 275 123 q 460 166 398 123 q 523 298 523 210 z "},"Ь":{"ha":774,"x_min":57,"x_max":726,"o":"m 726 309 q 610 74 726 152 q 290 -4 494 -4 q 57 0 222 -4 q 113 462 71 94 q 142 883 141 730 l 332 883 q 289 557 323 839 q 386 561 349 561 q 629 499 532 561 q 726 309 726 438 m 550 298 q 356 428 550 428 q 275 425 318 428 q 250 129 260 283 q 319 123 288 123 q 550 298 550 123 z "},"Э":{"ha":745,"x_min":0,"x_max":707,"o":"m 707 520 q 583 132 707 282 q 220 -18 459 -18 q 0 1 119 -18 l 34 155 q 248 125 142 125 q 525 393 486 125 q 181 389 374 393 l 196 530 q 539 524 391 524 q 301 751 535 751 q 90 719 205 751 l 120 872 q 333 895 227 895 q 618 793 530 895 q 707 520 707 690 z "},"Ю":{"ha":1217,"x_min":57,"x_max":1179,"o":"m 1179 509 q 1054 133 1179 291 q 721 -24 929 -24 q 470 82 555 -24 q 385 385 385 189 q 387 399 385 392 l 273 399 q 246 0 250 176 l 57 0 q 114 462 71 96 q 143 883 140 709 l 332 883 q 286 527 321 819 l 409 527 q 568 804 456 705 q 840 903 681 903 q 1088 792 996 903 q 1179 509 1179 681 m 1002 497 q 949 687 1002 616 q 807 758 896 758 q 624 642 691 758 q 557 380 557 527 q 610 192 557 260 q 753 123 663 123 q 935 239 868 123 q 1002 497 1002 355 z "},"Я":{"ha":814,"x_min":-14,"x_max":758,"o":"m 758 883 q 705 461 745 805 q 672 0 677 205 l 486 0 q 530 354 497 71 q 451 356 497 356 q 321 298 371 356 q 197 41 272 241 q 176 0 187 16 l -14 0 q 30 89 -1 22 q 154 327 106 266 q 271 407 203 388 l 272 418 q 104 627 104 469 q 186 823 104 758 q 459 887 269 887 q 569 885 508 887 q 646 883 631 883 l 758 883 m 565 749 q 435 759 491 759 q 269 618 269 759 q 470 483 269 483 q 543 485 511 483 q 565 749 558 627 z "},"Ѓ":{"ha":665,"x_min":57,"x_max":685,"o":"m 685 883 l 665 732 q 298 742 458 742 q 273 419 294 666 q 239 0 243 137 l 57 0 q 111 439 69 83 q 142 883 142 736 l 685 883 m 675 1146 q 575 1055 675 1138 q 475 960 475 971 l 357 960 q 422 1055 357 971 q 488 1146 488 1139 l 675 1146 z "},"Ґ":{"ha":665,"x_min":57,"x_max":693,"o":"m 693 1065 q 677 898 688 1015 q 661 732 667 781 q 298 742 458 742 q 274 419 297 686 q 239 0 244 137 l 57 0 q 111 439 69 83 q 146 883 142 736 l 548 883 q 580 1065 561 941 l 693 1065 z "},"Ђ":{"ha":871,"x_min":58,"x_max":810,"o":"m 810 305 q 708 70 810 151 q 446 -11 606 -11 l 446 117 q 637 284 637 117 q 464 398 637 398 q 410 391 436 398 q 378 0 395 250 l 195 0 q 252 462 210 100 q 279 747 270 628 q 58 736 188 747 l 79 883 l 720 883 l 700 737 q 450 747 570 747 q 425 526 441 683 q 492 532 455 532 q 810 305 810 532 z "},"Є":{"ha":740,"x_min":37,"x_max":725,"o":"m 725 876 l 688 725 q 490 752 586 752 q 227 526 280 752 q 570 530 372 526 l 555 389 q 216 395 365 395 q 215 347 214 371 q 271 180 219 235 q 440 126 323 126 q 662 159 544 126 l 635 5 q 408 -18 513 -18 q 125 87 214 -18 q 37 362 37 193 q 160 747 37 599 q 522 895 283 895 q 725 876 622 895 z "},"Ѕ":{"ha":702,"x_min":18,"x_max":657,"o":"m 657 875 l 617 724 q 433 758 534 758 q 270 659 270 758 q 305 591 270 620 q 427 526 336 566 q 635 260 635 433 q 244 -24 635 -24 q 18 7 121 -24 l 66 158 q 259 120 166 120 q 389 134 347 120 q 464 226 464 157 q 423 306 464 271 q 289 384 387 338 q 102 631 102 473 q 199 834 102 772 q 448 897 296 897 q 657 875 574 897 z "},"Ѐ":{"ha":699,"x_min":56,"x_max":671,"o":"m 671 883 l 650 734 q 302 745 459 745 q 284 523 297 673 q 572 530 418 523 l 557 389 q 271 395 408 395 q 248 138 256 258 q 626 149 424 138 l 604 0 l 56 0 q 113 462 71 93 q 142 883 139 709 l 671 883 m 527 960 l 409 960 q 335 1055 409 971 q 260 1146 262 1138 l 440 1146 q 484 1055 440 1139 q 527 960 527 971 z "},"Ё":{"ha":699,"x_min":56,"x_max":671,"o":"m 671 883 l 650 734 q 302 745 459 745 q 284 523 297 673 q 572 530 418 523 l 557 389 q 271 395 408 395 q 248 138 256 258 q 626 149 424 138 l 604 0 l 56 0 q 113 462 71 93 q 142 883 139 709 l 671 883 m 659 1074 q 628 997 659 1029 q 553 966 597 966 q 480 1040 480 966 q 511 1116 480 1085 q 587 1147 543 1147 q 659 1074 659 1147 m 408 1074 q 377 997 408 1029 q 302 966 347 966 q 231 1040 231 966 q 261 1116 231 1084 q 337 1147 292 1147 q 408 1074 408 1147 z "},"І":{"ha":389,"x_min":57,"x_max":333,"o":"m 333 883 q 280 462 321 807 q 247 0 255 226 l 57 0 q 115 462 72 96 q 143 883 141 709 l 333 883 z "},"Ї":{"ha":389,"x_min":50,"x_max":477,"o":"m 333 883 q 280 462 321 807 q 247 0 255 226 l 57 0 q 115 462 72 96 q 143 883 141 709 l 333 883 m 477 1074 q 447 997 477 1029 q 372 966 416 966 q 299 1040 299 966 q 330 1116 299 1085 q 406 1147 361 1147 q 477 1074 477 1147 m 227 1074 q 196 997 227 1029 q 121 966 165 966 q 50 1040 50 966 q 80 1116 50 1084 q 156 1147 111 1147 q 227 1074 227 1147 z "},"Ј":{"ha":554,"x_min":-20,"x_max":514,"o":"m 514 883 q 453 384 500 793 q 332 63 429 158 q 91 -18 248 -18 q -20 -4 34 -18 l 6 142 q 90 121 47 121 q 217 160 175 121 q 294 370 278 216 q 332 883 327 680 l 514 883 z "},"Ѝ":{"ha":909,"x_min":57,"x_max":852,"o":"m 852 883 q 794 419 837 782 q 766 0 769 180 l 577 0 q 622 338 587 47 q 660 600 631 430 l 650 600 q 399 284 614 521 q 197 0 204 69 l 57 0 q 111 419 71 81 q 142 883 137 663 l 331 883 q 283 511 318 804 q 247 283 273 421 l 257 283 q 510 597 294 361 q 712 883 705 810 l 852 883 m 594 960 l 476 960 q 402 1055 476 971 q 328 1146 329 1138 l 507 1146 q 551 1055 507 1139 q 594 960 594 971 z "},"Ќ":{"ha":800,"x_min":57,"x_max":784,"o":"m 784 883 q 751 809 774 862 q 635 578 692 650 q 493 469 579 505 l 492 461 q 614 360 574 433 q 702 75 655 288 q 722 0 708 46 l 524 0 q 511 46 519 10 q 440 319 481 254 q 314 384 399 384 q 271 381 290 384 q 247 35 253 206 l 245 0 l 57 0 q 114 462 71 93 q 143 883 140 709 l 332 883 q 286 517 318 789 q 324 516 312 516 q 584 841 494 516 q 604 883 591 865 l 784 883 m 709 1146 q 609 1055 709 1138 q 509 960 509 971 l 391 960 q 457 1055 391 971 q 523 1146 523 1139 l 709 1146 z "},"Љ":{"ha":1144,"x_min":-21,"x_max":1096,"o":"m 924 285 q 751 398 924 398 q 697 391 723 398 q 674 125 682 250 q 717 120 696 120 q 924 285 924 120 m 1096 295 q 685 -4 1096 -4 q 486 0 576 -4 q 540 453 498 87 q 579 749 555 595 l 485 749 q 448 637 470 696 q 400 514 427 577 q 343 389 374 452 q 278 269 313 327 q 208 161 244 211 q 133 73 171 111 q 55 13 94 35 q -21 -12 16 -9 l -9 158 q 48 197 15 163 q 119 288 81 232 q 195 416 157 344 q 270 567 234 488 q 336 727 306 646 q 386 883 366 808 l 758 883 q 711 526 747 816 q 785 532 742 532 q 1006 475 916 532 q 1096 295 1096 417 z "},"Њ":{"ha":1159,"x_min":57,"x_max":1111,"o":"m 1111 298 q 982 58 1111 134 q 699 -4 878 -4 q 498 0 591 -4 q 546 389 513 106 l 273 389 q 245 0 258 241 l 57 0 q 114 462 74 102 q 142 883 141 703 l 332 883 q 286 530 318 794 l 561 530 q 583 883 576 673 l 772 883 q 726 526 761 814 q 796 532 756 532 q 1021 476 931 532 q 1111 298 1111 420 m 939 285 q 766 398 939 398 q 711 391 738 398 q 688 125 696 250 q 731 120 710 120 q 939 285 939 120 z "},"Ћ":{"ha":872,"x_min":59,"x_max":816,"o":"m 785 0 l 603 0 q 631 192 622 123 q 641 310 641 262 q 523 398 641 398 q 411 385 450 398 q 383 0 397 250 l 196 0 q 254 462 228 218 q 280 747 271 628 q 59 736 189 747 l 80 883 l 721 883 l 701 737 q 452 747 572 747 q 425 519 441 671 q 564 532 469 532 q 816 353 815 532 q 806 231 815 295 q 785 0 797 168 z "},"Ў":{"ha":726,"x_min":35,"x_max":774,"o":"m 771 883 q 661 616 769 846 q 460 238 552 386 q 277 32 368 91 q 35 -27 186 -27 l 37 115 q 208 147 151 118 q 307 250 265 176 q 188 585 307 301 q 68 883 68 869 l 271 883 q 341 658 272 865 q 410 414 410 451 l 416 414 q 510 627 430 429 q 593 883 590 824 l 771 883 m 774 1124 q 453 920 640 920 q 208 1109 239 920 l 367 1149 q 495 1017 393 1017 q 701 1166 591 1017 l 774 1124 z "},"Џ":{"ha":859,"x_min":57,"x_max":802,"o":"m 802 883 q 747 437 787 786 q 715 0 721 191 l 466 0 q 420 -281 448 -95 l 290 -281 q 304 0 299 -195 l 57 0 q 111 437 71 94 q 143 883 137 691 l 330 883 q 277 449 318 804 l 244 138 l 550 138 l 583 443 q 618 883 612 720 l 802 883 z "},"Ѣ":{"ha":895,"x_min":0,"x_max":833,"o":"m 833 301 q 406 -4 833 -4 q 201 0 334 -4 q 258 454 216 92 q 277 648 272 582 q 50 637 182 646 l 71 780 l 289 780 l 300 965 l 485 965 q 462 780 483 947 l 734 780 l 713 637 q 446 648 647 642 q 430 534 439 600 q 496 537 465 537 q 833 301 833 537 m 663 277 q 470 408 663 408 q 416 404 438 408 q 389 126 397 244 q 433 121 410 121 q 663 277 663 121 m 0 883 z "},"Ѳ":{"ha":904,"x_min":37,"x_max":867,"o":"m 867 503 q 733 135 867 295 q 393 -24 600 -24 q 138 90 239 -24 q 37 376 37 203 q 171 744 37 584 q 511 903 305 903 q 766 790 666 903 q 867 503 867 676 m 677 386 l 216 386 q 269 199 219 274 q 426 125 319 125 q 584 195 514 125 q 677 386 654 264 m 689 519 q 625 695 683 633 q 479 756 567 756 q 328 693 395 756 q 233 519 260 631 l 689 519 z "},"Ѵ":{"ha":863,"x_min":60,"x_max":878,"o":"m 878 908 l 867 739 q 809 699 842 734 q 739 608 776 664 q 662 481 701 553 q 587 330 623 409 q 511 153 551 251 q 471 0 471 54 l 253 0 q 157 443 253 54 q 60 883 60 832 l 264 883 q 321 532 264 834 q 378 189 378 230 l 389 189 q 429 330 389 230 q 506 507 469 429 q 588 655 544 584 q 679 782 631 727 q 777 871 727 838 q 878 908 827 905 z "},"а":{"ha":699,"x_min":35,"x_max":655,"o":"m 655 675 q 601 167 601 307 q 612 7 601 96 l 446 -12 q 441 119 441 44 l 431 119 q 208 -19 356 -19 q 79 45 122 -19 q 35 220 35 109 q 147 509 35 380 q 495 644 259 637 l 525 665 l 655 675 m 481 536 q 273 454 340 535 q 207 234 207 372 q 286 109 207 109 q 398 197 347 109 q 463 367 449 286 q 481 536 476 448 z "},"б":{"ha":745,"x_min":50,"x_max":715,"o":"m 715 964 l 692 808 q 517 785 650 802 q 286 716 337 760 q 191 484 224 664 l 196 484 q 467 635 286 635 q 640 567 576 635 q 703 370 703 498 q 592 84 703 195 q 309 -26 481 -26 q 50 270 50 -26 q 113 659 50 486 q 256 865 172 822 q 530 937 354 916 q 715 964 618 947 m 538 344 q 504 460 538 414 q 409 505 470 505 q 259 431 319 505 q 199 269 199 356 q 232 149 199 201 q 332 98 264 98 q 486 172 433 98 q 538 344 538 245 z "},"в":{"ha":675,"x_min":43,"x_max":631,"o":"m 631 521 q 592 410 631 452 q 503 353 553 368 l 503 342 q 620 207 620 309 q 520 35 620 90 q 289 -20 421 -20 q 43 189 43 -20 q 402 674 43 674 q 631 521 631 674 m 464 210 q 308 296 464 296 q 201 283 256 296 q 195 220 195 251 q 323 99 195 99 q 423 126 382 99 q 464 210 464 153 m 479 494 q 380 567 479 567 q 212 385 240 567 q 426 414 372 388 q 479 494 479 440 z "},"г":{"ha":534,"x_min":24,"x_max":509,"o":"m 509 515 q 447 387 509 444 q 291 288 399 343 q 204 232 227 256 q 182 169 182 208 q 281 108 182 108 q 483 168 370 108 l 460 34 q 267 -20 379 -20 q 24 144 24 -20 q 87 288 24 228 q 241 386 131 330 q 328 437 308 419 q 353 492 353 459 q 255 544 353 544 q 81 499 165 544 l 104 635 q 274 669 177 669 q 509 515 509 669 z "},"д":{"ha":748,"x_min":43,"x_max":699,"o":"m 699 514 q 596 124 699 275 q 313 -26 493 -26 q 115 51 187 -26 q 43 257 43 127 q 132 525 43 414 q 368 636 220 636 q 532 586 473 636 l 538 586 q 277 830 528 830 q 179 812 225 830 l 195 941 q 304 961 245 961 q 594 850 490 961 q 699 514 699 740 m 537 474 q 380 517 473 517 q 253 448 296 517 q 210 272 210 378 q 333 98 210 98 q 484 207 431 98 q 537 474 537 316 z "},"е":{"ha":669,"x_min":43,"x_max":644,"o":"m 644 504 q 209 294 644 302 q 242 160 209 204 q 358 115 275 115 q 591 185 467 115 l 570 51 q 313 -20 469 -20 q 109 63 175 -20 q 43 283 43 146 q 154 567 43 460 q 416 674 264 674 q 581 631 522 674 q 644 504 644 586 m 492 490 q 391 556 492 556 q 282 514 334 556 q 215 392 231 471 q 492 490 492 397 z "},"ж":{"ha":1135,"x_min":15,"x_max":1120,"o":"m 1120 654 l 1092 521 q 1041 533 1065 533 q 943 469 981 533 q 905 296 905 405 q 989 118 905 118 q 1086 151 1036 118 l 1069 23 q 943 -13 1019 -13 q 765 192 765 -13 q 802 359 765 292 l 795 366 q 685 217 745 300 q 617 87 625 133 q 613 0 613 62 l 449 -9 q 472 137 449 6 q 507 359 498 282 l 496 359 q 286 94 473 296 q 86 -13 233 -13 q 15 -1 41 -13 l 43 134 q 94 121 70 121 q 192 185 154 121 q 229 358 229 249 q 145 536 229 536 q 48 503 103 536 l 65 631 q 191 667 116 667 q 325 611 279 667 q 371 458 371 555 q 333 285 371 358 l 338 279 q 448 427 389 343 q 515 557 508 511 q 519 644 519 583 l 684 653 q 661 507 684 639 q 626 285 634 362 l 636 285 q 849 561 665 363 q 1048 667 909 667 q 1120 654 1093 667 z "},"з":{"ha":599,"x_min":18,"x_max":556,"o":"m 556 519 q 433 361 556 405 l 432 351 q 541 203 541 319 q 445 31 541 80 q 212 -18 349 -18 q 18 22 97 -18 l 45 146 q 224 100 129 100 q 382 199 382 100 q 227 275 382 275 q 116 269 157 275 l 140 387 q 235 383 181 383 q 396 478 396 383 q 279 543 396 543 q 92 498 186 543 l 118 624 q 329 667 193 667 q 490 629 424 667 q 556 519 556 591 z "},"и":{"ha":736,"x_min":65,"x_max":689,"o":"m 689 658 q 642 159 642 282 q 652 5 642 87 l 486 -14 q 481 121 481 41 l 472 121 q 240 -21 395 -21 q 65 181 65 -21 q 83 405 65 241 q 101 644 101 568 l 277 658 q 254 463 277 625 q 231 235 231 301 q 251 135 231 163 q 317 106 270 106 q 431 187 376 106 q 498 383 487 267 q 517 644 517 572 l 689 658 z "},"й":{"ha":736,"x_min":65,"x_max":720,"o":"m 689 658 q 642 159 642 282 q 652 5 642 87 l 486 -14 q 481 121 481 41 l 472 121 q 240 -21 395 -21 q 65 181 65 -21 q 83 405 65 241 q 101 644 101 568 l 277 658 q 254 463 277 625 q 231 235 231 301 q 251 135 231 163 q 317 106 270 106 q 431 187 376 106 q 498 383 487 267 q 517 644 517 572 l 689 658 m 720 943 q 399 739 586 739 q 154 928 185 739 l 313 968 q 441 836 338 836 q 647 985 536 836 l 720 943 z "},"к":{"ha":690,"x_min":45,"x_max":685,"o":"m 685 644 q 602 522 685 619 q 465 384 518 425 l 465 375 q 587 168 532 295 q 642 0 642 40 l 457 -7 q 423 113 457 22 q 341 271 389 203 q 273 172 316 241 q 218 0 231 103 l 45 -7 q 87 310 56 58 q 101 559 101 446 q 99 639 101 608 l 281 658 q 266 534 281 643 q 233 268 246 390 l 243 268 q 378 463 262 311 q 494 651 494 616 l 685 644 z "},"л":{"ha":693,"x_min":-23,"x_max":642,"o":"m 642 658 q 598 322 631 600 q 573 0 578 134 l 402 -7 q 418 121 402 24 q 444 315 434 219 q 461 524 456 422 l 448 524 q 385 500 408 524 q 240 240 361 477 q -23 -14 119 3 l -12 144 q 151 360 60 188 q 287 588 242 532 q 451 644 331 644 l 524 644 l 642 658 z "},"м":{"ha":935,"x_min":-23,"x_max":876,"o":"m 876 651 q 841 0 841 319 l 674 -7 q 690 244 674 57 q 718 517 706 432 l 706 517 q 588 259 694 479 q 479 7 483 39 l 334 -7 q 314 322 334 128 q 294 517 294 515 l 282 517 q 191 203 274 407 q -23 -14 107 0 l -12 144 q 142 392 77 205 q 208 637 208 580 l 411 651 q 432 447 411 625 q 453 163 453 268 l 460 163 q 552 394 465 214 q 646 637 640 574 l 876 651 z "},"н":{"ha":736,"x_min":45,"x_max":682,"o":"m 682 658 q 646 322 682 627 q 621 0 626 134 l 451 -7 q 467 112 451 16 q 491 308 483 208 l 484 308 q 441 274 478 274 q 368 277 422 274 q 298 281 313 281 q 241 242 253 281 q 216 0 229 201 l 45 -7 q 88 322 56 60 q 102 529 102 451 q 100 640 102 608 l 277 658 q 265 536 277 627 q 248 372 254 445 l 254 372 q 301 406 261 406 q 371 403 316 406 q 444 399 427 399 q 505 458 496 399 q 509 559 507 465 q 504 640 509 607 l 682 658 z "},"о":{"ha":743,"x_min":43,"x_max":700,"o":"m 700 372 q 594 90 700 206 q 323 -26 489 -26 q 125 58 208 -26 q 43 281 43 142 q 149 560 43 446 q 420 674 254 674 q 618 592 536 674 q 700 372 700 511 m 528 357 q 492 495 528 441 q 393 549 456 549 q 263 468 313 549 q 214 290 214 387 q 250 152 214 206 q 350 98 287 98 q 480 178 432 98 q 528 357 528 258 z "},"п":{"ha":741,"x_min":47,"x_max":676,"o":"m 676 464 q 658 240 676 404 q 640 0 640 76 l 465 -7 q 487 187 465 26 q 509 414 509 348 q 489 512 509 485 q 421 539 469 539 q 307 458 362 539 q 239 262 251 378 q 217 0 224 116 l 47 -7 q 94 468 94 345 q 83 642 94 539 l 252 659 q 256 524 256 601 l 266 524 q 500 666 345 666 q 676 464 676 666 z "},"р":{"ha":751,"x_min":8,"x_max":706,"o":"m 706 404 q 612 104 706 228 q 363 -20 518 -20 q 222 26 266 -20 l 214 26 q 184 -307 196 -140 l 8 -310 q 94 488 94 315 q 83 640 94 553 l 250 659 q 256 524 256 606 l 264 524 q 498 666 344 666 q 652 594 599 666 q 706 404 706 523 m 535 368 q 425 539 535 539 q 302 451 359 539 q 234 262 245 363 l 220 136 q 330 105 270 105 q 484 183 433 105 q 535 368 535 262 z "},"с":{"ha":587,"x_min":43,"x_max":570,"o":"m 570 651 l 534 513 q 404 532 477 532 q 264 464 315 532 q 214 304 214 395 q 358 115 214 115 q 538 175 440 115 l 517 41 q 316 -20 434 -20 q 110 68 176 -20 q 43 286 43 156 q 150 553 43 442 q 431 664 257 664 q 570 651 510 664 z "},"т":{"ha":1090,"x_min":47,"x_max":1025,"o":"m 1025 468 q 1007 240 1025 403 q 989 0 989 77 l 814 -7 q 837 181 814 16 q 859 400 859 345 q 844 511 859 483 q 795 538 829 538 q 685 453 737 538 q 622 262 633 368 q 604 0 604 83 l 429 -7 q 453 183 429 17 q 477 400 477 349 q 461 511 477 484 q 412 538 446 538 q 303 453 355 538 q 239 262 250 368 q 217 0 220 73 l 47 -7 q 96 468 96 344 q 83 642 96 539 l 252 659 q 256 524 256 606 l 266 524 q 490 666 347 666 q 641 524 637 666 l 649 524 q 873 666 732 666 q 992 618 959 666 q 1025 468 1025 570 z "},"у":{"ha":654,"x_min":4,"x_max":649,"o":"m 649 652 q 514 304 649 556 q 360 -4 380 52 q 221 -236 300 -172 q 4 -300 142 -300 l 4 -170 q 152 -115 90 -170 q 214 23 214 -60 q 131 345 214 115 q 49 644 49 574 l 244 652 q 282 391 244 559 q 321 162 321 223 l 331 162 q 405 365 334 186 q 476 642 476 545 l 649 652 z "},"ф":{"ha":966,"x_min":39,"x_max":926,"o":"m 926 416 q 813 117 926 229 q 532 -6 701 5 q 527 -39 530 -16 q 460 -231 511 -164 q 309 -312 410 -298 l 269 -216 q 354 -123 325 -180 q 392 61 383 -66 l 382 61 q 235 -6 336 -6 q 91 63 142 -6 q 39 250 39 132 q 152 552 39 444 q 435 672 265 661 q 440 705 436 682 q 660 951 471 926 l 700 856 q 611 782 638 830 q 574 605 583 733 l 584 605 q 731 672 630 672 q 875 603 823 672 q 926 416 926 534 m 766 410 q 677 550 766 550 q 599 515 631 550 q 562 422 567 481 q 536 106 556 361 q 706 196 646 113 q 766 410 766 279 m 429 559 q 259 470 319 553 q 199 256 199 387 q 288 116 199 116 q 367 151 335 116 q 404 243 399 185 q 429 559 410 305 z "},"х":{"ha":695,"x_min":-3,"x_max":675,"o":"m 675 652 q 575 512 675 631 q 439 359 476 393 l 439 349 q 553 163 473 305 q 633 0 633 21 l 435 -7 q 391 115 435 15 q 322 260 347 216 l 314 260 q 238 125 290 231 q 185 0 185 19 l -3 -7 q 103 156 -3 16 q 255 340 209 296 l 256 351 q 157 507 227 387 q 87 644 87 627 l 285 652 q 319 544 285 634 q 372 422 353 454 l 381 422 q 448 537 404 449 q 493 644 493 626 l 675 652 z "},"ц":{"ha":751,"x_min":65,"x_max":721,"o":"m 721 134 q 673 -53 700 61 q 643 -271 647 -167 l 477 -285 q 570 -3 486 -162 l 571 7 q 533 0 551 0 q 476 26 494 0 q 459 121 459 52 l 450 121 q 227 -21 378 -21 q 96 34 134 -21 q 65 181 65 80 q 83 405 65 241 q 101 644 101 568 l 276 658 q 252 467 276 631 q 229 235 229 302 q 245 135 229 163 q 307 106 261 106 q 414 189 363 106 q 477 383 465 271 q 495 644 495 549 l 669 658 q 620 208 620 333 q 629 146 620 163 q 663 130 638 130 q 721 134 692 130 z "},"ч":{"ha":652,"x_min":45,"x_max":605,"o":"m 605 658 q 562 322 595 600 q 536 0 542 134 l 365 -7 q 380 87 365 -5 q 411 326 397 201 l 401 325 q 192 209 324 209 q 45 389 45 209 q 58 641 45 461 l 228 659 q 215 561 228 642 q 201 440 201 479 q 215 359 201 381 q 262 338 229 338 q 376 407 328 338 q 431 551 425 475 q 432 638 433 591 l 605 658 z "},"ш":{"ha":1090,"x_min":65,"x_max":1042,"o":"m 1042 658 q 994 177 994 301 q 1002 5 994 106 l 838 -14 q 833 121 833 39 l 824 121 q 600 -21 743 -21 q 449 121 453 -21 l 441 121 q 217 -21 358 -21 q 98 27 131 -21 q 65 177 65 75 q 83 405 65 242 q 100 642 100 568 l 275 658 q 251 464 275 629 q 227 245 227 300 q 242 134 227 162 q 295 106 258 106 q 405 192 353 106 q 468 383 457 277 q 486 644 486 562 l 661 658 q 635 462 661 628 q 610 245 610 296 q 625 134 610 161 q 677 106 641 106 q 787 192 734 106 q 850 383 840 277 q 869 644 869 572 l 1042 658 z "},"щ":{"ha":1126,"x_min":65,"x_max":1095,"o":"m 1095 138 q 1059 -4 1074 64 q 1017 -271 1021 -167 l 851 -285 q 945 -3 861 -162 l 945 7 q 907 0 925 0 q 833 121 833 0 l 824 121 q 600 -21 743 -21 q 449 121 454 -21 l 441 121 q 217 -21 358 -21 q 98 27 131 -21 q 65 177 65 75 q 83 405 65 242 q 100 642 100 568 l 275 658 q 251 464 275 629 q 227 245 227 300 q 242 134 227 162 q 295 106 258 106 q 405 192 353 106 q 468 383 457 277 q 484 644 484 538 l 661 658 q 635 462 661 628 q 610 245 610 296 q 625 134 610 161 q 677 106 641 106 q 787 192 734 106 q 850 383 840 277 q 869 644 869 572 l 1042 658 q 994 208 994 334 q 1003 146 994 162 q 1037 130 1012 130 q 1095 138 1067 130 z "},"ъ":{"ha":748,"x_min":15,"x_max":721,"o":"m 721 236 q 627 45 721 108 q 407 -18 532 -18 q 245 24 308 -18 q 182 155 182 66 q 216 343 182 242 q 294 515 249 444 l 294 525 q 15 510 117 510 l 33 643 q 479 658 210 643 q 436 516 479 612 q 387 400 393 419 l 397 400 q 491 427 442 427 q 721 236 721 427 m 567 219 q 429 321 567 321 q 361 307 393 321 q 342 195 342 254 q 441 101 342 101 q 528 133 490 101 q 567 219 567 165 z "},"ы":{"ha":921,"x_min":65,"x_max":866,"o":"m 604 236 q 514 49 604 117 q 292 -18 425 -18 q 128 24 191 -18 q 65 155 65 66 q 80 391 65 221 q 96 641 96 560 l 277 659 q 241 400 267 604 l 251 400 q 359 428 301 428 q 604 236 604 428 m 866 658 q 850 518 866 640 q 826 322 834 397 q 801 0 811 181 l 632 -7 q 675 322 646 81 q 688 530 688 451 q 686 638 688 608 l 866 658 m 450 219 q 305 321 450 321 q 233 307 269 321 q 224 195 224 256 q 319 101 224 101 q 411 133 372 101 q 450 219 450 165 z "},"ь":{"ha":659,"x_min":65,"x_max":631,"o":"m 631 236 q 533 45 631 109 q 290 -18 435 -18 q 128 24 191 -18 q 65 155 65 66 q 80 391 65 221 q 96 641 96 560 l 277 659 q 241 400 267 604 l 251 400 q 387 428 323 428 q 631 236 631 428 m 477 219 q 326 321 477 321 q 233 307 281 321 q 224 195 224 256 q 332 101 224 101 q 436 132 395 101 q 477 219 477 163 z "},"э":{"ha":629,"x_min":17,"x_max":586,"o":"m 586 378 q 490 85 586 191 q 212 -20 394 -20 q 17 12 104 -20 l 50 150 q 237 105 133 105 q 424 273 393 105 q 151 264 296 273 l 169 397 q 436 389 313 389 q 276 539 424 539 q 80 481 177 539 l 104 617 q 315 667 192 667 q 586 378 586 667 z "},"ю":{"ha":1018,"x_min":51,"x_max":975,"o":"m 975 372 q 876 90 975 206 q 612 -26 777 -26 q 421 54 486 -26 q 353 271 357 134 l 239 271 q 219 0 223 111 l 51 -9 q 93 322 61 60 q 106 527 106 448 q 104 638 106 606 l 284 658 q 252 399 284 606 l 372 399 q 504 603 411 531 q 709 674 596 674 q 899 592 822 674 q 975 372 975 511 m 809 361 q 776 496 809 444 q 682 549 743 549 q 557 469 604 549 q 511 286 511 390 q 544 150 511 202 q 638 98 577 98 q 764 180 720 98 q 809 361 809 261 z "},"я":{"ha":677,"x_min":-23,"x_max":620,"o":"m 620 520 q 597 281 620 446 q 574 0 574 116 l 403 -7 q 418 131 403 31 q 438 275 433 232 q 322 262 398 262 q -23 -18 151 -12 l -12 144 q 202 284 85 163 l 204 294 q 70 475 70 345 q 157 626 70 576 q 399 675 245 675 q 620 520 620 675 m 462 476 q 438 538 462 516 q 359 559 415 559 q 256 536 291 559 q 221 459 221 513 q 347 365 221 365 q 453 376 401 365 q 462 476 462 418 z "},"ѓ":{"ha":534,"x_min":24,"x_max":571,"o":"m 509 515 q 447 387 509 444 q 291 288 399 343 q 204 232 227 256 q 182 169 182 208 q 281 108 182 108 q 483 168 370 108 l 460 34 q 267 -20 379 -20 q 24 144 24 -20 q 87 288 24 228 q 241 386 131 330 q 328 437 308 419 q 353 492 353 459 q 255 544 353 544 q 81 499 165 544 l 104 635 q 274 669 177 669 q 509 515 509 669 m 571 956 q 471 848 571 948 q 371 736 371 747 l 253 736 q 322 848 253 747 q 391 956 391 949 l 571 956 z "},"ґ":{"ha":565,"x_min":45,"x_max":586,"o":"m 586 827 q 559 509 586 764 q 259 521 430 521 q 242 322 255 465 q 218 0 222 134 l 45 -7 q 88 322 56 60 q 113 644 108 510 l 456 644 q 479 827 479 776 l 586 827 z "},"ђ":{"ha":727,"x_min":35,"x_max":662,"o":"m 662 350 q 566 -67 662 111 q 280 -313 463 -258 l 260 -201 q 433 3 365 -164 q 492 295 492 149 q 400 479 492 479 q 289 396 340 479 q 228 213 238 313 q 211 0 214 91 l 39 -7 q 102 504 56 91 q 117 745 117 640 l 35 745 l 53 840 l 122 840 q 127 954 125 882 l 311 964 q 290 840 307 924 l 498 840 l 480 745 l 276 745 q 246 482 262 633 l 256 482 q 477 607 332 607 q 615 536 568 607 q 662 350 662 466 z "},"є":{"ha":610,"x_min":43,"x_max":589,"o":"m 589 646 l 555 512 q 388 540 490 540 q 210 390 252 540 q 498 398 337 392 l 481 268 q 198 277 408 271 q 237 151 201 190 q 366 113 274 113 q 558 165 453 113 l 534 37 q 326 -20 450 -20 q 43 259 43 -20 q 135 557 43 446 q 416 667 228 667 q 589 646 524 667 z "},"ѕ":{"ha":551,"x_min":3,"x_max":515,"o":"m 515 655 l 478 521 q 323 543 407 543 q 217 479 217 543 q 317 396 217 436 q 493 202 493 325 q 183 -18 493 -18 q 3 2 79 -18 l 39 136 q 197 109 117 109 q 341 175 341 109 q 242 265 341 222 q 120 336 159 301 q 65 455 65 385 q 143 616 65 563 q 337 669 222 669 q 515 655 451 669 z "},"ѐ":{"ha":669,"x_min":43,"x_max":644,"o":"m 644 504 q 209 294 644 302 q 242 160 209 204 q 358 115 275 115 q 591 185 467 115 l 570 51 q 313 -20 469 -20 q 109 63 175 -20 q 43 283 43 146 q 154 567 43 460 q 416 674 264 674 q 581 631 522 674 q 644 504 644 586 m 492 490 q 391 556 492 556 q 282 514 334 556 q 215 392 231 471 q 492 490 492 397 m 486 736 l 368 736 q 294 848 368 747 q 219 956 220 948 l 392 956 q 439 848 392 949 q 486 736 486 747 z "},"ё":{"ha":669,"x_min":43,"x_max":644,"o":"m 644 504 q 209 294 644 302 q 242 160 209 204 q 358 115 275 115 q 591 185 467 115 l 570 51 q 313 -20 469 -20 q 109 63 175 -20 q 43 283 43 146 q 154 567 43 460 q 416 674 264 674 q 581 631 522 674 q 644 504 644 586 m 492 490 q 391 556 492 556 q 282 514 334 556 q 215 392 231 471 q 492 490 492 397 m 634 866 q 604 790 634 821 q 528 758 573 758 q 456 833 456 758 q 487 908 456 878 q 563 939 518 939 q 634 866 634 939 m 384 866 q 353 790 384 821 q 277 758 322 758 q 206 832 206 758 q 237 908 206 877 q 313 939 268 939 q 384 866 384 939 z "},"і":{"ha":331,"x_min":47,"x_max":337,"o":"m 285 658 q 269 518 286 640 q 245 322 253 397 q 220 0 230 181 l 47 -7 q 90 322 60 81 q 103 563 103 451 q 100 638 103 608 l 285 658 m 337 862 q 300 771 337 809 q 210 734 264 734 q 146 759 169 734 q 124 823 124 785 q 161 913 124 876 q 251 949 197 949 q 337 862 337 949 z "}}}
